<svg width="380" height="250" viewBox="0 0 380 250" fill="none" xmlns="http://www.w3.org/2000/svg">
<g filter="url(#filter0_d_778_5961)">
<rect x="35" y="33" width="306.306" height="184.922" rx="30" fill="white"/>
</g>
<path d="M56.28 51.1441H68.36V52.8081H56.28V51.1441ZM55.656 59.1921H69.08V60.8881H55.656V59.1921ZM61.288 60.6961H63.4V64.4241H61.288V60.6961ZM62.36 53.3841C63.9493 53.3841 65.192 53.6027 66.088 54.0401C66.984 54.4774 67.432 55.1067 67.432 55.9281C67.432 56.7494 66.984 57.3841 66.088 57.8321C65.192 58.2694 63.944 58.4881 62.344 58.4881C60.7547 58.4881 59.512 58.2694 58.616 57.8321C57.72 57.3841 57.272 56.7494 57.272 55.9281C57.272 55.1067 57.72 54.4774 58.616 54.0401C59.512 53.6027 60.76 53.3841 62.36 53.3841ZM62.344 54.9681C61.384 54.9681 60.664 55.0427 60.184 55.1921C59.7147 55.3414 59.48 55.5867 59.48 55.9281C59.48 56.2587 59.7147 56.5041 60.184 56.6641C60.664 56.8241 61.384 56.9041 62.344 56.9041C63.3147 56.9041 64.0347 56.8241 64.504 56.6641C64.984 56.5041 65.224 56.2587 65.224 55.9281C65.224 55.5867 64.984 55.3414 64.504 55.1921C64.0347 55.0427 63.3147 54.9681 62.344 54.9681ZM61.288 49.5921H63.4V52.2481H61.288V49.5921ZM80.5828 49.5921H82.7108V64.4081H80.5828V49.5921ZM76.2148 51.1281H78.3108C78.3108 52.2587 78.1988 53.3414 77.9748 54.3761C77.7614 55.4001 77.3988 56.3654 76.8868 57.2721C76.3854 58.1787 75.6921 59.0214 74.8068 59.8001C73.9321 60.5681 72.8388 61.2721 71.5268 61.9121L70.4068 60.2321C71.8361 59.5387 72.9721 58.7761 73.8148 57.9441C74.6681 57.1014 75.2814 56.1521 75.6548 55.0961C76.0281 54.0294 76.2148 52.8347 76.2148 51.5121V51.1281ZM71.2068 51.1281H77.2068V52.8241H71.2068V51.1281ZM85.0935 61.0641H98.5175V62.7921H85.0935V61.0641ZM90.7255 58.2481H92.8375V61.7521H90.7255V58.2481ZM86.6135 50.5521H96.9975V55.4961H88.7415V57.9761H86.6295V53.8321H94.8855V52.2481H86.6135V50.5521ZM86.6295 57.1441H97.3335V58.8401H86.6295V57.1441ZM103.015 60.9681H116.439V62.6961H103.015V60.9681ZM108.647 57.8001H110.759V61.3841H108.647V57.8001ZM104.423 50.5361H106.551V52.8241H112.855V50.5361H114.967V58.2481H104.423V50.5361ZM106.551 54.4881V56.5521H112.855V54.4881H106.551ZM119.382 53.5921H129.654V55.2881H119.382V53.5921ZM117.734 56.8241H131.142V58.5201H117.734V56.8241ZM119.382 50.1201H121.51V54.4401H119.382V50.1201ZM119.254 62.3921H129.734V64.1041H119.254V62.3921ZM119.254 59.6881H121.382V62.8561H119.254V59.6881ZM138.6 57.1281H140.728V61.2721H138.6V57.1281ZM143.976 57.1281H146.104V61.2721H143.976V57.1281ZM135.656 60.9681H149.08V62.6961H135.656V60.9681ZM142.344 50.3281C143.411 50.3281 144.36 50.4934 145.192 50.8241C146.035 51.1547 146.691 51.6187 147.16 52.2161C147.64 52.8027 147.88 53.5014 147.88 54.3121C147.88 55.1121 147.64 55.8107 147.16 56.4081C146.691 56.9947 146.035 57.4534 145.192 57.7841C144.36 58.1147 143.411 58.2801 142.344 58.2801C141.288 58.2801 140.339 58.1147 139.496 57.7841C138.664 57.4534 138.008 56.9947 137.528 56.4081C137.048 55.8107 136.808 55.1121 136.808 54.3121C136.808 53.5014 137.048 52.8027 137.528 52.2161C138.008 51.6187 138.664 51.1547 139.496 50.8241C140.339 50.4934 141.288 50.3281 142.344 50.3281ZM142.344 51.9761C141.661 51.9761 141.059 52.0721 140.536 52.2641C140.024 52.4454 139.624 52.7067 139.336 53.0481C139.048 53.3894 138.904 53.8107 138.904 54.3121C138.904 54.7921 139.048 55.2081 139.336 55.5601C139.624 55.9014 140.024 56.1681 140.536 56.3601C141.059 56.5414 141.661 56.6321 142.344 56.6321C143.037 56.6321 143.64 56.5414 144.152 56.3601C144.675 56.1681 145.075 55.9014 145.352 55.5601C145.64 55.2081 145.784 54.7921 145.784 54.3121C145.784 53.8107 145.64 53.3894 145.352 53.0481C145.075 52.7067 144.675 52.4454 144.152 52.2641C143.64 52.0721 143.037 51.9761 142.344 51.9761ZM152.023 50.2641H161.399V51.9441H152.023V50.2641ZM150.375 55.5921H163.799V57.2721H150.375V55.5921ZM160.119 50.2641H162.215V51.4481C162.215 52.0774 162.199 52.7547 162.167 53.4801C162.135 54.2054 162.007 55.0481 161.783 56.0081L159.655 55.9921C159.889 55.0214 160.023 54.1787 160.055 53.4641C160.097 52.7494 160.119 52.0774 160.119 51.4481V50.2641ZM151.943 58.8241H162.151V64.2641H151.943V58.8241ZM160.071 60.4881H154.039V62.5841H160.071V60.4881ZM175.782 49.5921H177.814V64.4081H175.782V49.5921ZM170.902 54.6641H173.366V56.3921H170.902V54.6641ZM172.79 49.8321H174.774V63.7361H172.79V49.8321ZM167.718 52.0081H169.318V53.5281C169.318 54.3601 169.254 55.1814 169.126 55.9921C169.008 56.8027 168.822 57.5707 168.566 58.2961C168.31 59.0107 167.974 59.6561 167.558 60.2321C167.142 60.8081 166.64 61.2827 166.054 61.6561L164.79 60.0881C165.515 59.6294 166.091 59.0534 166.518 58.3601C166.944 57.6561 167.248 56.8881 167.43 56.0561C167.622 55.2134 167.718 54.3707 167.718 53.5281V52.0081ZM168.198 52.0081H169.782V53.5281C169.782 54.3494 169.872 55.1601 170.054 55.9601C170.235 56.7601 170.534 57.4907 170.95 58.1521C171.366 58.8027 171.931 59.3361 172.646 59.7521L171.414 61.2881C170.624 60.8187 169.995 60.1841 169.526 59.3841C169.056 58.5841 168.715 57.6827 168.502 56.6801C168.299 55.6667 168.198 54.6161 168.198 53.5281V52.0081ZM165.334 51.0801H171.942V52.7921H165.334V51.0801Z" fill="black"/>
<g filter="url(#filter1_d_778_5961)">
<path d="M55.0234 92.7116C55.0234 81.6659 63.9777 72.7116 75.0234 72.7116H301.037C312.082 72.7116 321.037 81.6659 321.037 92.7116V182.442C321.037 193.488 312.082 202.442 301.037 202.442H75.0234C63.9777 202.442 55.0234 193.488 55.0234 182.442V92.7116Z" fill="white"/>
</g>
<path d="M55.0234 92.7116C55.0234 81.6659 63.9777 72.7116 75.0234 72.7116H301.037C312.082 72.7116 321.037 81.6659 321.037 92.7116V104.397H55.0234V92.7116Z" fill="url(#paint0_linear_778_5961)" stroke="url(#paint1_linear_778_5961)"/>
<path d="M74.9281 82.6793H76.8881C76.8881 83.8272 76.6501 84.8539 76.1741 85.7593C75.6981 86.6553 75.0121 87.4159 74.1161 88.0413C73.2201 88.6573 72.1234 89.1333 70.8261 89.4693L70.1261 87.9993C71.1994 87.7379 72.0908 87.3879 72.8001 86.9493C73.5094 86.5106 74.0414 86.0066 74.3961 85.4373C74.7508 84.8586 74.9281 84.2519 74.9281 83.6172V82.6793ZM70.8681 82.6793H76.1321V84.1493H70.8681V82.6793ZM78.9741 81.9372H80.8361V89.1613H78.9741V81.9372ZM72.2541 89.7213H80.8361V94.7753H72.2541V89.7213ZM79.0021 91.1773H74.0881V93.3053H79.0021V91.1773ZM85.945 89.0213H84.699L84.797 87.5373L83.579 88.3493L82.977 87.2853L84.279 86.6413L82.977 85.9972L83.579 84.9193L84.797 85.7313L84.699 84.2612H85.945L85.847 85.7313L87.065 84.9193L87.681 85.9972L86.379 86.6413L87.681 87.2853L87.065 88.3493L85.847 87.5373L85.945 89.0213ZM95.4496 84.3593H98.0956V85.8712H95.4496V84.3593ZM91.7956 82.6093H93.3216V83.8273C93.3216 84.6859 93.1909 85.4933 92.9296 86.2493C92.6776 86.9959 92.2856 87.6493 91.7536 88.2093C91.2309 88.7693 90.5589 89.1893 89.7376 89.4693L88.7436 88.0133C89.4716 87.7706 90.0596 87.4346 90.5076 87.0053C90.9556 86.5666 91.2822 86.0766 91.4876 85.5353C91.6929 84.9846 91.7956 84.4153 91.7956 83.8273V82.6093ZM92.1736 82.6093H93.6856V83.9392C93.6856 84.3406 93.7416 84.7373 93.8536 85.1293C93.9656 85.5119 94.1382 85.8759 94.3716 86.2213C94.6049 86.5666 94.9036 86.8746 95.2676 87.1453C95.6316 87.4159 96.0702 87.6353 96.5836 87.8033L95.6036 89.2593C94.8289 88.9886 94.1849 88.5873 93.6716 88.0553C93.1676 87.5233 92.7896 86.9072 92.5376 86.2072C92.2949 85.4979 92.1736 84.7419 92.1736 83.9392V82.6093ZM90.8436 90.2393H99.6916V94.9153H97.8156V91.7233H90.8436V90.2393ZM97.8156 81.9513H99.6916V89.6653H97.8156V81.9513Z" fill="white"/>
<path d="M278.428 93.6693V92.5493L281.564 89.0913C282.474 88.0833 283.006 87.5933 283.006 86.6973C283.006 85.8573 282.544 85.4792 281.48 85.4792C280.318 85.4792 279.814 85.8993 279.758 87.1733H278.176C278.288 85.4653 279.618 84.0652 281.48 84.0652C283.384 84.0652 284.644 85.1853 284.644 86.6833C284.644 87.7753 284.126 88.4473 283.104 89.5673L280.598 92.3253H284.798V93.6693H278.428ZM288.969 93.8653C286.757 93.8653 285.357 91.8773 285.357 88.9513C285.357 86.0533 286.757 84.0652 288.969 84.0652C291.195 84.0652 292.595 86.0533 292.595 88.9513C292.595 91.8773 291.195 93.8653 288.969 93.8653ZM288.969 92.4513C290.495 92.4513 291.013 91.5133 291.013 88.9513C291.013 86.4173 290.495 85.4792 288.969 85.4792C287.443 85.4792 286.939 86.4173 286.939 88.9513C286.939 91.5133 287.443 92.4513 288.969 92.4513ZM302.969 81.9372H304.747V94.9013H302.969V81.9372ZM301.247 86.9352H303.403V88.4333H301.247V86.9352ZM300.071 82.1613H301.793V94.2993H300.071V82.1613ZM293.981 90.4493H294.877C295.419 90.4493 295.932 90.4446 296.417 90.4353C296.903 90.4166 297.383 90.3839 297.859 90.3373C298.345 90.2813 298.839 90.2113 299.343 90.1273L299.497 91.6393C298.975 91.7326 298.466 91.8073 297.971 91.8633C297.477 91.9193 296.977 91.9566 296.473 91.9753C295.969 91.9846 295.437 91.9893 294.877 91.9893H293.981V90.4493ZM293.981 83.4493H298.755V84.9473H295.815V91.1913H293.981V83.4493Z" fill="white"/>
<path d="M70.8542 189.827V189.167L73.6142 186.083C74.5382 185.051 74.9942 184.631 74.9942 183.791C74.9942 182.879 74.5142 182.423 73.3502 182.423C72.1262 182.423 71.5622 182.963 71.5022 184.103H70.6622C70.7822 182.759 71.8502 181.631 73.3502 181.631C74.7902 181.631 75.8582 182.531 75.8582 183.755C75.8582 184.739 75.3302 185.315 74.4782 186.263L71.9702 189.083H76.0502V189.827H70.8542ZM76.9862 186.263L77.3102 181.763H81.7382V182.519H78.0782L77.8622 185.363C78.2702 184.883 78.8702 184.619 79.6502 184.619C81.1502 184.619 82.1822 185.663 82.1822 187.271C82.1822 188.843 81.0782 189.959 79.4462 189.959C78.0662 189.959 77.1902 189.227 76.8422 187.943H77.6822C77.8982 188.735 78.4022 189.179 79.4462 189.179C80.7782 189.179 81.3662 188.555 81.3662 187.295C81.3662 186.047 80.8142 185.375 79.4582 185.375C78.5822 185.375 78.0782 185.615 77.7902 186.263H76.9862ZM83.2873 189.959C82.8793 189.959 82.7953 189.863 82.7953 189.419C82.7953 188.999 82.8793 188.891 83.2873 188.891C83.6833 188.891 83.7793 188.999 83.7793 189.419C83.7793 189.863 83.6833 189.959 83.2873 189.959ZM87.0455 189.959C85.2815 189.959 84.1415 188.291 84.1415 185.783C84.1415 183.299 85.2815 181.631 87.0455 181.631C88.8095 181.631 89.9495 183.299 89.9495 185.783C89.9495 188.291 88.8095 189.959 87.0455 189.959ZM87.0455 189.167C88.5215 189.167 89.0855 188.147 89.0855 185.783C89.0855 183.443 88.5215 182.423 87.0455 182.423C85.5695 182.423 85.0055 183.443 85.0055 185.783C85.0055 188.147 85.5695 189.167 87.0455 189.167ZM93.4755 189.947C91.7595 189.947 90.7275 188.903 90.7275 187.319C90.7275 186.251 91.1355 185.555 91.7715 184.607L93.6915 181.751H94.6755L92.5515 184.859C92.8395 184.727 93.1395 184.619 93.6555 184.607C95.1915 184.559 96.2355 185.615 96.2355 187.271C96.2355 188.927 95.2035 189.947 93.4755 189.947ZM91.5795 187.247C91.5795 188.663 92.2275 189.167 93.4755 189.167C94.7235 189.167 95.3835 188.663 95.3835 187.247C95.3835 185.831 94.7235 185.327 93.4755 185.327C92.2275 185.327 91.5795 185.831 91.5795 187.247ZM97.2678 189.959C96.8598 189.959 96.7758 189.863 96.7758 189.419C96.7758 188.999 96.8598 188.891 97.2678 188.891C97.6638 188.891 97.7598 188.999 97.7598 189.419C97.7598 189.863 97.6638 189.959 97.2678 189.959ZM100.426 189.827H99.586V182.735L97.882 184.283V183.323L99.586 181.763H100.426V189.827ZM104.117 189.827H103.277V182.735L101.573 184.283V183.323L103.277 181.763H104.117V189.827Z" fill="#3F3F47"/>
<path d="M78.5959 135.597H79.5919V141.225H78.5959V135.597ZM72.5239 141.753H79.5919V144.357H73.5319V145.989H72.5479V143.625H78.6079V142.545H72.5239V141.753ZM72.5479 145.533H79.9879V146.337H72.5479V145.533ZM71.1679 136.341H76.9999V137.121H71.1679V136.341ZM70.9879 140.853L70.8679 140.037C71.5159 140.029 72.2199 140.017 72.9799 140.001C73.7399 139.985 74.5079 139.957 75.2839 139.917C76.0679 139.869 76.8119 139.805 77.5159 139.725L77.5639 140.445C76.8519 140.557 76.1079 140.641 75.3319 140.697C74.5559 140.753 73.7959 140.793 73.0519 140.817C72.3159 140.841 71.6279 140.853 70.9879 140.853ZM72.2359 136.701H73.1959V140.385H72.2359V136.701ZM74.9599 136.701H75.9319V140.385H74.9599V136.701ZM84.139 141.189H85.123V144.429H84.139V141.189ZM88.147 141.189H89.143V144.429H88.147V141.189ZM81.727 144.237H91.567V145.065H81.727V144.237ZM86.623 136.281C87.391 136.281 88.071 136.397 88.663 136.629C89.255 136.861 89.719 137.185 90.055 137.601C90.399 138.017 90.571 138.509 90.571 139.077C90.571 139.637 90.399 140.129 90.055 140.553C89.719 140.969 89.255 141.293 88.663 141.525C88.071 141.749 87.391 141.861 86.623 141.861C85.863 141.861 85.183 141.749 84.583 141.525C83.991 141.293 83.527 140.969 83.191 140.553C82.855 140.129 82.687 139.637 82.687 139.077C82.687 138.509 82.855 138.017 83.191 137.601C83.527 137.185 83.991 136.861 84.583 136.629C85.183 136.397 85.863 136.281 86.623 136.281ZM86.623 137.073C86.047 137.073 85.535 137.157 85.087 137.325C84.639 137.493 84.287 137.729 84.031 138.033C83.775 138.329 83.647 138.677 83.647 139.077C83.647 139.477 83.775 139.829 84.031 140.133C84.287 140.429 84.639 140.661 85.087 140.829C85.535 140.997 86.047 141.081 86.623 141.081C87.207 141.081 87.723 140.997 88.171 140.829C88.619 140.661 88.971 140.429 89.227 140.133C89.483 139.829 89.611 139.477 89.611 139.077C89.611 138.677 89.483 138.329 89.227 138.033C88.971 137.729 88.619 137.493 88.171 137.325C87.723 137.157 87.207 137.073 86.623 137.073ZM100.194 135.609H101.19V143.745H100.194V135.609ZM100.878 139.173H102.786V140.001H100.878V139.173ZM92.79 136.929H99.198V137.733H92.79V136.929ZM95.994 138.321C96.506 138.321 96.958 138.409 97.35 138.585C97.742 138.753 98.046 138.989 98.262 139.293C98.478 139.589 98.586 139.941 98.586 140.349C98.586 140.757 98.478 141.113 98.262 141.417C98.046 141.713 97.742 141.945 97.35 142.113C96.958 142.281 96.506 142.365 95.994 142.365C95.482 142.365 95.03 142.281 94.638 142.113C94.246 141.945 93.938 141.713 93.714 141.417C93.498 141.113 93.39 140.757 93.39 140.349C93.39 139.941 93.498 139.589 93.714 139.293C93.938 138.989 94.246 138.753 94.638 138.585C95.03 138.409 95.482 138.321 95.994 138.321ZM95.994 139.101C95.506 139.101 95.11 139.217 94.806 139.449C94.502 139.673 94.35 139.973 94.35 140.349C94.35 140.725 94.502 141.025 94.806 141.249C95.11 141.473 95.506 141.585 95.994 141.585C96.49 141.585 96.886 141.473 97.182 141.249C97.486 141.025 97.638 140.725 97.638 140.349C97.638 139.973 97.486 139.673 97.182 139.449C96.886 139.217 96.49 139.101 95.994 139.101ZM95.502 135.609H96.498V137.337H95.502V135.609ZM94.434 145.401H101.67V146.217H94.434V145.401ZM94.434 143.097H95.418V145.737H94.434V143.097ZM112.003 138.417H114.439V139.245H112.003V138.417ZM114.139 135.597H115.135V142.065H114.139V135.597ZM111.559 142.401C112.311 142.401 112.955 142.481 113.491 142.641C114.035 142.801 114.451 143.033 114.739 143.337C115.027 143.633 115.171 143.997 115.171 144.429C115.171 145.069 114.847 145.565 114.199 145.917C113.559 146.269 112.679 146.445 111.559 146.445C110.439 146.445 109.555 146.269 108.907 145.917C108.267 145.565 107.947 145.069 107.947 144.429C107.947 143.997 108.091 143.633 108.379 143.337C108.675 143.033 109.091 142.801 109.627 142.641C110.171 142.481 110.815 142.401 111.559 142.401ZM111.559 143.181C111.015 143.181 110.547 143.229 110.155 143.325C109.763 143.421 109.459 143.561 109.243 143.745C109.035 143.929 108.931 144.157 108.931 144.429C108.931 144.685 109.035 144.905 109.243 145.089C109.459 145.273 109.763 145.417 110.155 145.521C110.547 145.617 111.015 145.665 111.559 145.665C112.111 145.665 112.579 145.617 112.963 145.521C113.355 145.417 113.655 145.273 113.863 145.089C114.079 144.905 114.187 144.685 114.187 144.429C114.187 144.157 114.079 143.929 113.863 143.745C113.655 143.561 113.355 143.421 112.963 143.325C112.579 143.229 112.111 143.181 111.559 143.181ZM108.967 136.701H109.783V137.577C109.783 138.241 109.655 138.865 109.399 139.449C109.151 140.025 108.799 140.533 108.343 140.973C107.887 141.405 107.359 141.737 106.759 141.969L106.243 141.177C106.651 141.033 107.019 140.837 107.347 140.589C107.683 140.341 107.971 140.057 108.211 139.737C108.459 139.417 108.647 139.073 108.775 138.705C108.903 138.337 108.967 137.961 108.967 137.577V136.701ZM109.159 136.701H109.975V137.565C109.975 138.029 110.083 138.481 110.299 138.921C110.515 139.361 110.823 139.749 111.223 140.085C111.623 140.421 112.083 140.685 112.603 140.877L112.099 141.669C111.507 141.453 110.991 141.141 110.551 140.733C110.111 140.317 109.767 139.837 109.519 139.293C109.279 138.749 109.159 138.173 109.159 137.565V136.701ZM106.555 136.389H112.351V137.205H106.555V136.389ZM117.246 144.249H127.086V145.077H117.246V144.249ZM121.65 141.645H122.634V144.489H121.65V141.645ZM118.398 136.365H119.394V138.297H124.914V136.365H125.898V141.921H118.398V136.365ZM119.394 139.113V141.105H124.914V139.113H119.394ZM128.73 136.581H133.722V141.597H128.73V136.581ZM132.75 137.385H129.702V140.793H132.75V137.385ZM135.714 135.597H136.71V143.553H135.714V135.597ZM136.398 138.897H138.306V139.725H136.398V138.897ZM129.954 145.401H137.19V146.217H129.954V145.401ZM129.954 142.797H130.938V145.749H129.954V142.797ZM144.043 135.825H144.811V136.605C144.811 137.013 144.723 137.429 144.547 137.853C144.371 138.269 144.107 138.649 143.755 138.993C143.411 139.337 142.979 139.605 142.459 139.797L141.979 139.053C142.427 138.901 142.803 138.689 143.107 138.417C143.411 138.137 143.643 137.837 143.803 137.517C143.963 137.197 144.043 136.893 144.043 136.605V135.825ZM144.283 135.825H145.027V136.605C145.027 136.861 145.103 137.141 145.255 137.445C145.407 137.741 145.631 138.025 145.927 138.297C146.223 138.561 146.579 138.777 146.995 138.945L146.623 139.725C146.087 139.541 145.647 139.277 145.303 138.933C144.959 138.581 144.703 138.201 144.535 137.793C144.367 137.377 144.283 136.981 144.283 136.605V135.825ZM148.207 135.825H148.975V136.605C148.975 136.997 148.887 137.401 148.711 137.817C148.543 138.225 148.287 138.601 147.943 138.945C147.599 139.281 147.159 139.541 146.623 139.725L146.251 138.945C146.675 138.785 147.031 138.577 147.319 138.321C147.615 138.065 147.835 137.785 147.979 137.481C148.131 137.169 148.207 136.877 148.207 136.605V135.825ZM148.435 135.825H149.203V136.605C149.203 136.925 149.279 137.245 149.431 137.565C149.591 137.885 149.823 138.177 150.127 138.441C150.439 138.705 150.819 138.909 151.267 139.053L150.799 139.797C150.271 139.621 149.831 139.369 149.479 139.041C149.135 138.705 148.875 138.329 148.699 137.913C148.523 137.489 148.435 137.053 148.435 136.605V135.825ZM141.727 141.021H151.555V141.837H141.727V141.021ZM146.131 139.869H147.127V141.633H146.131V139.869ZM142.795 142.917H150.295V146.457H149.311V143.721H142.795V142.917ZM155.082 135.825H155.85V136.605C155.85 137.013 155.762 137.429 155.586 137.853C155.41 138.269 155.146 138.649 154.794 138.993C154.45 139.337 154.018 139.605 153.498 139.797L153.018 139.053C153.466 138.901 153.842 138.689 154.146 138.417C154.45 138.137 154.682 137.837 154.842 137.517C155.002 137.197 155.082 136.893 155.082 136.605V135.825ZM155.322 135.825H156.066V136.605C156.066 136.861 156.142 137.141 156.294 137.445C156.446 137.741 156.67 138.025 156.966 138.297C157.262 138.561 157.618 138.777 158.034 138.945L157.662 139.725C157.126 139.541 156.686 139.277 156.342 138.933C155.998 138.581 155.742 138.201 155.574 137.793C155.406 137.377 155.322 136.981 155.322 136.605V135.825ZM159.246 135.825H160.014V136.605C160.014 136.997 159.926 137.401 159.75 137.817C159.582 138.225 159.326 138.601 158.982 138.945C158.638 139.281 158.198 139.541 157.662 139.725L157.29 138.945C157.714 138.785 158.07 138.577 158.358 138.321C158.654 138.065 158.874 137.785 159.018 137.481C159.17 137.169 159.246 136.877 159.246 136.605V135.825ZM159.474 135.825H160.242V136.605C160.242 136.925 160.318 137.245 160.47 137.565C160.63 137.885 160.862 138.177 161.166 138.441C161.478 138.705 161.858 138.909 162.306 139.053L161.838 139.797C161.31 139.621 160.87 139.369 160.518 139.041C160.174 138.705 159.914 138.329 159.738 137.913C159.562 137.489 159.474 137.053 159.474 136.605V135.825ZM152.766 141.021H162.594V141.837H152.766V141.021ZM157.17 139.869H158.166V141.633H157.17V139.869ZM153.834 142.917H161.334V146.457H160.35V143.721H153.834V142.917ZM173.635 135.597H174.631V141.117H173.635V135.597ZM174.187 137.937H176.227V138.765H174.187V137.937ZM167.731 141.633H174.631V144.297H168.739V145.929H167.767V143.553H173.647V142.425H167.731V141.633ZM167.767 145.509H175.015V146.313H167.767V145.509ZM169.207 135.993C169.751 135.993 170.231 136.093 170.647 136.293C171.071 136.493 171.403 136.777 171.643 137.145C171.883 137.505 172.003 137.925 172.003 138.405C172.003 138.877 171.883 139.297 171.643 139.665C171.403 140.025 171.071 140.309 170.647 140.517C170.231 140.717 169.751 140.817 169.207 140.817C168.671 140.817 168.191 140.717 167.767 140.517C167.343 140.309 167.007 140.025 166.759 139.665C166.519 139.297 166.399 138.873 166.399 138.393C166.399 137.921 166.519 137.505 166.759 137.145C167.007 136.777 167.343 136.493 167.767 136.293C168.191 136.093 168.671 135.993 169.207 135.993ZM169.207 136.809C168.855 136.809 168.539 136.877 168.259 137.013C167.987 137.149 167.771 137.337 167.611 137.577C167.451 137.809 167.371 138.085 167.371 138.405C167.371 138.717 167.451 138.993 167.611 139.233C167.771 139.473 167.987 139.665 168.259 139.809C168.539 139.945 168.855 140.013 169.207 140.013C169.559 140.013 169.871 139.945 170.143 139.809C170.423 139.665 170.643 139.473 170.803 139.233C170.963 138.993 171.043 138.717 171.043 138.405C171.043 138.085 170.963 137.809 170.803 137.577C170.643 137.337 170.423 137.149 170.143 137.013C169.871 136.877 169.559 136.809 169.207 136.809ZM185.178 135.597H186.162V146.469H185.178V135.597ZM183.042 138.069H185.442V138.897H183.042V138.069ZM177.654 143.109H178.458C179.026 143.109 179.562 143.101 180.066 143.085C180.57 143.061 181.074 143.029 181.578 142.989C182.09 142.941 182.622 142.873 183.174 142.785L183.258 143.613C182.69 143.701 182.146 143.769 181.626 143.817C181.114 143.865 180.602 143.897 180.09 143.913C179.578 143.929 179.034 143.937 178.458 143.937H177.654V143.109ZM177.618 136.581H182.358V140.469H178.638V143.301H177.654V139.653H181.386V137.397H177.618V136.581ZM182.97 141.033H185.37V141.861H182.97V141.033ZM191.262 136.761H192.078V137.397C192.078 137.901 191.95 138.365 191.694 138.789C191.438 139.213 191.078 139.577 190.614 139.881C190.15 140.177 189.606 140.393 188.982 140.529L188.574 139.761C189.11 139.649 189.578 139.477 189.978 139.245C190.378 139.005 190.69 138.729 190.914 138.417C191.146 138.097 191.262 137.757 191.262 137.397V136.761ZM191.454 136.761H192.27V137.397C192.27 137.733 192.382 138.049 192.606 138.345C192.838 138.641 193.154 138.897 193.554 139.113C193.954 139.329 194.41 139.489 194.922 139.593L194.514 140.361C193.906 140.233 193.374 140.029 192.918 139.749C192.462 139.461 192.102 139.117 191.838 138.717C191.582 138.317 191.454 137.877 191.454 137.397V136.761ZM188.934 136.389H194.634V137.205H188.934V136.389ZM191.226 141.657H192.222V146.121H191.226V141.657ZM196.194 135.609H197.202V146.457H196.194V135.609ZM188.37 142.233L188.238 141.393C188.918 141.393 189.658 141.389 190.458 141.381C191.266 141.365 192.09 141.333 192.93 141.285C193.77 141.229 194.582 141.145 195.366 141.033L195.426 141.777C194.618 141.913 193.798 142.017 192.966 142.089C192.134 142.153 191.326 142.193 190.542 142.209C189.766 142.225 189.042 142.233 188.37 142.233ZM193.746 143.073H196.458V143.853H193.746V143.073ZM204.749 139.281H207.761V140.097H204.749V139.281ZM202.121 136.533H202.937V138.477C202.937 139.077 202.861 139.669 202.709 140.253C202.565 140.837 202.357 141.381 202.085 141.885C201.813 142.389 201.493 142.837 201.125 143.229C200.765 143.621 200.369 143.933 199.937 144.165L199.313 143.361C199.713 143.169 200.081 142.901 200.417 142.557C200.761 142.213 201.061 141.821 201.317 141.381C201.573 140.933 201.769 140.465 201.905 139.977C202.049 139.481 202.121 138.981 202.121 138.477V136.533ZM202.325 136.533H203.129V138.477C203.129 138.965 203.197 139.449 203.333 139.929C203.477 140.409 203.677 140.861 203.933 141.285C204.189 141.701 204.485 142.073 204.821 142.401C205.165 142.729 205.533 142.985 205.925 143.169L205.325 143.973C204.893 143.749 204.493 143.449 204.125 143.073C203.757 142.697 203.437 142.265 203.165 141.777C202.901 141.289 202.693 140.765 202.541 140.205C202.397 139.645 202.325 139.069 202.325 138.477V136.533ZM207.269 135.597H208.253V146.469H207.269V135.597ZM220.71 135.597H221.706V146.469H220.71V135.597ZM217.386 139.173H221.034V139.989H217.386V139.173ZM213.354 136.809H214.35V143.541H213.354V136.809ZM213.354 143.001H214.194C214.754 143.001 215.298 142.989 215.826 142.965C216.362 142.941 216.894 142.897 217.422 142.833C217.95 142.769 218.49 142.681 219.042 142.569L219.162 143.397C218.586 143.509 218.026 143.597 217.482 143.661C216.946 143.725 216.406 143.773 215.862 143.805C215.326 143.829 214.77 143.841 214.194 143.841H213.354V143.001ZM223.793 141.897H233.633V142.713H223.793V141.897ZM228.197 142.401H229.181V146.445H228.197V142.401ZM225.053 136.197H232.373V140.433H225.053V136.197ZM231.389 137.001H226.025V139.641H231.389V137.001ZM245.178 135.597H246.174V143.673H245.178V135.597ZM237.57 136.473H243.282V137.289H237.57V136.473ZM237.39 142.041L237.27 141.201C237.87 141.201 238.53 141.197 239.25 141.189C239.978 141.173 240.718 141.145 241.47 141.105C242.222 141.065 242.938 141.009 243.618 140.937L243.666 141.681C242.978 141.793 242.258 141.873 241.506 141.921C240.762 141.969 240.034 142.001 239.322 142.017C238.618 142.033 237.974 142.041 237.39 142.041ZM238.638 137.181H239.61V141.345H238.638V137.181ZM241.242 137.181H242.202V141.345H241.242V137.181ZM243.366 137.661H245.694V138.477H243.366V137.661ZM243.366 139.725H245.694V140.553H243.366V139.725ZM239.226 145.401H246.462V146.217H239.226V145.401ZM239.226 143.013H240.222V145.917H239.226V143.013ZM248.262 137.457H253.65V138.273H248.262V137.457ZM250.962 138.993C251.418 138.993 251.818 139.097 252.162 139.305C252.514 139.513 252.79 139.805 252.99 140.181C253.19 140.549 253.29 140.977 253.29 141.465C253.29 141.953 253.19 142.385 252.99 142.761C252.79 143.129 252.514 143.421 252.162 143.637C251.818 143.845 251.418 143.949 250.962 143.949C250.514 143.949 250.114 143.845 249.762 143.637C249.41 143.421 249.134 143.129 248.934 142.761C248.734 142.385 248.634 141.953 248.634 141.465C248.634 140.977 248.734 140.549 248.934 140.181C249.134 139.813 249.41 139.525 249.762 139.317C250.114 139.101 250.514 138.993 250.962 138.993ZM250.962 139.833C250.69 139.833 250.442 139.905 250.218 140.049C250.002 140.185 249.83 140.377 249.702 140.625C249.582 140.865 249.522 141.145 249.522 141.465C249.522 141.785 249.582 142.069 249.702 142.317C249.83 142.565 250.002 142.757 250.218 142.893C250.442 143.029 250.69 143.097 250.962 143.097C251.242 143.097 251.49 143.029 251.706 142.893C251.922 142.757 252.09 142.565 252.21 142.317C252.338 142.069 252.402 141.785 252.402 141.465C252.402 141.145 252.338 140.865 252.21 140.625C252.09 140.377 251.922 140.185 251.706 140.049C251.49 139.905 251.242 139.833 250.962 139.833ZM256.518 135.597H257.466V146.457H256.518V135.597ZM254.778 140.169H256.83V140.985H254.778V140.169ZM254.19 135.849H255.126V145.929H254.19V135.849ZM250.47 135.921H251.454V137.949H250.47V135.921ZM261.737 141.189H262.721V144.429H261.737V141.189ZM265.745 141.189H266.741V144.429H265.745V141.189ZM259.325 144.237H269.165V145.065H259.325V144.237ZM264.221 136.281C264.989 136.281 265.669 136.397 266.261 136.629C266.853 136.861 267.317 137.185 267.653 137.601C267.997 138.017 268.169 138.509 268.169 139.077C268.169 139.637 267.997 140.129 267.653 140.553C267.317 140.969 266.853 141.293 266.261 141.525C265.669 141.749 264.989 141.861 264.221 141.861C263.461 141.861 262.781 141.749 262.181 141.525C261.589 141.293 261.125 140.969 260.789 140.553C260.453 140.129 260.285 139.637 260.285 139.077C260.285 138.509 260.453 138.017 260.789 137.601C261.125 137.185 261.589 136.861 262.181 136.629C262.781 136.397 263.461 136.281 264.221 136.281ZM264.221 137.073C263.645 137.073 263.133 137.157 262.685 137.325C262.237 137.493 261.885 137.729 261.629 138.033C261.373 138.329 261.245 138.677 261.245 139.077C261.245 139.477 261.373 139.829 261.629 140.133C261.885 140.429 262.237 140.661 262.685 140.829C263.133 140.997 263.645 141.081 264.221 141.081C264.805 141.081 265.321 140.997 265.769 140.829C266.217 140.661 266.569 140.429 266.825 140.133C267.081 139.829 267.209 139.477 267.209 139.077C267.209 138.677 267.081 138.329 266.825 138.033C266.569 137.729 266.217 137.493 265.769 137.325C265.321 137.157 264.805 137.073 264.221 137.073ZM270.856 145.665C270.376 145.665 270.244 145.545 270.244 145.041C270.244 144.537 270.376 144.417 270.856 144.417C271.348 144.417 271.468 144.537 271.468 145.041C271.468 145.545 271.348 145.665 270.856 145.665ZM71.9479 155.245H79.3879V156.061H71.9479V155.245ZM70.6879 157.681H80.5279V158.509H70.6879V157.681ZM75.0679 158.125H76.0639V162.457H75.0679V158.125ZM71.9479 152.149H72.9439V155.641H71.9479V152.149ZM82.951 152.305H89.743V153.109H82.951V152.305ZM81.727 156.961H91.531V157.789H81.727V156.961ZM86.107 157.513H87.103V162.469H86.107V157.513ZM89.263 152.305H90.247V153.253C90.247 153.629 90.239 154.025 90.223 154.441C90.215 154.857 90.183 155.317 90.127 155.821C90.071 156.317 89.975 156.869 89.839 157.477L88.843 157.345C89.059 156.473 89.183 155.709 89.215 155.053C89.247 154.397 89.263 153.797 89.263 153.253V152.305ZM100.842 155.929H102.834V156.757H100.842V155.929ZM100.11 151.597H101.106V162.445H100.11V151.597ZM93.198 152.665H94.182V159.385H93.198V152.665ZM93.198 158.869H94.062C94.854 158.869 95.666 158.833 96.498 158.761C97.338 158.689 98.206 158.561 99.102 158.377L99.222 159.217C98.294 159.401 97.406 159.529 96.558 159.601C95.718 159.665 94.886 159.697 94.062 159.697H93.198V158.869ZM109.459 156.649H110.443V158.677H109.459V156.649ZM107.911 158.365H108.895V159.529H114.055V158.365H115.039V162.313H107.911V158.365ZM108.895 160.309V161.497H114.055V160.309H108.895ZM114.043 151.609H115.039V157.837H114.043V151.609ZM106.351 157.165L106.219 156.349C106.899 156.349 107.639 156.345 108.439 156.337C109.239 156.329 110.055 156.301 110.887 156.253C111.727 156.205 112.539 156.133 113.323 156.037L113.383 156.757C112.575 156.885 111.759 156.981 110.935 157.045C110.111 157.101 109.307 157.137 108.523 157.153C107.739 157.161 107.015 157.165 106.351 157.165ZM109.339 151.861H110.143V152.401C110.143 152.929 110.019 153.413 109.771 153.853C109.523 154.285 109.175 154.661 108.727 154.981C108.279 155.293 107.751 155.525 107.143 155.677L106.699 154.909C107.227 154.781 107.687 154.597 108.079 154.357C108.471 154.109 108.779 153.817 109.003 153.481C109.227 153.145 109.339 152.785 109.339 152.401V151.861ZM109.555 151.861H110.359V152.401C110.359 152.769 110.471 153.113 110.695 153.433C110.919 153.745 111.227 154.017 111.619 154.249C112.011 154.473 112.467 154.641 112.987 154.753L112.555 155.509C111.963 155.373 111.439 155.161 110.983 154.873C110.535 154.577 110.183 154.221 109.927 153.805C109.679 153.381 109.555 152.913 109.555 152.401V151.861ZM125.514 151.597H126.474V162.457H125.514V151.597ZM120.798 156.037H123.534V156.841H120.798V156.037ZM123.258 151.885H124.194V161.905H123.258V151.885ZM120.93 152.977H121.89C121.89 153.921 121.754 154.829 121.482 155.701C121.218 156.565 120.786 157.373 120.186 158.125C119.586 158.869 118.798 159.533 117.822 160.117L117.246 159.397C118.094 158.885 118.79 158.309 119.334 157.669C119.878 157.021 120.278 156.321 120.534 155.569C120.798 154.809 120.93 154.005 120.93 153.157V152.977ZM117.714 152.977H121.302V153.793H117.714V152.977ZM133.34 152.533H134.156V154.477C134.156 155.077 134.08 155.665 133.928 156.241C133.784 156.817 133.576 157.357 133.304 157.861C133.032 158.365 132.712 158.813 132.344 159.205C131.976 159.597 131.576 159.909 131.144 160.141L130.532 159.337C130.932 159.137 131.3 158.869 131.636 158.533C131.98 158.189 132.28 157.797 132.536 157.357C132.792 156.917 132.988 156.453 133.124 155.965C133.268 155.469 133.34 154.973 133.34 154.477V152.533ZM133.52 152.533H134.324V154.477C134.324 154.957 134.392 155.433 134.528 155.905C134.672 156.377 134.872 156.821 135.128 157.237C135.384 157.653 135.676 158.025 136.004 158.353C136.34 158.681 136.7 158.941 137.084 159.133L136.472 159.925C136.048 159.709 135.656 159.413 135.296 159.037C134.944 158.661 134.632 158.233 134.36 157.753C134.096 157.265 133.888 156.745 133.736 156.193C133.592 155.633 133.52 155.061 133.52 154.477V152.533ZM138.032 151.597H139.028V162.457H138.032V151.597ZM138.8 155.989H140.804V156.841H138.8V155.989ZM144.139 155.281H145.135V157.321H144.139V155.281ZM148.123 155.281H149.107V157.321H148.123V155.281ZM141.727 156.961H151.531V157.765H141.727V156.961ZM146.623 158.593C147.783 158.593 148.691 158.757 149.347 159.085C150.003 159.413 150.331 159.885 150.331 160.501C150.331 161.125 150.003 161.601 149.347 161.929C148.691 162.265 147.783 162.433 146.623 162.433C145.463 162.433 144.551 162.265 143.887 161.929C143.231 161.601 142.903 161.125 142.903 160.501C142.903 159.885 143.231 159.413 143.887 159.085C144.551 158.757 145.463 158.593 146.623 158.593ZM146.623 159.361C146.055 159.361 145.567 159.405 145.159 159.493C144.759 159.581 144.451 159.713 144.235 159.889C144.019 160.057 143.911 160.261 143.911 160.501C143.911 160.757 144.019 160.973 144.235 161.149C144.451 161.317 144.759 161.445 145.159 161.533C145.567 161.621 146.055 161.665 146.623 161.665C147.191 161.665 147.675 161.621 148.075 161.533C148.483 161.445 148.795 161.317 149.011 161.149C149.227 160.973 149.335 160.757 149.335 160.501C149.335 160.261 149.227 160.057 149.011 159.889C148.795 159.713 148.483 159.581 148.075 159.493C147.675 159.405 147.191 159.361 146.623 159.361ZM146.623 151.801C147.407 151.801 148.083 151.881 148.651 152.041C149.227 152.201 149.667 152.433 149.971 152.737C150.283 153.033 150.439 153.393 150.439 153.817C150.439 154.233 150.283 154.593 149.971 154.897C149.667 155.201 149.227 155.433 148.651 155.593C148.083 155.745 147.407 155.821 146.623 155.821C145.839 155.821 145.159 155.745 144.583 155.593C144.015 155.433 143.575 155.201 143.263 154.897C142.959 154.593 142.807 154.233 142.807 153.817C142.807 153.393 142.959 153.033 143.263 152.737C143.575 152.433 144.015 152.201 144.583 152.041C145.159 151.881 145.839 151.801 146.623 151.801ZM146.623 152.581C146.055 152.581 145.559 152.629 145.135 152.725C144.719 152.821 144.395 152.961 144.163 153.145C143.939 153.329 143.827 153.553 143.827 153.817C143.827 154.073 143.939 154.297 144.163 154.489C144.395 154.673 144.719 154.813 145.135 154.909C145.559 155.005 146.055 155.053 146.623 155.053C147.207 155.053 147.707 155.005 148.123 154.909C148.539 154.813 148.859 154.673 149.083 154.489C149.307 154.297 149.419 154.073 149.419 153.817C149.419 153.553 149.307 153.329 149.083 153.145C148.859 152.961 148.539 152.821 148.123 152.725C147.707 152.629 147.207 152.581 146.623 152.581ZM160.194 151.561H161.19V157.561H160.194V151.561ZM160.758 154.177H162.798V155.005H160.758V154.177ZM154.29 158.113H161.19V160.537H155.298V161.845H154.326V159.817H160.206V158.857H154.29V158.113ZM154.326 161.569H161.574V162.337H154.326V161.569ZM152.79 152.581H159.198V153.361H152.79V152.581ZM155.994 153.841C156.778 153.841 157.406 154.001 157.878 154.321C158.35 154.633 158.586 155.065 158.586 155.617C158.586 156.161 158.35 156.593 157.878 156.913C157.406 157.233 156.778 157.393 155.994 157.393C155.202 157.393 154.57 157.233 154.098 156.913C153.626 156.593 153.39 156.161 153.39 155.617C153.39 155.065 153.626 154.633 154.098 154.321C154.57 154.001 155.202 153.841 155.994 153.841ZM155.994 154.573C155.498 154.573 155.098 154.669 154.794 154.861C154.498 155.045 154.35 155.297 154.35 155.617C154.35 155.937 154.498 156.193 154.794 156.385C155.098 156.569 155.498 156.661 155.994 156.661C156.498 156.661 156.898 156.569 157.194 156.385C157.49 156.193 157.638 155.937 157.638 155.617C157.638 155.297 157.49 155.045 157.194 154.861C156.898 154.669 156.498 154.573 155.994 154.573ZM155.502 151.489H156.498V153.121H155.502V151.489ZM170.599 151.981H171.475V152.593C171.475 153.009 171.395 153.401 171.235 153.769C171.075 154.129 170.855 154.461 170.575 154.765C170.303 155.069 169.983 155.341 169.615 155.581C169.247 155.821 168.847 156.021 168.415 156.181C167.991 156.341 167.555 156.457 167.107 156.529L166.699 155.725C167.099 155.669 167.487 155.573 167.863 155.437C168.247 155.301 168.603 155.137 168.931 154.945C169.259 154.745 169.547 154.521 169.795 154.273C170.051 154.025 170.247 153.761 170.383 153.481C170.527 153.193 170.599 152.897 170.599 152.593V151.981ZM170.767 151.981H171.631V152.593C171.631 152.897 171.703 153.189 171.847 153.469C171.991 153.749 172.187 154.013 172.435 154.261C172.691 154.509 172.983 154.733 173.311 154.933C173.639 155.133 173.991 155.301 174.367 155.437C174.751 155.573 175.139 155.669 175.531 155.725L175.135 156.529C174.687 156.457 174.251 156.341 173.827 156.181C173.403 156.013 173.003 155.809 172.627 155.569C172.259 155.329 171.935 155.057 171.655 154.753C171.383 154.449 171.167 154.117 171.007 153.757C170.847 153.389 170.767 153.001 170.767 152.593V151.981ZM170.599 158.329H171.583V162.457H170.599V158.329ZM166.207 157.705H176.011V158.533H166.207V157.705ZM182.349 158.281H183.129V158.857C183.129 159.329 183.033 159.793 182.841 160.249C182.649 160.705 182.369 161.113 182.001 161.473C181.641 161.833 181.197 162.109 180.669 162.301L180.177 161.569C180.633 161.401 181.021 161.169 181.341 160.873C181.669 160.577 181.917 160.257 182.085 159.913C182.261 159.561 182.349 159.209 182.349 158.857V158.281ZM182.577 158.281H183.309V158.857C183.309 159.225 183.381 159.589 183.525 159.949C183.669 160.309 183.885 160.637 184.173 160.933C184.469 161.229 184.829 161.465 185.253 161.641L184.845 162.397C184.317 162.189 183.885 161.901 183.549 161.533C183.221 161.165 182.977 160.749 182.817 160.285C182.657 159.813 182.577 159.337 182.577 158.857V158.281ZM186.369 158.281H187.101V158.857C187.101 159.281 187.017 159.725 186.849 160.189C186.689 160.653 186.441 161.085 186.105 161.485C185.777 161.877 185.357 162.181 184.845 162.397L184.413 161.641C184.845 161.441 185.205 161.185 185.493 160.873C185.781 160.553 185.997 160.217 186.141 159.865C186.293 159.505 186.369 159.169 186.369 158.857V158.281ZM186.561 158.281H187.341V158.857C187.341 159.233 187.425 159.597 187.593 159.949C187.769 160.301 188.017 160.621 188.337 160.909C188.665 161.189 189.057 161.409 189.513 161.569L189.021 162.301C188.493 162.109 188.045 161.841 187.677 161.497C187.309 161.145 187.029 160.745 186.837 160.297C186.653 159.841 186.561 159.361 186.561 158.857V158.281ZM187.545 151.609H188.541V157.801H187.545V151.609ZM182.721 152.233C183.273 152.233 183.761 152.341 184.185 152.557C184.609 152.773 184.941 153.073 185.181 153.457C185.429 153.833 185.553 154.273 185.553 154.777C185.553 155.273 185.429 155.709 185.181 156.085C184.941 156.461 184.609 156.757 184.185 156.973C183.761 157.189 183.273 157.297 182.721 157.297C182.177 157.297 181.689 157.189 181.257 156.973C180.833 156.757 180.497 156.461 180.249 156.085C180.009 155.709 179.889 155.273 179.889 154.777C179.889 154.273 180.009 153.833 180.249 153.457C180.497 153.073 180.833 152.773 181.257 152.557C181.689 152.341 182.177 152.233 182.721 152.233ZM182.721 153.073C182.369 153.073 182.053 153.145 181.773 153.289C181.493 153.433 181.269 153.633 181.101 153.889C180.941 154.137 180.861 154.433 180.861 154.777C180.861 155.113 180.941 155.409 181.101 155.665C181.269 155.913 181.493 156.109 181.773 156.253C182.053 156.397 182.369 156.469 182.721 156.469C183.081 156.469 183.401 156.397 183.681 156.253C183.961 156.109 184.181 155.913 184.341 155.665C184.501 155.409 184.581 155.113 184.581 154.777C184.581 154.433 184.501 154.137 184.341 153.889C184.181 153.633 183.961 153.433 183.681 153.289C183.401 153.145 183.081 153.073 182.721 153.073ZM192.008 154.861H199.388V155.665H192.008V154.861ZM190.676 157.117H200.516V157.933H190.676V157.117ZM192.008 151.993H192.992V155.269H192.008V151.993ZM191.936 161.377H199.448V162.193H191.936V161.377ZM191.936 159.025H192.932V161.593H191.936V159.025ZM207.021 152.713H207.849V153.589C207.849 154.253 207.721 154.869 207.465 155.437C207.209 156.005 206.849 156.501 206.385 156.925C205.929 157.349 205.397 157.669 204.789 157.885L204.273 157.117C204.817 156.917 205.293 156.641 205.701 156.289C206.117 155.929 206.441 155.517 206.673 155.053C206.905 154.589 207.021 154.101 207.021 153.589V152.713ZM207.213 152.713H208.029V153.589C208.029 153.957 208.093 154.309 208.221 154.645C208.357 154.981 208.549 155.297 208.797 155.593C209.045 155.881 209.333 156.141 209.661 156.373C209.997 156.597 210.365 156.773 210.765 156.901L210.261 157.681C209.661 157.473 209.133 157.169 208.677 156.769C208.221 156.369 207.861 155.897 207.597 155.353C207.341 154.809 207.213 154.221 207.213 153.589V152.713ZM212.025 151.597H213.021V158.161H212.025V151.597ZM205.773 158.737H213.021V162.457H212.025V159.553H205.773V158.737ZM204.537 152.353H210.477V153.169H204.537V152.353ZM215.756 152.437H220.556V153.265H215.756V152.437ZM217.388 154.861H218.372V157.573H217.388V154.861ZM220.16 152.437H221.132V153.013C221.132 153.373 221.12 153.821 221.096 154.357C221.08 154.893 221 155.517 220.856 156.229L219.872 156.133C220.016 155.413 220.1 154.801 220.124 154.297C220.148 153.793 220.16 153.365 220.16 153.013V152.437ZM222.608 151.597H223.616V159.769H222.608V151.597ZM223.16 155.125H225.164V155.965H223.16V155.125ZM216.752 161.401H223.964V162.217H216.752V161.401ZM216.752 159.025H217.748V161.641H216.752V159.025ZM215.204 158.041L215.096 157.225C215.736 157.225 216.444 157.217 217.22 157.201C217.996 157.185 218.784 157.153 219.584 157.105C220.384 157.049 221.152 156.973 221.888 156.877L221.948 157.609C221.204 157.737 220.432 157.833 219.632 157.897C218.832 157.961 218.052 158.001 217.292 158.017C216.54 158.033 215.844 158.041 215.204 158.041ZM228.967 152.701H229.783V153.589C229.783 154.245 229.655 154.861 229.399 155.437C229.151 156.013 228.799 156.517 228.343 156.949C227.887 157.373 227.359 157.697 226.759 157.921L226.243 157.129C226.643 156.985 227.007 156.793 227.335 156.553C227.671 156.313 227.963 156.037 228.211 155.725C228.459 155.405 228.647 155.065 228.775 154.705C228.903 154.337 228.967 153.965 228.967 153.589V152.701ZM229.159 152.701H229.975V153.577C229.975 154.041 230.083 154.493 230.299 154.933C230.515 155.365 230.823 155.753 231.223 156.097C231.623 156.433 232.083 156.697 232.603 156.889L232.099 157.669C231.507 157.453 230.991 157.141 230.551 156.733C230.111 156.325 229.767 155.849 229.519 155.305C229.279 154.761 229.159 154.185 229.159 153.577V152.701ZM232.015 154.429H234.427V155.257H232.015V154.429ZM226.555 152.341H232.351V153.157H226.555V152.341ZM227.887 158.677H235.135V162.457H234.139V159.493H227.887V158.677ZM234.139 151.597H235.135V158.089H234.139V151.597ZM245.142 151.609H246.138V159.529H245.142V151.609ZM239.166 161.401H246.474V162.217H239.166V161.401ZM239.166 158.725H240.162V161.677H239.166V158.725ZM240.318 152.365C240.862 152.365 241.346 152.477 241.77 152.701C242.194 152.925 242.53 153.241 242.778 153.649C243.026 154.049 243.15 154.509 243.15 155.029C243.15 155.549 243.026 156.013 242.778 156.421C242.53 156.821 242.194 157.137 241.77 157.369C241.346 157.593 240.862 157.705 240.318 157.705C239.782 157.705 239.298 157.593 238.866 157.369C238.442 157.137 238.106 156.821 237.858 156.421C237.61 156.013 237.486 155.549 237.486 155.029C237.486 154.509 237.61 154.049 237.858 153.649C238.106 153.241 238.442 152.925 238.866 152.701C239.298 152.477 239.782 152.365 240.318 152.365ZM240.318 153.229C239.966 153.229 239.65 153.305 239.37 153.457C239.09 153.609 238.866 153.821 238.698 154.093C238.538 154.365 238.458 154.677 238.458 155.029C238.458 155.389 238.538 155.705 238.698 155.977C238.866 156.241 239.09 156.449 239.37 156.601C239.65 156.753 239.966 156.829 240.318 156.829C240.67 156.829 240.986 156.753 241.266 156.601C241.554 156.449 241.778 156.241 241.938 155.977C242.098 155.705 242.178 155.389 242.178 155.029C242.178 154.677 242.098 154.365 241.938 154.093C241.778 153.821 241.554 153.609 241.266 153.457C240.986 153.305 240.67 153.229 240.318 153.229ZM256.112 155.281H259.124V156.097H256.112V155.281ZM253.484 152.533H254.3V154.477C254.3 155.077 254.224 155.669 254.072 156.253C253.928 156.837 253.72 157.381 253.448 157.885C253.176 158.389 252.856 158.837 252.488 159.229C252.128 159.621 251.732 159.933 251.3 160.165L250.676 159.361C251.076 159.169 251.444 158.901 251.78 158.557C252.124 158.213 252.424 157.821 252.68 157.381C252.936 156.933 253.132 156.465 253.268 155.977C253.412 155.481 253.484 154.981 253.484 154.477V152.533ZM253.688 152.533H254.492V154.477C254.492 154.965 254.56 155.449 254.696 155.929C254.84 156.409 255.04 156.861 255.296 157.285C255.552 157.701 255.848 158.073 256.184 158.401C256.528 158.729 256.896 158.985 257.288 159.169L256.688 159.973C256.256 159.749 255.856 159.449 255.488 159.073C255.12 158.697 254.8 158.265 254.528 157.777C254.264 157.289 254.056 156.765 253.904 156.205C253.76 155.645 253.688 155.069 253.688 154.477V152.533ZM258.632 151.597H259.616V162.469H258.632V151.597ZM269.611 151.597H270.607V162.469H269.611V151.597ZM262.339 152.521H263.335V155.377H266.467V152.521H267.451V159.853H262.339V152.521ZM263.335 156.169V159.025H266.467V156.169H263.335ZM277.11 152.341H277.986V153.181C277.986 153.653 277.902 154.101 277.734 154.525C277.574 154.949 277.35 155.345 277.062 155.713C276.782 156.073 276.454 156.397 276.078 156.685C275.71 156.973 275.314 157.217 274.89 157.417C274.474 157.617 274.05 157.769 273.618 157.873L273.174 157.045C273.55 156.965 273.926 156.841 274.302 156.673C274.686 156.505 275.046 156.301 275.382 156.061C275.718 155.813 276.014 155.537 276.27 155.233C276.534 154.929 276.738 154.605 276.882 154.261C277.034 153.909 277.11 153.549 277.11 153.181V152.341ZM277.302 152.341H278.154V153.181C278.154 153.549 278.23 153.909 278.382 154.261C278.534 154.605 278.738 154.929 278.994 155.233C279.258 155.537 279.558 155.813 279.894 156.061C280.23 156.301 280.586 156.509 280.962 156.685C281.346 156.853 281.73 156.973 282.114 157.045L281.658 157.873C281.226 157.769 280.802 157.617 280.386 157.417C279.97 157.217 279.574 156.973 279.198 156.685C278.83 156.397 278.502 156.073 278.214 155.713C277.926 155.345 277.702 154.949 277.542 154.525C277.382 154.101 277.302 153.653 277.302 153.181V152.341ZM272.766 160.165H282.606V160.993H272.766V160.165ZM288.125 154.225H290.249V155.041H288.125V154.225ZM288.125 157.525H290.249V158.353H288.125V157.525ZM292.073 151.597H293.033V162.457H292.073V151.597ZM289.937 151.825H290.885V161.905H289.937V151.825ZM286.241 152.509C286.713 152.509 287.121 152.661 287.465 152.965C287.817 153.269 288.089 153.705 288.281 154.273C288.473 154.841 288.569 155.509 288.569 156.277C288.569 157.053 288.473 157.725 288.281 158.293C288.089 158.861 287.817 159.301 287.465 159.613C287.121 159.917 286.713 160.069 286.241 160.069C285.785 160.069 285.381 159.917 285.029 159.613C284.685 159.301 284.417 158.861 284.225 158.293C284.033 157.725 283.937 157.053 283.937 156.277C283.937 155.509 284.033 154.841 284.225 154.273C284.417 153.705 284.685 153.269 285.029 152.965C285.381 152.661 285.785 152.509 286.241 152.509ZM286.241 153.433C285.961 153.433 285.713 153.549 285.497 153.781C285.289 154.013 285.129 154.341 285.017 154.765C284.905 155.189 284.849 155.693 284.849 156.277C284.849 156.861 284.905 157.369 285.017 157.801C285.129 158.225 285.289 158.553 285.497 158.785C285.713 159.017 285.961 159.133 286.241 159.133C286.537 159.133 286.789 159.017 286.997 158.785C287.205 158.553 287.365 158.225 287.477 157.801C287.597 157.369 287.657 156.861 287.657 156.277C287.657 155.693 287.597 155.189 287.477 154.765C287.365 154.341 287.205 154.013 286.997 153.781C286.789 153.549 286.537 153.433 286.241 153.433ZM297.256 157.189H298.24V160.429H297.256V157.189ZM301.264 157.189H302.26V160.429H301.264V157.189ZM294.844 160.237H304.684V161.065H294.844V160.237ZM299.74 152.281C300.508 152.281 301.188 152.397 301.78 152.629C302.372 152.861 302.836 153.185 303.172 153.601C303.516 154.017 303.688 154.509 303.688 155.077C303.688 155.637 303.516 156.129 303.172 156.553C302.836 156.969 302.372 157.293 301.78 157.525C301.188 157.749 300.508 157.861 299.74 157.861C298.98 157.861 298.3 157.749 297.7 157.525C297.108 157.293 296.644 156.969 296.308 156.553C295.972 156.129 295.804 155.637 295.804 155.077C295.804 154.509 295.972 154.017 296.308 153.601C296.644 153.185 297.108 152.861 297.7 152.629C298.3 152.397 298.98 152.281 299.74 152.281ZM299.74 153.073C299.164 153.073 298.652 153.157 298.204 153.325C297.756 153.493 297.404 153.729 297.148 154.033C296.892 154.329 296.764 154.677 296.764 155.077C296.764 155.477 296.892 155.829 297.148 156.133C297.404 156.429 297.756 156.661 298.204 156.829C298.652 156.997 299.164 157.081 299.74 157.081C300.324 157.081 300.84 156.997 301.288 156.829C301.736 156.661 302.088 156.429 302.344 156.133C302.6 155.829 302.728 155.477 302.728 155.077C302.728 154.677 302.6 154.329 302.344 154.033C302.088 153.729 301.736 153.493 301.288 153.325C300.84 153.157 300.324 153.073 299.74 153.073ZM306.567 161.665C306.075 161.665 305.955 161.545 305.955 161.041C305.955 160.537 306.075 160.417 306.567 160.417C307.047 160.417 307.179 160.537 307.179 161.041C307.179 161.545 307.047 161.665 306.567 161.665ZM305.967 153.457H307.155L306.987 159.325H306.147L305.967 153.457Z" fill="#364153"/>
<line x1="70.1377" y1="170.258" x2="305.922" y2="170.258" stroke="#E1E1E1"/>
<path d="M72.7095 124.714C72.0172 123.979 71.6455 123.154 71.6455 121.817C71.6455 119.464 73.297 117.356 75.6986 116.313L76.2989 117.24C74.0572 118.452 73.619 120.026 73.4442 121.018C73.8052 120.831 74.2777 120.766 74.7408 120.809C75.9534 120.921 76.9092 121.917 76.9092 123.154C76.9092 123.778 76.6613 124.376 76.2201 124.817C75.7789 125.259 75.1806 125.507 74.5566 125.507C74.2116 125.504 73.8706 125.432 73.5534 125.296C73.2363 125.16 72.9495 124.962 72.7095 124.714ZM79.4311 124.714C78.7388 123.979 78.3671 123.154 78.3671 121.817C78.3671 119.464 80.0186 117.356 82.4202 116.313L83.0204 117.24C80.7788 118.452 80.3405 120.026 80.1658 121.018C80.5267 120.831 80.9993 120.766 81.4624 120.809C82.675 120.921 83.6308 121.917 83.6308 123.154C83.6308 123.778 83.3829 124.376 82.9417 124.817C82.5005 125.259 81.9021 125.507 81.2782 125.507C80.9332 125.504 80.5921 125.432 80.275 125.296C79.9579 125.16 79.671 124.962 79.4311 124.714Z" fill="#C4B4FF"/>
<path d="M305.206 50.5923H306.368V57.1583H305.206V50.5923ZM298.122 57.7743H306.368V60.8123H299.298V62.7163H298.15V59.9583H305.22V58.6983H298.122V57.7743ZM298.15 62.1843H306.83V63.1223H298.15V62.1843ZM296.54 51.4603H303.344V52.3703H296.54V51.4603ZM296.33 56.7243L296.19 55.7723C296.946 55.763 297.768 55.749 298.654 55.7303C299.541 55.7117 300.437 55.679 301.342 55.6323C302.257 55.5763 303.125 55.5017 303.946 55.4083L304.002 56.2483C303.172 56.379 302.304 56.477 301.398 56.5423C300.493 56.6077 299.606 56.6543 298.738 56.6823C297.88 56.7103 297.077 56.7243 296.33 56.7243ZM297.786 51.8803H298.906V56.1783H297.786V51.8803ZM300.964 51.8803H302.098V56.1783H300.964V51.8803ZM318.127 50.5923H319.275V63.2763H318.127V50.5923ZM315.509 55.3663H318.309V56.3183H315.509V55.3663ZM309.447 59.2723H310.399C311.202 59.2723 311.916 59.263 312.541 59.2443C313.167 59.2257 313.759 59.1883 314.319 59.1323C314.889 59.0763 315.467 58.997 316.055 58.8943L316.181 59.8463C315.575 59.949 314.982 60.0283 314.403 60.0843C313.825 60.1403 313.213 60.1823 312.569 60.2103C311.935 60.229 311.211 60.2383 310.399 60.2383H309.447V59.2723ZM309.447 51.7543H315.299V52.7063H310.595V59.5943H309.447V51.7543ZM310.301 55.3103H314.739V56.2483H310.301V55.3103Z" fill="black"/>
<path d="M287.362 59.8204H283.568M291.155 53.1822H289.732M291.155 59.8204H289.258M287.836 53.1822H283.568M284.991 56.5013H283.568M291.155 56.5013H286.887" stroke="black" stroke-linecap="round"/>
<path d="M289.258 59.8204C289.258 59.2966 288.833 58.872 288.31 58.872C287.786 58.872 287.361 59.2966 287.361 59.8204C287.361 60.3441 287.786 60.7687 288.31 60.7687C288.833 60.7687 289.258 60.3441 289.258 59.8204Z" stroke="black" stroke-linecap="round"/>
<path d="M286.888 56.5013C286.888 55.9775 286.463 55.553 285.94 55.553C285.416 55.553 284.991 55.9775 284.991 56.5013C284.991 57.025 285.416 57.4496 285.94 57.4496C286.463 57.4496 286.888 57.025 286.888 56.5013Z" stroke="black" stroke-linecap="round"/>
<path d="M289.733 53.1821C289.733 52.6584 289.308 52.2338 288.784 52.2338C288.261 52.2338 287.836 52.6584 287.836 53.1821C287.836 53.7059 288.261 54.1304 288.784 54.1304C289.308 54.1304 289.733 53.7059 289.733 53.1821Z" stroke="black" stroke-linecap="round"/>
<path d="M293.369 185.436L293.693 180.936H298.121V181.692H294.461L294.245 184.536C294.653 184.056 295.253 183.792 296.033 183.792C297.533 183.792 298.565 184.836 298.565 186.444C298.565 188.016 297.461 189.132 295.829 189.132C294.449 189.132 293.573 188.4 293.225 187.116H294.065C294.281 187.908 294.785 188.352 295.829 188.352C297.161 188.352 297.749 187.728 297.749 186.468C297.749 185.22 297.197 184.548 295.841 184.548C294.965 184.548 294.461 184.788 294.173 185.436H293.369ZM299.67 189.132C299.262 189.132 299.178 189.036 299.178 188.592C299.178 188.172 299.262 188.064 299.67 188.064C300.066 188.064 300.162 188.172 300.162 188.592C300.162 189.036 300.066 189.132 299.67 189.132ZM303.428 189.132C301.664 189.132 300.524 187.464 300.524 184.956C300.524 182.472 301.664 180.804 303.428 180.804C305.192 180.804 306.332 182.472 306.332 184.956C306.332 187.464 305.192 189.132 303.428 189.132ZM303.428 188.34C304.904 188.34 305.468 187.32 305.468 184.956C305.468 182.616 304.904 181.596 303.428 181.596C301.952 181.596 301.388 182.616 301.388 184.956C301.388 187.32 301.952 188.34 303.428 188.34Z" fill="#3F3F47"/>
<path d="M281.226 179.47C281.338 179.243 281.661 179.243 281.773 179.47L283.222 182.405C283.266 182.495 283.352 182.557 283.451 182.572L286.69 183.042C286.94 183.079 287.04 183.386 286.859 183.563L284.516 185.847C284.444 185.917 284.411 186.018 284.428 186.117L284.981 189.343C285.024 189.592 284.762 189.782 284.539 189.664L281.642 188.141C281.553 188.095 281.447 188.095 281.358 188.141L278.461 189.664C278.237 189.782 277.976 189.592 278.018 189.343L278.572 186.117C278.589 186.018 278.556 185.917 278.484 185.847L276.14 183.563C275.959 183.386 276.059 183.079 276.309 183.042L279.548 182.572C279.647 182.557 279.733 182.495 279.778 182.405L281.226 179.47Z" fill="#FFDD33" stroke="#FFDD33" stroke-linejoin="round"/>
<defs>
<filter id="filter0_d_778_5961" x="20" y="23" width="336.307" height="214.922" filterUnits="userSpaceOnUse" color-interpolation-filters="sRGB">
<feFlood flood-opacity="0" result="BackgroundImageFix"/>
<feColorMatrix in="SourceAlpha" type="matrix" values="0 0 0 0 0 0 0 0 0 0 0 0 0 0 0 0 0 0 127 0" result="hardAlpha"/>
<feOffset dy="5"/>
<feGaussianBlur stdDeviation="7.5"/>
<feComposite in2="hardAlpha" operator="out"/>
<feColorMatrix type="matrix" values="0 0 0 0 0 0 0 0 0 0 0 0 0 0 0 0 0 0 0.25 0"/>
<feBlend mode="normal" in2="BackgroundImageFix" result="effect1_dropShadow_778_5961"/>
<feBlend mode="normal" in="SourceGraphic" in2="effect1_dropShadow_778_5961" result="shape"/>
</filter>
<filter id="filter1_d_778_5961" x="40.0234" y="57.7116" width="296.014" height="159.73" filterUnits="userSpaceOnUse" color-interpolation-filters="sRGB">
<feFlood flood-opacity="0" result="BackgroundImageFix"/>
<feColorMatrix in="SourceAlpha" type="matrix" values="0 0 0 0 0 0 0 0 0 0 0 0 0 0 0 0 0 0 127 0" result="hardAlpha"/>
<feOffset/>
<feGaussianBlur stdDeviation="7.5"/>
<feComposite in2="hardAlpha" operator="out"/>
<feColorMatrix type="matrix" values="0 0 0 0 0 0 0 0 0 0 0 0 0 0 0 0 0 0 0.15 0"/>
<feBlend mode="normal" in2="BackgroundImageFix" result="effect1_dropShadow_778_5961"/>
<feBlend mode="normal" in="SourceGraphic" in2="effect1_dropShadow_778_5961" result="shape"/>
</filter>
<linearGradient id="paint0_linear_778_5961" x1="59.5555" y1="84.4539" x2="104.997" y2="186.677" gradientUnits="userSpaceOnUse">
<stop stop-color="#BA0087"/>
<stop offset="0.62" stop-color="#33059C"/>
</linearGradient>
<linearGradient id="paint1_linear_778_5961" x1="59.5555" y1="84.4539" x2="104.997" y2="186.677" gradientUnits="userSpaceOnUse">
<stop stop-color="#BA0087"/>
<stop offset="0.62" stop-color="#33059C"/>
</linearGradient>
</defs>
</svg>
