<svg width="342" height="126" viewBox="0 0 342 126" fill="none" xmlns="http://www.w3.org/2000/svg">
<g filter="url(#filter0_d_412_5720)">
<rect x="13" y="18" width="306" height="89.0526" rx="20" fill="white"/>
</g>
<rect x="41.9209" y="39.3433" width="117.665" height="47.0672" rx="11.5" fill="white" stroke="#FF1595"/>
<mask id="path-3-inside-1_412_5720" fill="white">
<path d="M63.2906 63.1329H65.4186V67.2769H63.2906V63.1329ZM68.6666 63.1329H70.7946V67.2769H68.6666V63.1329ZM60.3466 66.9729H73.7706V68.7009H60.3466V66.9729ZM67.0346 56.3329C68.1013 56.3329 69.0506 56.4982 69.8826 56.8289C70.7253 57.1595 71.3813 57.6235 71.8506 58.2209C72.3306 58.8075 72.5706 59.5062 72.5706 60.3169C72.5706 61.1169 72.3306 61.8155 71.8506 62.4129C71.3813 62.9995 70.7253 63.4582 69.8826 63.7889C69.0506 64.1195 68.1013 64.2849 67.0346 64.2849C65.9786 64.2849 65.0293 64.1195 64.1866 63.7889C63.3546 63.4582 62.6986 62.9995 62.2186 62.4129C61.7386 61.8155 61.4986 61.1169 61.4986 60.3169C61.4986 59.5062 61.7386 58.8075 62.2186 58.2209C62.6986 57.6235 63.3546 57.1595 64.1866 56.8289C65.0293 56.4982 65.9786 56.3329 67.0346 56.3329ZM67.0346 57.9809C66.3519 57.9809 65.7493 58.0769 65.2266 58.2689C64.7146 58.4502 64.3146 58.7115 64.0266 59.0529C63.7386 59.3942 63.5946 59.8155 63.5946 60.3169C63.5946 60.7969 63.7386 61.2129 64.0266 61.5649C64.3146 61.9062 64.7146 62.1729 65.2266 62.3649C65.7493 62.5462 66.3519 62.6369 67.0346 62.6369C67.7279 62.6369 68.3306 62.5462 68.8426 62.3649C69.3653 62.1729 69.7653 61.9062 70.0426 61.5649C70.3306 61.2129 70.4746 60.7969 70.4746 60.3169C70.4746 59.8155 70.3306 59.3942 70.0426 59.0529C69.7653 58.7115 69.3653 58.4502 68.8426 58.2689C68.3306 58.0769 67.7279 57.9809 67.0346 57.9809ZM76.7133 56.2689H86.0893V57.9489H76.7133V56.2689ZM75.0653 61.5969H88.4893V63.2769H75.0653V61.5969ZM84.8093 56.2689H86.9053V57.4529C86.9053 58.0822 86.8893 58.7595 86.8573 59.4849C86.8253 60.2102 86.6973 61.0529 86.4733 62.0129L84.3453 61.9969C84.58 61.0262 84.7133 60.1835 84.7453 59.4689C84.788 58.7542 84.8093 58.0822 84.8093 57.4529V56.2689ZM76.6333 64.8289H86.8413V70.2689H76.6333V64.8289ZM84.7613 66.4929H78.7293V68.5889H84.7613V66.4929ZM100.472 55.5969H102.504V70.4129H100.472V55.5969ZM95.5921 60.6689H98.0561V62.3969H95.5921V60.6689ZM97.4801 55.8369H99.4641V69.7409H97.4801V55.8369ZM92.4081 58.0129H94.0081V59.5329C94.0081 60.3649 93.9441 61.1862 93.8161 61.9969C93.6988 62.8075 93.5121 63.5755 93.2561 64.3009C93.0001 65.0155 92.6641 65.6609 92.2481 66.2369C91.8321 66.8129 91.3308 67.2875 90.7441 67.6609L89.4801 66.0929C90.2054 65.6342 90.7814 65.0582 91.2081 64.3649C91.6348 63.6609 91.9388 62.8929 92.1201 62.0609C92.3121 61.2182 92.4081 60.3755 92.4081 59.5329V58.0129ZM92.8881 58.0129H94.4721V59.5329C94.4721 60.3542 94.5628 61.1649 94.7441 61.9649C94.9254 62.7649 95.2241 63.4955 95.6401 64.1569C96.0561 64.8075 96.6214 65.3409 97.3361 65.7569L96.1041 67.2929C95.3148 66.8235 94.6854 66.1889 94.2161 65.3889C93.7468 64.5889 93.4054 63.6875 93.1921 62.6849C92.9894 61.6715 92.8881 60.6209 92.8881 59.5329V58.0129ZM90.0241 57.0849H96.6321V58.7969H90.0241V57.0849ZM108.167 69.0049H106.359V60.1889L104.055 62.1889V60.2689L106.359 58.2529H108.167V69.0049ZM123.21 55.6129H125.338V66.4129H123.21V55.6129ZM115.466 68.4609H125.722V70.1729H115.466V68.4609ZM115.466 65.3729H117.594V69.3409H115.466V65.3729ZM116.506 56.4289H118.266V57.8689C118.266 58.8289 118.111 59.7462 117.802 60.6209C117.503 61.4955 117.045 62.2635 116.426 62.9249C115.807 63.5862 115.018 64.0875 114.058 64.4289L112.97 62.7329C113.802 62.4449 114.474 62.0449 114.986 61.5329C115.509 61.0209 115.893 60.4449 116.138 59.8049C116.383 59.1649 116.506 58.5195 116.506 57.8689V56.4289ZM116.938 56.4289H118.666V57.8689C118.666 58.3489 118.73 58.8235 118.858 59.2929C118.997 59.7515 119.205 60.1889 119.482 60.6049C119.759 61.0102 120.117 61.3782 120.554 61.7089C120.991 62.0395 121.509 62.3009 122.106 62.4929L121.034 64.1729C120.095 63.8635 119.322 63.3942 118.714 62.7649C118.106 62.1355 117.658 61.3995 117.37 60.5569C117.082 59.7142 116.938 58.8182 116.938 57.8689V56.4289ZM131.065 58.2049H132.793V58.7329C132.793 59.5969 132.644 60.4129 132.345 61.1809C132.046 61.9489 131.588 62.6155 130.969 63.1809C130.361 63.7462 129.588 64.1675 128.649 64.4449L127.641 62.7969C128.441 62.5622 129.092 62.2369 129.593 61.8209C130.105 61.3942 130.478 60.9142 130.713 60.3809C130.948 59.8369 131.065 59.2875 131.065 58.7329V58.2049ZM131.465 58.2049H133.193V58.7329C133.193 59.1169 133.257 59.4955 133.385 59.8689C133.524 60.2422 133.732 60.5942 134.009 60.9249C134.297 61.2555 134.66 61.5489 135.097 61.8049C135.534 62.0609 136.046 62.2689 136.633 62.4289L135.673 64.0929C134.734 63.8369 133.95 63.4475 133.321 62.9249C132.702 62.3915 132.238 61.7622 131.929 61.0369C131.62 60.3115 131.465 59.5435 131.465 58.7329V58.2049ZM128.153 57.1329H136.121V58.8129H128.153V57.1329ZM131.065 55.5489H133.193V57.8049H131.065V55.5489ZM135.705 59.5489H138.521V61.2609H135.705V59.5489ZM138.009 55.6129H140.153V64.5569H138.009V55.6129ZM135.129 64.7969C136.697 64.7969 137.934 65.0422 138.841 65.5329C139.748 66.0235 140.201 66.7169 140.201 67.6129C140.201 68.4982 139.748 69.1862 138.841 69.6769C137.934 70.1782 136.697 70.4289 135.129 70.4289C133.561 70.4289 132.324 70.1782 131.417 69.6769C130.51 69.1862 130.057 68.4982 130.057 67.6129C130.057 66.7169 130.51 66.0235 131.417 65.5329C132.324 65.0422 133.561 64.7969 135.129 64.7969ZM135.129 66.4289C134.489 66.4289 133.945 66.4715 133.497 66.5569C133.06 66.6422 132.729 66.7755 132.505 66.9569C132.281 67.1275 132.169 67.3462 132.169 67.6129C132.169 67.8689 132.281 68.0875 132.505 68.2689C132.729 68.4502 133.06 68.5835 133.497 68.6689C133.945 68.7542 134.489 68.7969 135.129 68.7969C135.78 68.7969 136.324 68.7542 136.761 68.6689C137.198 68.5835 137.524 68.4502 137.737 68.2689C137.961 68.0875 138.073 67.8689 138.073 67.6129C138.073 67.3462 137.961 67.1275 137.737 66.9569C137.524 66.7755 137.198 66.6422 136.761 66.5569C136.324 66.4715 135.78 66.4289 135.129 66.4289Z"/>
</mask>
<path d="M63.2906 63.1329H65.4186V67.2769H63.2906V63.1329ZM68.6666 63.1329H70.7946V67.2769H68.6666V63.1329ZM60.3466 66.9729H73.7706V68.7009H60.3466V66.9729ZM67.0346 56.3329C68.1013 56.3329 69.0506 56.4982 69.8826 56.8289C70.7253 57.1595 71.3813 57.6235 71.8506 58.2209C72.3306 58.8075 72.5706 59.5062 72.5706 60.3169C72.5706 61.1169 72.3306 61.8155 71.8506 62.4129C71.3813 62.9995 70.7253 63.4582 69.8826 63.7889C69.0506 64.1195 68.1013 64.2849 67.0346 64.2849C65.9786 64.2849 65.0293 64.1195 64.1866 63.7889C63.3546 63.4582 62.6986 62.9995 62.2186 62.4129C61.7386 61.8155 61.4986 61.1169 61.4986 60.3169C61.4986 59.5062 61.7386 58.8075 62.2186 58.2209C62.6986 57.6235 63.3546 57.1595 64.1866 56.8289C65.0293 56.4982 65.9786 56.3329 67.0346 56.3329ZM67.0346 57.9809C66.3519 57.9809 65.7493 58.0769 65.2266 58.2689C64.7146 58.4502 64.3146 58.7115 64.0266 59.0529C63.7386 59.3942 63.5946 59.8155 63.5946 60.3169C63.5946 60.7969 63.7386 61.2129 64.0266 61.5649C64.3146 61.9062 64.7146 62.1729 65.2266 62.3649C65.7493 62.5462 66.3519 62.6369 67.0346 62.6369C67.7279 62.6369 68.3306 62.5462 68.8426 62.3649C69.3653 62.1729 69.7653 61.9062 70.0426 61.5649C70.3306 61.2129 70.4746 60.7969 70.4746 60.3169C70.4746 59.8155 70.3306 59.3942 70.0426 59.0529C69.7653 58.7115 69.3653 58.4502 68.8426 58.2689C68.3306 58.0769 67.7279 57.9809 67.0346 57.9809ZM76.7133 56.2689H86.0893V57.9489H76.7133V56.2689ZM75.0653 61.5969H88.4893V63.2769H75.0653V61.5969ZM84.8093 56.2689H86.9053V57.4529C86.9053 58.0822 86.8893 58.7595 86.8573 59.4849C86.8253 60.2102 86.6973 61.0529 86.4733 62.0129L84.3453 61.9969C84.58 61.0262 84.7133 60.1835 84.7453 59.4689C84.788 58.7542 84.8093 58.0822 84.8093 57.4529V56.2689ZM76.6333 64.8289H86.8413V70.2689H76.6333V64.8289ZM84.7613 66.4929H78.7293V68.5889H84.7613V66.4929ZM100.472 55.5969H102.504V70.4129H100.472V55.5969ZM95.5921 60.6689H98.0561V62.3969H95.5921V60.6689ZM97.4801 55.8369H99.4641V69.7409H97.4801V55.8369ZM92.4081 58.0129H94.0081V59.5329C94.0081 60.3649 93.9441 61.1862 93.8161 61.9969C93.6988 62.8075 93.5121 63.5755 93.2561 64.3009C93.0001 65.0155 92.6641 65.6609 92.2481 66.2369C91.8321 66.8129 91.3308 67.2875 90.7441 67.6609L89.4801 66.0929C90.2054 65.6342 90.7814 65.0582 91.2081 64.3649C91.6348 63.6609 91.9388 62.8929 92.1201 62.0609C92.3121 61.2182 92.4081 60.3755 92.4081 59.5329V58.0129ZM92.8881 58.0129H94.4721V59.5329C94.4721 60.3542 94.5628 61.1649 94.7441 61.9649C94.9254 62.7649 95.2241 63.4955 95.6401 64.1569C96.0561 64.8075 96.6214 65.3409 97.3361 65.7569L96.1041 67.2929C95.3148 66.8235 94.6854 66.1889 94.2161 65.3889C93.7468 64.5889 93.4054 63.6875 93.1921 62.6849C92.9894 61.6715 92.8881 60.6209 92.8881 59.5329V58.0129ZM90.0241 57.0849H96.6321V58.7969H90.0241V57.0849ZM108.167 69.0049H106.359V60.1889L104.055 62.1889V60.2689L106.359 58.2529H108.167V69.0049ZM123.21 55.6129H125.338V66.4129H123.21V55.6129ZM115.466 68.4609H125.722V70.1729H115.466V68.4609ZM115.466 65.3729H117.594V69.3409H115.466V65.3729ZM116.506 56.4289H118.266V57.8689C118.266 58.8289 118.111 59.7462 117.802 60.6209C117.503 61.4955 117.045 62.2635 116.426 62.9249C115.807 63.5862 115.018 64.0875 114.058 64.4289L112.97 62.7329C113.802 62.4449 114.474 62.0449 114.986 61.5329C115.509 61.0209 115.893 60.4449 116.138 59.8049C116.383 59.1649 116.506 58.5195 116.506 57.8689V56.4289ZM116.938 56.4289H118.666V57.8689C118.666 58.3489 118.73 58.8235 118.858 59.2929C118.997 59.7515 119.205 60.1889 119.482 60.6049C119.759 61.0102 120.117 61.3782 120.554 61.7089C120.991 62.0395 121.509 62.3009 122.106 62.4929L121.034 64.1729C120.095 63.8635 119.322 63.3942 118.714 62.7649C118.106 62.1355 117.658 61.3995 117.37 60.5569C117.082 59.7142 116.938 58.8182 116.938 57.8689V56.4289ZM131.065 58.2049H132.793V58.7329C132.793 59.5969 132.644 60.4129 132.345 61.1809C132.046 61.9489 131.588 62.6155 130.969 63.1809C130.361 63.7462 129.588 64.1675 128.649 64.4449L127.641 62.7969C128.441 62.5622 129.092 62.2369 129.593 61.8209C130.105 61.3942 130.478 60.9142 130.713 60.3809C130.948 59.8369 131.065 59.2875 131.065 58.7329V58.2049ZM131.465 58.2049H133.193V58.7329C133.193 59.1169 133.257 59.4955 133.385 59.8689C133.524 60.2422 133.732 60.5942 134.009 60.9249C134.297 61.2555 134.66 61.5489 135.097 61.8049C135.534 62.0609 136.046 62.2689 136.633 62.4289L135.673 64.0929C134.734 63.8369 133.95 63.4475 133.321 62.9249C132.702 62.3915 132.238 61.7622 131.929 61.0369C131.62 60.3115 131.465 59.5435 131.465 58.7329V58.2049ZM128.153 57.1329H136.121V58.8129H128.153V57.1329ZM131.065 55.5489H133.193V57.8049H131.065V55.5489ZM135.705 59.5489H138.521V61.2609H135.705V59.5489ZM138.009 55.6129H140.153V64.5569H138.009V55.6129ZM135.129 64.7969C136.697 64.7969 137.934 65.0422 138.841 65.5329C139.748 66.0235 140.201 66.7169 140.201 67.6129C140.201 68.4982 139.748 69.1862 138.841 69.6769C137.934 70.1782 136.697 70.4289 135.129 70.4289C133.561 70.4289 132.324 70.1782 131.417 69.6769C130.51 69.1862 130.057 68.4982 130.057 67.6129C130.057 66.7169 130.51 66.0235 131.417 65.5329C132.324 65.0422 133.561 64.7969 135.129 64.7969ZM135.129 66.4289C134.489 66.4289 133.945 66.4715 133.497 66.5569C133.06 66.6422 132.729 66.7755 132.505 66.9569C132.281 67.1275 132.169 67.3462 132.169 67.6129C132.169 67.8689 132.281 68.0875 132.505 68.2689C132.729 68.4502 133.06 68.5835 133.497 68.6689C133.945 68.7542 134.489 68.7969 135.129 68.7969C135.78 68.7969 136.324 68.7542 136.761 68.6689C137.198 68.5835 137.524 68.4502 137.737 68.2689C137.961 68.0875 138.073 67.8689 138.073 67.6129C138.073 67.3462 137.961 67.1275 137.737 66.9569C137.524 66.7755 137.198 66.6422 136.761 66.5569C136.324 66.4715 135.78 66.4289 135.129 66.4289Z" fill="#FF1595"/>
<path d="M60.7769 62.2289V61.2289H59.7769V62.2289H60.7769ZM62.0889 62.2289H63.0889V61.2289H62.0889V62.2289ZM62.0889 66.5489V67.5489H63.0889V66.5489H62.0889ZM60.7769 66.5489H59.7769V67.5489H60.7769V66.5489ZM66.1209 62.2289V61.2289H65.1209V62.2289H66.1209ZM67.4489 62.2289H68.4489V61.2289H67.4489V62.2289ZM67.4489 66.5489V67.5489H68.4489V66.5489H67.4489ZM66.1209 66.5489H65.1209V67.5489H66.1209V66.5489ZM57.5609 66.2929V65.2929H56.5609V66.2929H57.5609ZM70.6809 66.2929H71.6809V65.2929H70.6809V66.2929ZM70.6809 67.3969V68.3969H71.6809V67.3969H70.6809ZM57.5609 67.3969H56.5609V68.3969H57.5609V67.3969ZM66.8089 56.1489L67.1738 55.2178L66.8089 56.1489ZM68.6649 57.4449L67.8869 58.0733L67.8943 58.0821L68.6649 57.4449ZM68.6649 61.3809L67.8883 60.7508L67.887 60.7525L68.6649 61.3809ZM66.8089 62.6769L67.1628 63.6122L67.1738 63.6079L66.8089 62.6769ZM61.3689 62.6769L61.004 63.6079L61.0116 63.6109L61.0191 63.6137L61.3689 62.6769ZM59.5129 61.3809L58.7291 62.002L58.735 62.0092L59.5129 61.3809ZM59.5129 57.4449L58.735 56.8165L59.5129 57.4449ZM61.3689 56.1489L61.0083 55.2162L61.004 55.2178L61.3689 56.1489ZM62.0409 57.0769L62.392 58.0132H62.392L62.0409 57.0769ZM60.6329 58.0209L61.3893 58.6751L61.3978 58.665L60.6329 58.0209ZM60.6329 60.8209L59.8679 61.4651L59.8765 61.475L60.6329 60.8209ZM62.0409 61.7489L62.392 60.8126H62.392L62.0409 61.7489ZM66.1529 61.7489L65.8018 60.8126L66.1529 61.7489ZM67.5609 60.8209L68.3173 61.4751L68.3258 61.465L67.5609 60.8209ZM67.5609 58.0209L66.7959 58.6651L66.8045 58.675L67.5609 58.0209ZM66.1529 57.0769L65.8018 58.0132L66.1529 57.0769ZM60.7769 62.2289V63.2289H62.0889V62.2289V61.2289H60.7769V62.2289ZM62.0889 62.2289H61.0889V66.5489H62.0889H63.0889V62.2289H62.0889ZM62.0889 66.5489V65.5489H60.7769V66.5489V67.5489H62.0889V66.5489ZM60.7769 66.5489H61.7769V62.2289H60.7769H59.7769V66.5489H60.7769ZM66.1209 62.2289V63.2289H67.4489V62.2289V61.2289H66.1209V62.2289ZM67.4489 62.2289H66.4489V66.5489H67.4489H68.4489V62.2289H67.4489ZM67.4489 66.5489V65.5489H66.1209V66.5489V67.5489H67.4489V66.5489ZM66.1209 66.5489H67.1209V62.2289H66.1209H65.1209V66.5489H66.1209ZM57.5609 66.2929V67.2929H70.6809V66.2929V65.2929H57.5609V66.2929ZM70.6809 66.2929H69.6809V67.3969H70.6809H71.6809V66.2929H70.6809ZM70.6809 67.3969V66.3969H57.5609V67.3969V68.3969H70.6809V67.3969ZM57.5609 67.3969H58.5609V66.2929H57.5609H56.5609V67.3969H57.5609ZM64.0889 55.6849V56.6849C65.0133 56.6849 65.7924 56.8246 66.444 57.0799L66.8089 56.1489L67.1738 55.2178C66.2468 54.8545 65.2125 54.6849 64.0889 54.6849V55.6849ZM66.8089 56.1489L66.444 57.0799C67.1024 57.3379 67.567 57.6771 67.887 58.0732L68.6649 57.4449L69.4428 56.8165C68.8668 56.1033 68.0941 55.5785 67.1738 55.2178L66.8089 56.1489ZM68.6649 57.4449L67.8943 58.0821C68.1965 58.4477 68.3529 58.875 68.3529 59.4129H69.3529H70.3529C70.3529 58.4361 70.0506 57.5514 69.4355 56.8076L68.6649 57.4449ZM69.3529 59.4129H68.3529C68.3529 59.9365 68.1985 60.3686 67.8883 60.7508L68.6649 61.3809L69.4415 62.0109C70.0487 61.2625 70.3529 60.3826 70.3529 59.4129H69.3529ZM68.6649 61.3809L67.887 60.7525C67.567 61.1487 67.1024 61.4878 66.444 61.7458L66.8089 62.6769L67.1738 63.6079C68.0941 63.2473 68.8668 62.7224 69.4428 62.0092L68.6649 61.3809ZM66.8089 62.6769L66.455 61.7416C65.8 61.9894 65.017 62.1249 64.0889 62.1249V63.1249V64.1249C65.2088 64.1249 66.2391 63.9617 67.1628 63.6122L66.8089 62.6769ZM64.0889 63.1249V62.1249C63.1732 62.1249 62.388 61.9899 61.7187 61.74L61.3689 62.6769L61.0191 63.6137C61.9498 63.9612 62.9779 64.1249 64.0889 64.1249V63.1249ZM61.3689 62.6769L61.7338 61.7458C61.0754 61.4878 60.6108 61.1487 60.2908 60.7525L59.5129 61.3809L58.735 62.0092C59.311 62.7224 60.0837 63.2473 61.004 63.6079L61.3689 62.6769ZM59.5129 61.3809L60.2966 60.7598C59.9939 60.3778 59.8409 59.9426 59.8409 59.4129H58.8409H57.8409C57.8409 60.3765 58.1359 61.2533 58.7292 62.002L59.5129 61.3809ZM58.8409 59.4129H59.8409C59.8409 58.8689 59.9959 58.4384 60.2908 58.0732L59.5129 57.4449L58.735 56.8165C58.134 57.5607 57.8409 58.4422 57.8409 59.4129H58.8409ZM59.5129 57.4449L60.2908 58.0732C60.6108 57.6771 61.0754 57.3379 61.7338 57.0799L61.3689 56.1489L61.004 55.2178C60.0837 55.5785 59.311 56.1033 58.735 56.8165L59.5129 57.4449ZM61.3689 56.1489L61.7295 57.0816C62.3957 56.824 63.177 56.6849 64.0889 56.6849V55.6849V54.6849C62.9742 54.6849 61.9421 54.8551 61.0083 55.2162L61.3689 56.1489ZM64.0889 56.7409V55.7409C63.2248 55.7409 62.4197 55.8668 61.6898 56.1406L62.0409 57.0769L62.392 58.0132C62.8568 57.8389 63.417 57.7409 64.0889 57.7409V56.7409ZM62.0409 57.0769L61.6898 56.1406C60.9644 56.4126 60.3404 56.8158 59.868 57.3767L60.6329 58.0209L61.3978 58.665C61.6081 58.4153 61.9227 58.1892 62.392 58.0132L62.0409 57.0769ZM60.6329 58.0209L59.8765 57.3667C59.3743 57.9475 59.1209 58.6451 59.1209 59.4129H60.1209H61.1209C61.1209 59.114 61.2089 58.8836 61.3893 58.675L60.6329 58.0209ZM60.1209 59.4129H59.1209C59.1209 60.1803 59.3738 60.8781 59.868 61.465L60.6329 60.8209L61.3978 60.1767C61.2094 59.953 61.1209 59.7122 61.1209 59.4129H60.1209ZM60.6329 60.8209L59.8765 61.475C60.3491 62.0214 60.9704 62.4154 61.6898 62.6852L62.0409 61.7489L62.392 60.8126C61.9167 60.6343 61.5994 60.4097 61.3893 60.1667L60.6329 60.8209ZM62.0409 61.7489L61.6898 62.6852C62.4197 62.9589 63.2248 63.0849 64.0889 63.0849V62.0849V61.0849C63.417 61.0849 62.8568 60.9868 62.392 60.8126L62.0409 61.7489ZM64.0889 62.0849V63.0849C64.9619 63.0849 65.7727 62.9595 66.504 62.6852L66.1529 61.7489L65.8018 60.8126C65.3384 60.9863 64.7733 61.0849 64.0889 61.0849V62.0849ZM66.1529 61.7489L66.504 62.6852C67.2234 62.4154 67.8448 62.0214 68.3173 61.475L67.5609 60.8209L66.8045 60.1667C66.5944 60.4097 66.2771 60.6343 65.8018 60.8126L66.1529 61.7489ZM67.5609 60.8209L68.3258 61.465C68.82 60.8781 69.0729 60.1803 69.0729 59.4129H68.0729H67.0729C67.0729 59.7122 66.9844 59.953 66.796 60.1767L67.5609 60.8209ZM68.0729 59.4129H69.0729C69.0729 58.6451 68.8195 57.9475 68.3173 57.3667L67.5609 58.0209L66.8045 58.675C66.985 58.8836 67.0729 59.114 67.0729 59.4129H68.0729ZM67.5609 58.0209L68.3258 57.3767C67.8534 56.8158 67.2294 56.4126 66.504 56.1406L66.1529 57.0769L65.8018 58.0132C66.2711 58.1892 66.5857 58.4153 66.796 58.665L67.5609 58.0209ZM66.1529 57.0769L66.504 56.1406C65.7727 55.8663 64.9619 55.7409 64.0889 55.7409V56.7409V57.7409C64.7733 57.7409 65.3384 57.8395 65.8018 58.0132L66.1529 57.0769ZM73.9437 55.5409V54.5409H72.9437V55.5409H73.9437ZM83.2557 55.5409H84.2557V54.5409H83.2557V55.5409ZM83.2557 56.6289V57.6289H84.2557V56.6289H83.2557ZM73.9437 56.6289H72.9437V57.6289H73.9437V56.6289ZM72.2797 60.8689V59.8689H71.2797V60.8689H72.2797ZM85.3997 60.8689H86.3997V59.8689H85.3997V60.8689ZM85.3997 61.9569V62.9569H86.3997V61.9569H85.3997ZM72.2797 61.9569H71.2797V62.9569H72.2797V61.9569ZM82.3917 55.5409V54.5409H81.3917V55.5409H82.3917ZM83.7037 55.5409H84.7037V54.5409H83.7037V55.5409ZM83.2237 61.2529L83.1628 62.251L84.007 62.3025L84.1979 61.4785L83.2237 61.2529ZM81.9117 61.1729L80.9391 60.9403L80.6621 62.0985L81.8508 62.171L81.9117 61.1729ZM82.3277 58.6129L83.3259 58.6716L83.326 58.6708L82.3277 58.6129ZM73.8957 63.9249V62.9249H72.8957V63.9249H73.8957ZM83.7517 63.9249H84.7517V62.9249H83.7517V63.9249ZM83.7517 69.0609V70.0609H84.7517V69.0609H83.7517ZM73.8957 69.0609H72.8957V70.0609H73.8957V69.0609ZM82.4397 64.9809H83.4397V63.9809H82.4397V64.9809ZM75.1917 64.9809V63.9809H74.1917V64.9809H75.1917ZM75.1917 67.9729H74.1917V68.9729H75.1917V67.9729ZM82.4397 67.9729V68.9729H83.4397V67.9729H82.4397ZM73.9437 55.5409V56.5409H83.2557V55.5409V54.5409H73.9437V55.5409ZM83.2557 55.5409H82.2557V56.6289H83.2557H84.2557V55.5409H83.2557ZM83.2557 56.6289V55.6289H73.9437V56.6289V57.6289H83.2557V56.6289ZM73.9437 56.6289H74.9437V55.5409H73.9437H72.9437V56.6289H73.9437ZM72.2797 60.8689V61.8689H85.3997V60.8689V59.8689H72.2797V60.8689ZM85.3997 60.8689H84.3997V61.9569H85.3997H86.3997V60.8689H85.3997ZM85.3997 61.9569V60.9569H72.2797V61.9569V62.9569H85.3997V61.9569ZM72.2797 61.9569H73.2797V60.8689H72.2797H71.2797V61.9569H72.2797ZM82.3917 55.5409V56.5409H83.7037V55.5409V54.5409H82.3917V55.5409ZM83.7037 55.5409H82.7037V56.6129H83.7037H84.7037V55.5409H83.7037ZM83.7037 56.6129H82.7037C82.7037 57.198 82.6831 57.8504 82.6413 58.571L83.6397 58.6289L84.638 58.6868C84.6815 57.9354 84.7037 57.2437 84.7037 56.6129H83.7037ZM83.6397 58.6289L82.6413 58.571C82.603 59.2328 82.4761 60.0486 82.2494 61.0273L83.2237 61.2529L84.1979 61.4785C84.4406 60.4305 84.591 59.497 84.638 58.6868L83.6397 58.6289ZM83.2237 61.2529L83.2845 60.2547L81.9725 60.1747L81.9117 61.1729L81.8508 62.171L83.1628 62.251L83.2237 61.2529ZM81.9117 61.1729L82.8842 61.4055C83.1277 60.3872 83.2788 59.4731 83.3259 58.6716L82.3277 58.6129L81.3294 58.5542C81.2912 59.2033 81.1649 59.9959 80.9391 60.9403L81.9117 61.1729ZM82.3277 58.6129L83.326 58.6708C83.3695 57.9197 83.3917 57.2334 83.3917 56.6129H82.3917H81.3917C81.3917 57.1871 81.3711 57.834 81.3293 58.555L82.3277 58.6129ZM82.3917 56.6129H83.3917V55.5409H82.3917H81.3917V56.6129H82.3917ZM73.8957 63.9249V64.9249H83.7517V63.9249V62.9249H73.8957V63.9249ZM83.7517 63.9249H82.7517V69.0609H83.7517H84.7517V63.9249H83.7517ZM83.7517 69.0609V68.0609H73.8957V69.0609V70.0609H83.7517V69.0609ZM73.8957 69.0609H74.8957V63.9249H73.8957H72.8957V69.0609H73.8957ZM82.4397 64.9809V63.9809H75.1917V64.9809V65.9809H82.4397V64.9809ZM75.1917 64.9809H74.1917V67.9729H75.1917H76.1917V64.9809H75.1917ZM75.1917 67.9729V68.9729H82.4397V67.9729V66.9729H75.1917V67.9729ZM82.4397 67.9729H83.4397V64.9809H82.4397H81.4397V67.9729H82.4397ZM98.0064 54.7729V53.7729H97.0064V54.7729H98.0064ZM99.2704 54.7729H100.27V53.7729H99.2704V54.7729ZM99.2704 69.2529V70.2529H100.27V69.2529H99.2704ZM98.0064 69.2529H97.0064V70.2529H98.0064V69.2529ZM92.7264 59.9729V58.9729H91.7264V59.9729H92.7264ZM95.5104 59.9729H96.5104V58.9729H95.5104V59.9729ZM95.5104 61.0609V62.0609H96.5104V61.0609H95.5104ZM92.7264 61.0609H91.7264V62.0609H92.7264V61.0609ZM95.1104 55.1089V54.1089H94.1104V55.1089H95.1104ZM96.3584 55.1089H97.3584V54.1089H96.3584V55.1089ZM96.3584 68.5009V69.5009H97.3584V68.5009H96.3584ZM95.1104 68.5009H94.1104V69.5009H95.1104V68.5009ZM89.9584 57.0289V56.0289H88.9584V57.0289H89.9584ZM90.9824 57.0289H91.9824V56.0289H90.9824V57.0289ZM90.7584 61.1889L91.739 61.385L91.7395 61.3823L90.7584 61.1889ZM90.1024 63.3009L91.0168 63.7056L91.0192 63.7001L90.1024 63.3009ZM89.0464 65.0769L89.8289 65.6997L89.8349 65.6919L89.0464 65.0769ZM87.6384 66.3569L86.8661 66.9922L87.427 67.674L88.173 67.202L87.6384 66.3569ZM86.8224 65.3649L86.3059 64.5086L85.3149 65.1063L86.0501 66.0002L86.8224 65.3649ZM88.5184 63.7329L87.6943 63.1663L87.6884 63.1752L88.5184 63.7329ZM90.2304 57.0289V56.0289H89.2304V57.0289H90.2304ZM91.2384 57.0289H92.2384V56.0289H91.2384V57.0289ZM91.5904 61.3169L90.6308 61.5984L90.6343 61.6101L91.5904 61.3169ZM92.6304 63.4929L91.8068 64.06L91.8121 64.0677L91.8176 64.0754L92.6304 63.4929ZM94.3104 65.0289L95.0888 65.6566L95.8205 64.7494L94.8125 64.1641L94.3104 65.0289ZM93.5104 66.0209L92.9827 66.8703L93.7338 67.3369L94.2888 66.6486L93.5104 66.0209ZM91.7184 64.2769L90.8808 64.8232L90.8854 64.8302L90.8901 64.8372L91.7184 64.2769ZM90.6144 61.7809L89.6496 62.044L89.6504 62.0468L90.6144 61.7809ZM87.2224 56.4689V55.4689H86.2224V56.4689H87.2224ZM93.8304 56.4689H94.8304V55.4689H93.8304V56.4689ZM93.8304 57.5569V58.5569H94.8304V57.5569H93.8304ZM87.2224 57.5569H86.2224V58.5569H87.2224V57.5569ZM98.0064 54.7729V55.7729H99.2704V54.7729V53.7729H98.0064V54.7729ZM99.2704 54.7729H98.2704V69.2529H99.2704H100.27V54.7729H99.2704ZM99.2704 69.2529V68.2529H98.0064V69.2529V70.2529H99.2704V69.2529ZM98.0064 69.2529H99.0064V54.7729H98.0064H97.0064V69.2529H98.0064ZM92.7264 59.9729V60.9729H95.5104V59.9729V58.9729H92.7264V59.9729ZM95.5104 59.9729H94.5104V61.0609H95.5104H96.5104V59.9729H95.5104ZM95.5104 61.0609V60.0609H92.7264V61.0609V62.0609H95.5104V61.0609ZM92.7264 61.0609H93.7264V59.9729H92.7264H91.7264V61.0609H92.7264ZM95.1104 55.1089V56.1089H96.3584V55.1089V54.1089H95.1104V55.1089ZM96.3584 55.1089H95.3584V68.5009H96.3584H97.3584V55.1089H96.3584ZM96.3584 68.5009V67.5009H95.1104V68.5009V69.5009H96.3584V68.5009ZM95.1104 68.5009H96.1104V55.1089H95.1104H94.1104V68.5009H95.1104ZM89.9584 57.0289V58.0289H90.9824V57.0289V56.0289H89.9584V57.0289ZM90.9824 57.0289H89.9824V58.8689H90.9824H91.9824V57.0289H90.9824ZM90.9824 58.8689H89.9824C89.9824 59.5947 89.9138 60.3032 89.7773 60.9954L90.7584 61.1889L91.7395 61.3823C91.9017 60.5599 91.9824 59.7217 91.9824 58.8689H90.9824ZM90.7584 61.1889L89.7778 60.9928C89.6417 61.6735 89.4436 62.3091 89.1856 62.9016L90.1024 63.3009L91.0192 63.7001C91.3372 62.97 91.5765 62.1976 91.739 61.385L90.7584 61.1889ZM90.1024 63.3009L89.188 62.8961C88.9314 63.4757 88.6209 63.9965 88.2579 64.4619L89.0464 65.0769L89.8349 65.6919C90.3039 65.0906 90.6974 64.4274 91.0168 63.7056L90.1024 63.3009ZM89.0464 65.0769L88.264 64.4541C87.912 64.8964 87.5247 65.2455 87.1038 65.5118L87.6384 66.3569L88.173 67.202C88.7974 66.8069 89.3488 66.3027 89.8288 65.6996L89.0464 65.0769ZM87.6384 66.3569L88.4107 65.7216L87.5947 64.7296L86.8224 65.3649L86.0501 66.0002L86.8661 66.9922L87.6384 66.3569ZM86.8224 65.3649L87.3389 66.2212C88.142 65.7368 88.8123 65.0885 89.3485 64.2906L88.5184 63.7329L87.6884 63.1752C87.3071 63.7426 86.8468 64.1823 86.3059 64.5086L86.8224 65.3649ZM88.5184 63.7329L89.3424 64.2994C89.8756 63.5239 90.2772 62.6633 90.5505 61.7244L89.5904 61.4449L88.6303 61.1653C88.4129 61.9118 88.0998 62.5766 87.6944 63.1664L88.5184 63.7329ZM89.5904 61.4449L90.5505 61.7244C90.8222 60.7912 90.9584 59.8385 90.9584 58.8689H89.9584H88.9584C88.9584 59.6486 88.8493 60.4132 88.6303 61.1653L89.5904 61.4449ZM89.9584 58.8689H90.9584V57.0289H89.9584H88.9584V58.8689H89.9584ZM90.2304 57.0289V58.0289H91.2384V57.0289V56.0289H90.2304V57.0289ZM91.2384 57.0289H90.2384V58.8689H91.2384H92.2384V57.0289H91.2384ZM91.2384 58.8689H90.2384C90.2384 59.7964 90.3694 60.7071 90.6308 61.5984L91.5904 61.3169L92.55 61.0354C92.3421 60.3266 92.2384 59.6054 92.2384 58.8689H91.2384ZM91.5904 61.3169L90.6343 61.6101C90.9078 62.5018 91.2976 63.3205 91.8068 64.06L92.6304 63.4929L93.4541 62.9258C93.0672 62.364 92.7637 61.732 92.5465 61.0237L91.5904 61.3169ZM92.6304 63.4929L91.8176 64.0754C92.3562 64.8269 93.0209 65.4365 93.8083 65.8937L94.3104 65.0289L94.8125 64.1641C94.2772 63.8533 93.822 63.4389 93.4432 62.9104L92.6304 63.4929ZM94.3104 65.0289L93.532 64.4011L92.732 65.3931L93.5104 66.0209L94.2888 66.6486L95.0888 65.6566L94.3104 65.0289ZM93.5104 66.0209L94.0381 65.1714C93.4602 64.8125 92.9631 64.3322 92.5467 63.7166L91.7184 64.2769L90.8901 64.8372C91.455 65.6722 92.1526 66.3546 92.9827 66.8703L93.5104 66.0209ZM91.7184 64.2769L92.556 63.7306C92.1375 63.0888 91.8096 62.353 91.5784 61.515L90.6144 61.7809L89.6504 62.0468C89.9312 63.0648 90.3394 63.9929 90.8808 64.8232L91.7184 64.2769ZM90.6144 61.7809L91.5792 61.5178C91.3473 60.6674 91.2304 59.7854 91.2304 58.8689H90.2304H89.2304C89.2304 59.9577 89.3695 61.017 89.6496 62.044L90.6144 61.7809ZM90.2304 58.8689H91.2304V57.0289H90.2304H89.2304V58.8689H90.2304ZM87.2224 56.4689V57.4689H93.8304V56.4689V55.4689H87.2224V56.4689ZM93.8304 56.4689H92.8304V57.5569H93.8304H94.8304V56.4689H93.8304ZM93.8304 57.5569V56.5569H87.2224V57.5569V58.5569H93.8304V57.5569ZM87.2224 57.5569H88.2224V56.4689H87.2224H86.2224V57.5569H87.2224ZM103.221 68.0049H102.221V69.0049H103.221V68.0049ZM103.221 66.7249V65.7249H102.221V66.7249H103.221ZM105.509 66.7249V67.7249H106.509V66.7249H105.509ZM105.509 58.6449H106.509V56.6389L104.907 57.8463L105.509 58.6449ZM103.365 60.2609L102.558 60.8512L103.157 61.6701L103.967 61.0595L103.365 60.2609ZM102.581 59.1889L101.997 58.3773L101.179 58.9659L101.774 59.7792L102.581 59.1889ZM105.893 56.8049V55.8049H105.571L105.309 55.9933L105.893 56.8049ZM106.949 56.8049H107.949V55.8049H106.949V56.8049ZM106.949 66.7249H105.949V67.7249H106.949V66.7249ZM108.853 66.7249H109.853V65.7249H108.853V66.7249ZM108.853 68.0049V69.0049H109.853V68.0049H108.853ZM103.221 68.0049H104.221V66.7249H103.221H102.221V68.0049H103.221ZM103.221 66.7249V67.7249H105.509V66.7249V65.7249H103.221V66.7249ZM105.509 66.7249H106.509V58.6449H105.509H104.509V66.7249H105.509ZM105.509 58.6449L104.907 57.8463L102.763 59.4623L103.365 60.2609L103.967 61.0595L106.111 59.4434L105.509 58.6449ZM103.365 60.2609L104.172 59.6706L103.388 58.5986L102.581 59.1889L101.774 59.7792L102.558 60.8512L103.365 60.2609ZM102.581 59.1889L103.165 60.0005L106.477 57.6165L105.893 56.8049L105.309 55.9933L101.997 58.3773L102.581 59.1889ZM105.893 56.8049V57.8049H106.949V56.8049V55.8049H105.893V56.8049ZM106.949 56.8049H105.949V66.7249H106.949H107.949V56.8049H106.949ZM106.949 66.7249V67.7249H108.853V66.7249V65.7249H106.949V66.7249ZM108.853 66.7249H107.853V68.0049H108.853H109.853V66.7249H108.853ZM108.853 68.0049V67.0049H103.221V68.0049V69.0049H108.853V68.0049ZM126.636 54.7889V53.7889H125.636V54.7889H126.636ZM127.964 54.7889H128.964V53.7889H127.964V54.7889ZM127.964 65.3969V66.3969H128.964V65.3969H127.964ZM126.636 65.3969H125.636V66.3969H126.636V65.3969ZM118.668 67.8449V66.8449H117.668V67.8449H118.668ZM128.412 67.8449H129.412V66.8449H128.412V67.8449ZM128.412 68.9329V69.9329H129.412V68.9329H128.412ZM118.668 68.9329H117.668V69.9329H118.668V68.9329ZM118.668 64.4209V63.4209H117.668V64.4209H118.668ZM119.996 64.4209H120.996V63.4209H119.996V64.4209ZM119.996 68.3569V69.3569H120.996V68.3569H119.996ZM118.668 68.3569H117.668V69.3569H118.668V68.3569ZM119.868 55.5889V54.5889H118.868V55.5889H119.868ZM120.972 55.5889H121.972V54.5889H120.972V55.5889ZM120.476 59.7169L121.403 60.0904L121.405 60.0862L120.476 59.7169ZM119.068 61.8929L118.349 61.1981L118.348 61.1983L119.068 61.8929ZM116.956 63.3169L116.124 63.8716L116.577 64.5514L117.333 64.2428L116.956 63.3169ZM116.252 62.2609L115.887 61.3296L114.731 61.7822L115.42 62.8156L116.252 62.2609ZM118.156 61.0289L117.456 60.3148L117.449 60.3218L118.156 61.0289ZM119.42 59.2049L120.336 59.6057L120.338 59.6005L119.42 59.2049ZM120.108 55.5889V54.5889H119.108V55.5889H120.108ZM121.212 55.5889H122.212V54.5889H121.212V55.5889ZM121.468 58.6289L120.519 58.9451L120.521 58.9511L121.468 58.6289ZM122.204 60.0369L121.397 60.6274L122.204 60.0369ZM123.34 61.2049L122.725 61.9932L122.735 62.0015L122.746 62.0095L123.34 61.2049ZM124.812 61.9889L125.65 62.5348L126.339 61.476L125.15 61.048L124.812 61.9889ZM124.124 63.0449L123.763 63.9776L124.519 64.2699L124.962 63.5908L124.124 63.0449ZM122.012 61.7009L121.305 62.408L121.311 62.4143L121.317 62.4205L122.012 61.7009ZM120.604 59.6209L119.68 60.0029L119.683 60.0104L119.686 60.0178L120.604 59.6209ZM126.636 54.7889V55.7889H127.964V54.7889V53.7889H126.636V54.7889ZM127.964 54.7889H126.964V65.3969H127.964H128.964V54.7889H127.964ZM127.964 65.3969V64.3969H126.636V65.3969V66.3969H127.964V65.3969ZM126.636 65.3969H127.636V54.7889H126.636H125.636V65.3969H126.636ZM118.668 67.8449V68.8449H128.412V67.8449V66.8449H118.668V67.8449ZM128.412 67.8449H127.412V68.9329H128.412H129.412V67.8449H128.412ZM128.412 68.9329V67.9329H118.668V68.9329V69.9329H128.412V68.9329ZM118.668 68.9329H119.668V67.8449H118.668H117.668V68.9329H118.668ZM118.668 64.4209V65.4209H119.996V64.4209V63.4209H118.668V64.4209ZM119.996 64.4209H118.996V68.3569H119.996H120.996V64.4209H119.996ZM119.996 68.3569V67.3569H118.668V68.3569V69.3569H119.996V68.3569ZM118.668 68.3569H119.668V64.4209H118.668H117.668V68.3569H118.668ZM119.868 55.5889V56.5889H120.972V55.5889V54.5889H119.868V55.5889ZM120.972 55.5889H119.972V57.0449H120.972H121.972V55.5889H120.972ZM120.972 57.0449H119.972C119.972 57.8755 119.828 58.6401 119.546 59.3475L120.476 59.7169L121.405 60.0862C121.785 59.1297 121.972 58.113 121.972 57.0449H120.972ZM120.476 59.7169L119.548 59.3434C119.265 60.0467 118.866 60.6625 118.349 61.1981L119.068 61.8929L119.787 62.5877C120.486 61.8646 121.025 61.0298 121.403 60.0903L120.476 59.7169ZM119.068 61.8929L118.348 61.1983C117.849 61.7151 117.262 62.1118 116.578 62.3909L116.956 63.3169L117.333 64.2428C118.27 63.8606 119.091 63.308 119.787 62.5875L119.068 61.8929ZM116.956 63.3169L117.788 62.7622L117.084 61.7062L116.252 62.2609L115.42 62.8156L116.124 63.8716L116.956 63.3169ZM116.252 62.2609L116.616 63.1921C117.474 62.8563 118.227 62.3715 118.863 61.736L118.156 61.0289L117.449 60.3218C117.018 60.7529 116.501 61.0895 115.887 61.3296L116.252 62.2609ZM118.156 61.0289L118.856 61.743C119.489 61.1221 119.985 60.4083 120.336 59.6057L119.42 59.2049L118.504 58.8041C118.257 59.3668 117.91 59.869 117.456 60.3148L118.156 61.0289ZM119.42 59.2049L120.338 59.6005C120.69 58.7836 120.868 57.9291 120.868 57.0449H119.868H118.868C118.868 57.654 118.747 58.2395 118.501 58.8093L119.42 59.2049ZM119.868 57.0449H120.868V55.5889H119.868H118.868V57.0449H119.868ZM120.108 55.5889V56.5889H121.212V55.5889V54.5889H120.108V55.5889ZM121.212 55.5889H120.212V57.0449H121.212H122.212V55.5889H121.212ZM121.212 57.0449H120.212C120.212 57.6955 120.314 58.3303 120.519 58.9451L121.468 58.6289L122.416 58.3127C122.28 57.9034 122.212 57.4823 122.212 57.0449H121.212ZM121.468 58.6289L120.521 58.9511C120.725 59.5507 121.018 60.1102 121.397 60.6274L122.204 60.0369L123.011 59.4464C122.749 59.0889 122.552 58.7097 122.414 58.3066L121.468 58.6289ZM122.204 60.0369L121.397 60.6274C121.773 61.141 122.216 61.5965 122.725 61.9932L123.34 61.2049L123.955 60.4166C123.589 60.1306 123.275 59.8075 123.011 59.4464L122.204 60.0369ZM123.34 61.2049L122.746 62.0095C123.273 62.3987 123.85 62.7055 124.473 62.9298L124.812 61.9889L125.15 61.048C124.707 60.8882 124.302 60.6724 123.934 60.4003L123.34 61.2049ZM124.812 61.9889L123.974 61.443L123.286 62.499L124.124 63.0449L124.962 63.5908L125.65 62.5348L124.812 61.9889ZM124.124 63.0449L124.484 62.1122C123.807 61.8502 123.217 61.4739 122.706 60.9813L122.012 61.7009L121.317 62.4205C122.023 63.1012 122.841 63.6209 123.763 63.9776L124.124 63.0449ZM122.012 61.7009L122.719 60.9938C122.212 60.4873 121.814 59.8997 121.522 59.224L120.604 59.6209L119.686 60.0178C120.076 60.9208 120.617 61.7198 121.305 62.408L122.012 61.7009ZM120.604 59.6209L121.528 59.2389C121.25 58.5671 121.108 57.8391 121.108 57.0449H120.108H119.108C119.108 58.0853 119.296 59.0746 119.68 60.0029L120.604 59.6209ZM120.108 57.0449H121.108V55.5889H120.108H119.108V57.0449H120.108ZM134.443 57.2529V56.2529H133.443V57.2529H134.443ZM135.515 57.2529H136.515V56.2529H135.515V57.2529ZM135.019 60.2129L135.926 60.6328L135.928 60.6277L135.019 60.2129ZM133.611 62.1009L134.277 62.8468L134.277 62.8461L133.611 62.1009ZM131.499 63.3169L130.647 63.841L131.066 64.5218L131.822 64.263L131.499 63.3169ZM130.859 62.2769L130.547 61.3268L129.343 61.722L130.007 62.801L130.859 62.2769ZM132.731 61.2689L133.365 62.0422L133.374 62.0346L132.731 61.2689ZM133.979 59.7169L133.094 59.2505L133.091 59.2568L133.087 59.2632L133.979 59.7169ZM134.667 57.2529V56.2529H133.667V57.2529H134.667ZM135.755 57.2529H136.755V56.2529H135.755V57.2529ZM136.011 59.1569L135.085 59.5364L135.089 59.5465L135.094 59.5565L136.011 59.1569ZM136.763 60.3249L136.013 60.9865L136.018 60.9921L136.023 60.9976L136.763 60.3249ZM139.387 61.8929L140.244 62.4074L140.906 61.3046L139.674 60.9351L139.387 61.8929ZM138.763 62.9329L138.473 63.89L139.219 64.1158L139.62 63.4474L138.763 62.9329ZM136.619 61.8289L135.982 62.6004L135.99 62.6065L135.997 62.6124L136.619 61.8289ZM135.179 60.0689L134.284 60.5161L134.288 60.5245L134.293 60.5329L135.179 60.0689ZM131.227 56.5169V55.5169H130.227V56.5169H131.227ZM138.955 56.5169H139.955V55.5169H138.955V56.5169ZM138.955 57.5889V58.5889H139.955V57.5889H138.955ZM131.227 57.5889H130.227V58.5889H131.227V57.5889ZM134.443 54.7089V53.7089H133.443V54.7089H134.443ZM135.771 54.7089H136.771V53.7089H135.771V54.7089ZM135.771 56.9009V57.9009H136.771V56.9009H135.771ZM134.443 56.9009H133.443V57.9009H134.443V56.9009ZM138.507 58.9009V57.9009H137.507V58.9009H138.507ZM141.771 58.9009H142.771V57.9009H141.771V58.9009ZM141.771 59.9889V60.9889H142.771V59.9889H141.771ZM138.507 59.9889H137.507V60.9889H138.507V59.9889ZM141.403 54.7729V53.7729H140.403V54.7729H141.403ZM142.731 54.7729H143.731V53.7729H142.731V54.7729ZM142.731 63.5409V64.5409H143.731V63.5409H142.731ZM141.403 63.5409H140.403V64.5409H141.403V63.5409ZM141.499 64.6289L141.017 65.5051L141.025 65.5097L141.499 64.6289ZM141.499 68.5169L141.017 67.6407L141.499 68.5169ZM134.427 68.5169L133.945 69.3931L133.949 69.3956L134.427 68.5169ZM134.427 64.6289L134.9 65.5097L134.904 65.5076L134.427 64.6289ZM136.091 65.1569L136.31 66.1326L136.319 66.1305L136.328 66.1282L136.091 65.1569ZM134.875 65.7009L135.52 66.4643L135.523 66.4621L134.875 65.7009ZM134.875 67.4449L134.212 68.1939L134.227 68.2073L134.243 68.2201L134.875 67.4449ZM136.091 67.9889L135.853 68.9602L136.091 67.9889ZM139.835 67.9889L139.597 67.0176L139.592 67.0187L139.835 67.9889ZM141.035 67.4449L141.68 68.2083L141.683 68.2061L141.035 67.4449ZM141.035 65.7009L140.372 66.4499L140.387 66.4633L140.403 66.4761L141.035 65.7009ZM139.835 65.1569L139.592 66.127L139.604 66.13L139.615 66.1326L139.835 65.1569ZM134.443 57.2529V58.2529H135.515V57.2529V56.2529H134.443V57.2529ZM135.515 57.2529H134.515V57.8609H135.515H136.515V57.2529H135.515ZM135.515 57.8609H134.515C134.515 58.5688 134.377 59.2103 134.109 59.7981L135.019 60.2129L135.928 60.6277C136.322 59.7648 136.515 58.8383 136.515 57.8609H135.515ZM135.019 60.2129L134.111 59.793C133.84 60.3794 133.454 60.8992 132.944 61.3556L133.611 62.1009L134.277 62.8461C134.983 62.2146 135.536 61.4757 135.926 60.6328L135.019 60.2129ZM133.611 62.1009L132.945 61.3549C132.454 61.7933 131.868 62.1335 131.175 62.3707L131.499 63.3169L131.822 64.263C132.75 63.9456 133.573 63.4752 134.277 62.8468L133.611 62.1009ZM131.499 63.3169L132.35 62.7928L131.71 61.7528L130.859 62.2769L130.007 62.801L130.647 63.841L131.499 63.3169ZM130.859 62.2769L131.171 63.227C131.992 62.9573 132.727 62.5646 133.365 62.0422L132.731 61.2689L132.096 60.4956C131.667 60.8478 131.155 61.1272 130.547 61.3268L130.859 62.2769ZM132.731 61.2689L133.374 62.0346C134.004 61.5054 134.507 60.8837 134.87 60.1706L133.979 59.7169L133.087 59.2632C132.853 59.7234 132.524 60.1364 132.087 60.5032L132.731 61.2689ZM133.979 59.7169L134.863 60.1833C135.247 59.4557 135.443 58.6773 135.443 57.8609H134.443H133.443C133.443 58.3458 133.329 58.8047 133.094 59.2505L133.979 59.7169ZM134.443 57.8609H135.443V57.2529H134.443H133.443V57.8609H134.443ZM134.667 57.2529V58.2529H135.755V57.2529V56.2529H134.667V57.2529ZM135.755 57.2529H134.755V57.8609H135.755H136.755V57.2529H135.755ZM135.755 57.8609H134.755C134.755 58.4396 134.865 59.0005 135.085 59.5364L136.011 59.1569L136.936 58.7773C136.814 58.4813 136.755 58.1782 136.755 57.8609H135.755ZM136.011 59.1569L135.094 59.5565C135.319 60.0741 135.628 60.5509 136.013 60.9865L136.763 60.3249L137.512 59.6633C137.257 59.3736 137.064 59.0717 136.927 58.7573L136.011 59.1569ZM136.763 60.3249L136.023 60.9976C136.415 61.4294 136.878 61.7998 137.403 62.1122L137.915 61.2529L138.426 60.3936C138.055 60.1727 137.75 59.9244 137.502 59.6522L136.763 60.3249ZM137.915 61.2529L137.403 62.1122C137.926 62.4235 138.493 62.6688 139.099 62.8507L139.387 61.8929L139.674 60.9351C139.214 60.797 138.799 60.6156 138.426 60.3936L137.915 61.2529ZM139.387 61.8929L138.529 61.3784L137.905 62.4184L138.763 62.9329L139.62 63.4474L140.244 62.4074L139.387 61.8929ZM138.763 62.9329L139.052 61.9758C138.353 61.7642 137.753 61.4523 137.24 61.0454L136.619 61.8289L135.997 62.6124C136.721 63.1868 137.551 63.6109 138.473 63.89L138.763 62.9329ZM136.619 61.8289L137.255 61.0573C136.746 60.6375 136.352 60.1542 136.064 59.6049L135.179 60.0689L134.293 60.5329C134.709 61.3276 135.276 62.0176 135.982 62.6004L136.619 61.8289ZM135.179 60.0689L136.073 59.6217C135.803 59.0827 135.667 58.5005 135.667 57.8609H134.667H133.667C133.667 58.8 133.871 59.6898 134.284 60.5161L135.179 60.0689ZM134.667 57.8609H135.667V57.2529H134.667H133.667V57.8609H134.667ZM131.227 56.5169V57.5169H138.955V56.5169V55.5169H131.227V56.5169ZM138.955 56.5169H137.955V57.5889H138.955H139.955V56.5169H138.955ZM138.955 57.5889V56.5889H131.227V57.5889V58.5889H138.955V57.5889ZM131.227 57.5889H132.227V56.5169H131.227H130.227V57.5889H131.227ZM134.443 54.7089V55.7089H135.771V54.7089V53.7089H134.443V54.7089ZM135.771 54.7089H134.771V56.9009H135.771H136.771V54.7089H135.771ZM135.771 56.9009V55.9009H134.443V56.9009V57.9009H135.771V56.9009ZM134.443 56.9009H135.443V54.7089H134.443H133.443V56.9009H134.443ZM138.507 58.9009V59.9009H141.771V58.9009V57.9009H138.507V58.9009ZM141.771 58.9009H140.771V59.9889H141.771H142.771V58.9009H141.771ZM141.771 59.9889V58.9889H138.507V59.9889V60.9889H141.771V59.9889ZM138.507 59.9889H139.507V58.9009H138.507H137.507V59.9889H138.507ZM141.403 54.7729V55.7729H142.731V54.7729V53.7729H141.403V54.7729ZM142.731 54.7729H141.731V63.5409H142.731H143.731V54.7729H142.731ZM142.731 63.5409V62.5409H141.403V63.5409V64.5409H142.731V63.5409ZM141.403 63.5409H142.403V54.7729H141.403H140.403V63.5409H141.403ZM137.963 63.9249V64.9249C139.382 64.9249 140.37 65.1495 141.017 65.5051L141.499 64.6289L141.98 63.7527C140.92 63.1696 139.551 62.9249 137.963 62.9249V63.9249ZM141.499 64.6289L141.025 65.5097C141.619 65.8287 141.779 66.1688 141.779 66.5649H142.779H143.779C143.779 65.2969 143.085 64.3464 141.972 63.7481L141.499 64.6289ZM142.779 66.5649H141.779C141.779 66.9631 141.616 67.3111 141.017 67.6407L141.499 68.5169L141.98 69.3931C143.088 68.784 143.779 67.8306 143.779 66.5649H142.779ZM141.499 68.5169L141.017 67.6407C140.37 67.9963 139.382 68.2209 137.963 68.2209V69.2209V70.2209C139.551 70.2209 140.92 69.9761 141.98 69.3931L141.499 68.5169ZM137.963 69.2209V68.2209C136.557 68.2209 135.565 67.9971 134.904 67.6382L134.427 68.5169L133.949 69.3956C135.016 69.9753 136.382 70.2209 137.963 70.2209V69.2209ZM134.427 68.5169L134.908 67.6407C134.309 67.3111 134.147 66.9631 134.147 66.5649H133.147H132.147C132.147 67.8306 132.837 68.784 133.945 69.3931L134.427 68.5169ZM133.147 66.5649H134.147C134.147 66.1688 134.306 65.8287 134.9 65.5097L134.427 64.6289L133.953 63.7481C132.84 64.3464 132.147 65.2969 132.147 66.5649H133.147ZM134.427 64.6289L134.904 65.5076C135.565 65.1486 136.557 64.9249 137.963 64.9249V63.9249V62.9249C136.382 62.9249 135.016 63.1705 133.949 63.7502L134.427 64.6289ZM137.963 64.9649V63.9649C137.183 63.9649 136.475 64.0332 135.853 64.1856L136.091 65.1569L136.328 66.1282C136.752 66.0245 137.292 65.9649 137.963 65.9649V64.9649ZM136.091 65.1569L135.871 64.1812C135.252 64.3202 134.678 64.5544 134.226 64.9396L134.875 65.7009L135.523 66.4621C135.647 66.3567 135.883 66.2283 136.31 66.1326L136.091 65.1569ZM134.875 65.7009L134.229 64.9375C133.743 65.3482 133.459 65.9085 133.459 66.5649H134.459H135.459C135.459 66.5476 135.46 66.538 135.461 66.5341C135.462 66.5303 135.463 66.5284 135.464 66.5267C135.464 66.5254 135.474 66.5032 135.52 66.4643L134.875 65.7009ZM134.459 66.5649H133.459C133.459 67.2189 133.741 67.7768 134.212 68.1939L134.875 67.4449L135.537 66.6959C135.486 66.6504 135.47 66.6216 135.467 66.6135C135.464 66.6074 135.459 66.5956 135.459 66.5649H134.459ZM134.875 67.4449L134.243 68.2201C134.686 68.5809 135.246 68.8115 135.853 68.9602L136.091 67.9889L136.328 67.0176C135.89 66.9103 135.639 66.7782 135.506 66.6696L134.875 67.4449ZM136.091 67.9889L135.853 68.9602C136.475 69.1125 137.183 69.1809 137.963 69.1809V68.1809V67.1809C137.292 67.1809 136.752 67.1212 136.328 67.0176L136.091 67.9889ZM137.963 68.1809V69.1809C138.751 69.1809 139.461 69.1129 140.077 68.959L139.835 67.9889L139.592 67.0187C139.184 67.1208 138.646 67.1809 137.963 67.1809V68.1809ZM139.835 67.9889L140.072 68.9602C140.679 68.8117 141.242 68.5793 141.68 68.2083L141.035 67.4449L140.389 66.6815C140.272 66.7798 140.036 66.9101 139.597 67.0176L139.835 67.9889ZM141.035 67.4449L141.683 68.2061C142.167 67.794 142.467 67.2332 142.467 66.5649H141.467H140.467C140.467 66.5794 140.465 66.5873 140.464 66.5906C140.464 66.5937 140.463 66.5964 140.461 66.6002C140.458 66.6063 140.442 66.6358 140.386 66.6836L141.035 67.4449ZM141.467 66.5649H142.467C142.467 65.8939 142.164 65.3311 141.666 64.9256L141.035 65.7009L140.403 66.4761C140.429 66.4973 140.444 66.5137 140.453 66.524C140.461 66.534 140.464 66.5394 140.464 66.5401C140.464 66.5407 140.464 66.5407 140.465 66.5419C140.465 66.5434 140.467 66.5503 140.467 66.5649H141.467ZM141.035 65.7009L141.697 64.9519C141.249 64.5559 140.672 64.32 140.054 64.1812L139.835 65.1569L139.615 66.1326C140.042 66.2284 140.265 66.3552 140.372 66.4499L141.035 65.7009ZM139.835 65.1569L140.077 64.1867C139.461 64.0328 138.751 63.9649 137.963 63.9649V64.9649V65.9649C138.646 65.9649 139.184 66.0249 139.592 66.127L139.835 65.1569Z" fill="#FF1595" mask="url(#path-3-inside-1_412_5720)"/>
<g filter="url(#filter1_d_412_5720)">
<rect x="169.56" y="38.8433" width="118.665" height="48.0672" rx="12" fill="#F6339A"/>
<path d="M189.992 63.1329H192.12V67.2769H189.992V63.1329ZM195.368 63.1329H197.496V67.2769H195.368V63.1329ZM187.048 66.9729H200.472V68.7009H187.048V66.9729ZM193.736 56.3329C194.802 56.3329 195.752 56.4982 196.584 56.8289C197.426 57.1595 198.082 57.6235 198.552 58.2209C199.032 58.8075 199.272 59.5062 199.272 60.3169C199.272 61.1169 199.032 61.8155 198.552 62.4129C198.082 62.9995 197.426 63.4582 196.584 63.7889C195.752 64.1195 194.802 64.2849 193.736 64.2849C192.68 64.2849 191.73 64.1195 190.888 63.7889C190.056 63.4582 189.4 62.9995 188.92 62.4129C188.44 61.8155 188.2 61.1169 188.2 60.3169C188.2 59.5062 188.44 58.8075 188.92 58.2209C189.4 57.6235 190.056 57.1595 190.888 56.8289C191.73 56.4982 192.68 56.3329 193.736 56.3329ZM193.736 57.9809C193.053 57.9809 192.45 58.0769 191.928 58.2689C191.416 58.4502 191.016 58.7115 190.728 59.0529C190.44 59.3942 190.296 59.8155 190.296 60.3169C190.296 60.7969 190.44 61.2129 190.728 61.5649C191.016 61.9062 191.416 62.1729 191.928 62.3649C192.45 62.5462 193.053 62.6369 193.736 62.6369C194.429 62.6369 195.032 62.5462 195.544 62.3649C196.066 62.1729 196.466 61.9062 196.744 61.5649C197.032 61.2129 197.176 60.7969 197.176 60.3169C197.176 59.8155 197.032 59.3942 196.744 59.0529C196.466 58.7115 196.066 58.4502 195.544 58.2689C195.032 58.0769 194.429 57.9809 193.736 57.9809ZM203.415 56.2689H212.791V57.9489H203.415V56.2689ZM201.767 61.5969H215.191V63.2769H201.767V61.5969ZM211.511 56.2689H213.607V57.4529C213.607 58.0822 213.591 58.7595 213.559 59.4849C213.527 60.2102 213.399 61.0529 213.175 62.0129L211.047 61.9969C211.281 61.0262 211.415 60.1835 211.447 59.4689C211.489 58.7542 211.511 58.0822 211.511 57.4529V56.2689ZM203.335 64.8289H213.543V70.2689H203.335V64.8289ZM211.463 66.4929H205.431V68.5889H211.463V66.4929ZM227.173 55.5969H229.205V70.4129H227.173V55.5969ZM222.293 60.6689H224.757V62.3969H222.293V60.6689ZM224.181 55.8369H226.165V69.7409H224.181V55.8369ZM219.109 58.0129H220.709V59.5329C220.709 60.3649 220.645 61.1862 220.517 61.9969C220.4 62.8075 220.213 63.5755 219.957 64.3009C219.701 65.0155 219.365 65.6609 218.949 66.2369C218.533 66.8129 218.032 67.2875 217.445 67.6609L216.181 66.0929C216.907 65.6342 217.483 65.0582 217.909 64.3649C218.336 63.6609 218.64 62.8929 218.821 62.0609C219.013 61.2182 219.109 60.3755 219.109 59.5329V58.0129ZM219.589 58.0129H221.173V59.5329C221.173 60.3542 221.264 61.1649 221.445 61.9649C221.627 62.7649 221.925 63.4955 222.341 64.1569C222.757 64.8075 223.323 65.3409 224.037 65.7569L222.805 67.2929C222.016 66.8235 221.387 66.1889 220.917 65.3889C220.448 64.5889 220.107 63.6875 219.893 62.6849C219.691 61.6715 219.589 60.6209 219.589 59.5329V58.0129ZM216.725 57.0849H223.333V58.7969H216.725V57.0849ZM231.204 69.0049V67.7249L234.788 63.7729C235.828 62.6209 236.436 62.0609 236.436 61.0369C236.436 60.0769 235.908 59.6449 234.692 59.6449C233.364 59.6449 232.788 60.1249 232.724 61.5809H230.916C231.044 59.6289 232.564 58.0289 234.692 58.0289C236.868 58.0289 238.308 59.3089 238.308 61.0209C238.308 62.2689 237.716 63.0369 236.548 64.3169L233.684 67.4689H238.484V69.0049H231.204ZM252.786 55.6129H254.914V66.4129H252.786V55.6129ZM245.042 68.4609H255.298V70.1729H245.042V68.4609ZM245.042 65.3729H247.17V69.3409H245.042V65.3729ZM246.082 56.4289H247.842V57.8689C247.842 58.8289 247.688 59.7462 247.378 60.6209C247.08 61.4955 246.621 62.2635 246.002 62.9249C245.384 63.5862 244.594 64.0875 243.634 64.4289L242.546 62.7329C243.378 62.4449 244.05 62.0449 244.562 61.5329C245.085 61.0209 245.469 60.4449 245.714 59.8049C245.96 59.1649 246.082 58.5195 246.082 57.8689V56.4289ZM246.514 56.4289H248.242V57.8689C248.242 58.3489 248.306 58.8235 248.434 59.2929C248.573 59.7515 248.781 60.1889 249.058 60.6049C249.336 61.0102 249.693 61.3782 250.13 61.7089C250.568 62.0395 251.085 62.3009 251.682 62.4929L250.61 64.1729C249.672 63.8635 248.898 63.3942 248.29 62.7649C247.682 62.1355 247.234 61.3995 246.946 60.5569C246.658 59.7142 246.514 58.8182 246.514 57.8689V56.4289ZM260.641 58.2049H262.369V58.7329C262.369 59.5969 262.22 60.4129 261.921 61.1809C261.622 61.9489 261.164 62.6155 260.545 63.1809C259.937 63.7462 259.164 64.1675 258.225 64.4449L257.217 62.7969C258.017 62.5622 258.668 62.2369 259.169 61.8209C259.681 61.3942 260.054 60.9142 260.289 60.3809C260.524 59.8369 260.641 59.2875 260.641 58.7329V58.2049ZM261.041 58.2049H262.769V58.7329C262.769 59.1169 262.833 59.4955 262.961 59.8689C263.1 60.2422 263.308 60.5942 263.585 60.9249C263.873 61.2555 264.236 61.5489 264.673 61.8049C265.11 62.0609 265.622 62.2689 266.209 62.4289L265.249 64.0929C264.31 63.8369 263.526 63.4475 262.897 62.9249C262.278 62.3915 261.814 61.7622 261.505 61.0369C261.196 60.3115 261.041 59.5435 261.041 58.7329V58.2049ZM257.729 57.1329H265.697V58.8129H257.729V57.1329ZM260.641 55.5489H262.769V57.8049H260.641V55.5489ZM265.281 59.5489H268.097V61.2609H265.281V59.5489ZM267.585 55.6129H269.729V64.5569H267.585V55.6129ZM264.705 64.7969C266.273 64.7969 267.51 65.0422 268.417 65.5329C269.324 66.0235 269.777 66.7169 269.777 67.6129C269.777 68.4982 269.324 69.1862 268.417 69.6769C267.51 70.1782 266.273 70.4289 264.705 70.4289C263.137 70.4289 261.9 70.1782 260.993 69.6769C260.086 69.1862 259.633 68.4982 259.633 67.6129C259.633 66.7169 260.086 66.0235 260.993 65.5329C261.9 65.0422 263.137 64.7969 264.705 64.7969ZM264.705 66.4289C264.065 66.4289 263.521 66.4715 263.073 66.5569C262.636 66.6422 262.305 66.7755 262.081 66.9569C261.857 67.1275 261.745 67.3462 261.745 67.6129C261.745 67.8689 261.857 68.0875 262.081 68.2689C262.305 68.4502 262.636 68.5835 263.073 68.6689C263.521 68.7542 264.065 68.7969 264.705 68.7969C265.356 68.7969 265.9 68.7542 266.337 68.6689C266.774 68.5835 267.1 68.4502 267.313 68.2689C267.537 68.0875 267.649 67.8689 267.649 67.6129C267.649 67.3462 267.537 67.1275 267.313 66.9569C267.1 66.7755 266.774 66.6422 266.337 66.5569C265.9 66.4715 265.356 66.4289 264.705 66.4289Z" fill="white"/>
</g>
<defs>
<filter id="filter0_d_412_5720" x="0" y="0" width="342" height="125.053" filterUnits="userSpaceOnUse" color-interpolation-filters="sRGB">
<feFlood flood-opacity="0" result="BackgroundImageFix"/>
<feColorMatrix in="SourceAlpha" type="matrix" values="0 0 0 0 0 0 0 0 0 0 0 0 0 0 0 0 0 0 127 0" result="hardAlpha"/>
<feMorphology radius="3" operator="dilate" in="SourceAlpha" result="effect1_dropShadow_412_5720"/>
<feOffset dx="5"/>
<feGaussianBlur stdDeviation="7.5"/>
<feComposite in2="hardAlpha" operator="out"/>
<feColorMatrix type="matrix" values="0 0 0 0 0 0 0 0 0 0 0 0 0 0 0 0 0 0 0.15 0"/>
<feBlend mode="normal" in2="BackgroundImageFix" result="effect1_dropShadow_412_5720"/>
<feBlend mode="normal" in="SourceGraphic" in2="effect1_dropShadow_412_5720" result="shape"/>
</filter>
<filter id="filter1_d_412_5720" x="165.56" y="38.8433" width="126.665" height="56.0671" filterUnits="userSpaceOnUse" color-interpolation-filters="sRGB">
<feFlood flood-opacity="0" result="BackgroundImageFix"/>
<feColorMatrix in="SourceAlpha" type="matrix" values="0 0 0 0 0 0 0 0 0 0 0 0 0 0 0 0 0 0 127 0" result="hardAlpha"/>
<feOffset dy="4"/>
<feGaussianBlur stdDeviation="2"/>
<feComposite in2="hardAlpha" operator="out"/>
<feColorMatrix type="matrix" values="0 0 0 0 0 0 0 0 0 0 0 0 0 0 0 0 0 0 0.25 0"/>
<feBlend mode="normal" in2="BackgroundImageFix" result="effect1_dropShadow_412_5720"/>
<feBlend mode="normal" in="SourceGraphic" in2="effect1_dropShadow_412_5720" result="shape"/>
</filter>
</defs>
</svg>
