<svg width="337" height="215" viewBox="0 0 337 215" fill="none" xmlns="http://www.w3.org/2000/svg">
<g filter="url(#filter0_d_412_5690)">
<rect x="10" y="15" width="306.306" height="184.922" rx="30" fill="white"/>
<path d="M31.28 33.144H43.36V34.808H31.28V33.144ZM30.656 41.192H44.08V42.888H30.656V41.192ZM36.288 42.696H38.4V46.424H36.288V42.696ZM37.36 35.384C38.9493 35.384 40.192 35.6027 41.088 36.04C41.984 36.4773 42.432 37.1067 42.432 37.928C42.432 38.7493 41.984 39.384 41.088 39.832C40.192 40.2693 38.944 40.488 37.344 40.488C35.7547 40.488 34.512 40.2693 33.616 39.832C32.72 39.384 32.272 38.7493 32.272 37.928C32.272 37.1067 32.72 36.4773 33.616 36.04C34.512 35.6027 35.76 35.384 37.36 35.384ZM37.344 36.968C36.384 36.968 35.664 37.0427 35.184 37.192C34.7147 37.3413 34.48 37.5867 34.48 37.928C34.48 38.2587 34.7147 38.504 35.184 38.664C35.664 38.824 36.384 38.904 37.344 38.904C38.3147 38.904 39.0347 38.824 39.504 38.664C39.984 38.504 40.224 38.2587 40.224 37.928C40.224 37.5867 39.984 37.3413 39.504 37.192C39.0347 37.0427 38.3147 36.968 37.344 36.968ZM36.288 31.592H38.4V34.248H36.288V31.592ZM55.5828 31.592H57.7108V46.408H55.5828V31.592ZM51.2148 33.128H53.3108C53.3108 34.2587 53.1988 35.3413 52.9748 36.376C52.7614 37.4 52.3988 38.3653 51.8868 39.272C51.3854 40.1787 50.6921 41.0213 49.8068 41.8C48.9321 42.568 47.8388 43.272 46.5268 43.912L45.4068 42.232C46.8361 41.5387 47.9721 40.776 48.8148 39.944C49.6681 39.1013 50.2814 38.152 50.6548 37.096C51.0281 36.0293 51.2148 34.8347 51.2148 33.512V33.128ZM46.2068 33.128H52.2068V34.824H46.2068V33.128ZM60.0935 43.064H73.5175V44.792H60.0935V43.064ZM65.7255 40.248H67.8375V43.752H65.7255V40.248ZM61.6135 32.552H71.9975V37.496H63.7415V39.976H61.6295V35.832H69.8855V34.248H61.6135V32.552ZM61.6295 39.144H72.3335V40.84H61.6295V39.144ZM78.0154 42.968H91.4394V44.696H78.0154V42.968ZM83.6474 39.8H85.7594V43.384H83.6474V39.8ZM79.4234 32.536H81.5514V34.824H87.8554V32.536H89.9674V40.248H79.4234V32.536ZM81.5514 36.488V38.552H87.8554V36.488H81.5514ZM94.3821 35.592H104.654V37.288H94.3821V35.592ZM92.7341 38.824H106.142V40.52H92.7341V38.824ZM94.3821 32.12H96.5101V36.44H94.3821V32.12ZM94.2541 44.392H104.734V46.104H94.2541V44.392ZM94.2541 41.688H96.3821V44.856H94.2541V41.688ZM113.6 39.128H115.728V43.272H113.6V39.128ZM118.976 39.128H121.104V43.272H118.976V39.128ZM110.656 42.968H124.08V44.696H110.656V42.968ZM117.344 32.328C118.411 32.328 119.36 32.4933 120.192 32.824C121.035 33.1547 121.691 33.6187 122.16 34.216C122.64 34.8027 122.88 35.5013 122.88 36.312C122.88 37.112 122.64 37.8107 122.16 38.408C121.691 38.9947 121.035 39.4533 120.192 39.784C119.36 40.1147 118.411 40.28 117.344 40.28C116.288 40.28 115.339 40.1147 114.496 39.784C113.664 39.4533 113.008 38.9947 112.528 38.408C112.048 37.8107 111.808 37.112 111.808 36.312C111.808 35.5013 112.048 34.8027 112.528 34.216C113.008 33.6187 113.664 33.1547 114.496 32.824C115.339 32.4933 116.288 32.328 117.344 32.328ZM117.344 33.976C116.661 33.976 116.059 34.072 115.536 34.264C115.024 34.4453 114.624 34.7067 114.336 35.048C114.048 35.3893 113.904 35.8107 113.904 36.312C113.904 36.792 114.048 37.208 114.336 37.56C114.624 37.9013 115.024 38.168 115.536 38.36C116.059 38.5413 116.661 38.632 117.344 38.632C118.037 38.632 118.64 38.5413 119.152 38.36C119.675 38.168 120.075 37.9013 120.352 37.56C120.64 37.208 120.784 36.792 120.784 36.312C120.784 35.8107 120.64 35.3893 120.352 35.048C120.075 34.7067 119.675 34.4453 119.152 34.264C118.64 34.072 118.037 33.976 117.344 33.976ZM127.023 32.264H136.399V33.944H127.023V32.264ZM125.375 37.592H138.799V39.272H125.375V37.592ZM135.119 32.264H137.215V33.448C137.215 34.0773 137.199 34.7547 137.167 35.48C137.135 36.2053 137.007 37.048 136.783 38.008L134.655 37.992C134.889 37.0213 135.023 36.1787 135.055 35.464C135.097 34.7493 135.119 34.0773 135.119 33.448V32.264ZM126.943 40.824H137.151V46.264H126.943V40.824ZM135.071 42.488H129.039V44.584H135.071V42.488ZM150.782 31.592H152.814V46.408H150.782V31.592ZM145.902 36.664H148.366V38.392H145.902V36.664ZM147.79 31.832H149.774V45.736H147.79V31.832ZM142.718 34.008H144.318V35.528C144.318 36.36 144.254 37.1813 144.126 37.992C144.008 38.8027 143.822 39.5707 143.566 40.296C143.31 41.0107 142.974 41.656 142.558 42.232C142.142 42.808 141.64 43.2827 141.054 43.656L139.79 42.088C140.515 41.6293 141.091 41.0533 141.518 40.36C141.944 39.656 142.248 38.888 142.43 38.056C142.622 37.2133 142.718 36.3707 142.718 35.528V34.008ZM143.198 34.008H144.782V35.528C144.782 36.3493 144.872 37.16 145.054 37.96C145.235 38.76 145.534 39.4907 145.95 40.152C146.366 40.8027 146.931 41.336 147.646 41.752L146.414 43.288C145.624 42.8187 144.995 42.184 144.526 41.384C144.056 40.584 143.715 39.6827 143.502 38.68C143.299 37.6667 143.198 36.616 143.198 35.528V34.008ZM140.334 33.08H146.942V34.792H140.334V33.08Z" fill="black"/>
<g filter="url(#filter1_d_412_5690)">
<path d="M30.0239 74.7114C30.0239 63.6657 38.9782 54.7114 50.0239 54.7114H276.037C287.083 54.7114 296.037 63.6657 296.037 74.7114V164.442C296.037 175.488 287.083 184.442 276.037 184.442H50.0239C38.9782 184.442 30.0239 175.488 30.0239 164.442V74.7114Z" fill="white"/>
</g>
<path d="M30.0239 74.7114C30.0239 63.6657 38.9782 54.7114 50.0239 54.7114H276.037C287.083 54.7114 296.037 63.6657 296.037 74.7114V86.3967H30.0239V74.7114Z" fill="url(#paint0_linear_412_5690)" stroke="url(#paint1_linear_412_5690)"/>
<path d="M49.9281 64.6792H51.8881C51.8881 65.8272 51.6501 66.8539 51.1741 67.7592C50.6981 68.6552 50.0121 69.4159 49.1161 70.0412C48.2201 70.6572 47.1234 71.1332 45.8261 71.4692L45.1261 69.9992C46.1994 69.7379 47.0908 69.3879 47.8001 68.9492C48.5094 68.5105 49.0414 68.0065 49.3961 67.4372C49.7508 66.8585 49.9281 66.2519 49.9281 65.6172V64.6792ZM45.8681 64.6792H51.1321V66.1492H45.8681V64.6792ZM53.9741 63.9372H55.8361V71.1612H53.9741V63.9372ZM47.2541 71.7212H55.8361V76.7752H47.2541V71.7212ZM54.0021 73.1772H49.0881V75.3052H54.0021V73.1772ZM60.945 71.0212H59.699L59.797 69.5372L58.579 70.3492L57.977 69.2852L59.279 68.6412L57.977 67.9972L58.579 66.9192L59.797 67.7312L59.699 66.2612H60.945L60.847 67.7312L62.065 66.9192L62.681 67.9972L61.379 68.6412L62.681 69.2852L62.065 70.3492L60.847 69.5372L60.945 71.0212ZM70.4496 66.3592H73.0956V67.8712H70.4496V66.3592ZM66.7956 64.6092H68.3216V65.8272C68.3216 66.6859 68.1909 67.4932 67.9296 68.2492C67.6776 68.9959 67.2856 69.6492 66.7536 70.2092C66.2309 70.7692 65.5589 71.1892 64.7376 71.4692L63.7436 70.0132C64.4716 69.7705 65.0596 69.4345 65.5076 69.0052C65.9556 68.5665 66.2822 68.0765 66.4876 67.5352C66.6929 66.9845 66.7956 66.4152 66.7956 65.8272V64.6092ZM67.1736 64.6092H68.6856V65.9392C68.6856 66.3405 68.7416 66.7372 68.8536 67.1292C68.9656 67.5119 69.1382 67.8759 69.3716 68.2212C69.6049 68.5665 69.9036 68.8745 70.2676 69.1452C70.6316 69.4159 71.0702 69.6352 71.5836 69.8032L70.6036 71.2592C69.8289 70.9885 69.1849 70.5872 68.6716 70.0552C68.1676 69.5232 67.7896 68.9072 67.5376 68.2072C67.2949 67.4979 67.1736 66.7419 67.1736 65.9392V64.6092ZM65.8436 72.2392H74.6916V76.9152H72.8156V73.7232H65.8436V72.2392ZM72.8156 63.9512H74.6916V71.6652H72.8156V63.9512Z" fill="white"/>
<path d="M253.428 75.6692V74.5492L256.564 71.0912C257.474 70.0832 258.006 69.5932 258.006 68.6972C258.006 67.8572 257.544 67.4792 256.48 67.4792C255.318 67.4792 254.814 67.8992 254.758 69.1732H253.176C253.288 67.4652 254.618 66.0652 256.48 66.0652C258.384 66.0652 259.644 67.1852 259.644 68.6832C259.644 69.7752 259.126 70.4472 258.104 71.5672L255.598 74.3252H259.798V75.6692H253.428ZM263.969 75.8652C261.757 75.8652 260.357 73.8772 260.357 70.9512C260.357 68.0532 261.757 66.0652 263.969 66.0652C266.195 66.0652 267.595 68.0532 267.595 70.9512C267.595 73.8772 266.195 75.8652 263.969 75.8652ZM263.969 74.4512C265.495 74.4512 266.013 73.5132 266.013 70.9512C266.013 68.4172 265.495 67.4792 263.969 67.4792C262.443 67.4792 261.939 68.4172 261.939 70.9512C261.939 73.5132 262.443 74.4512 263.969 74.4512ZM277.97 63.9372H279.748V76.9012H277.97V63.9372ZM276.248 68.9352H278.404V70.4332H276.248V68.9352ZM275.072 64.1612H276.794V76.2992H275.072V64.1612ZM268.982 72.4492H269.878C270.419 72.4492 270.933 72.4445 271.418 72.4352C271.903 72.4165 272.384 72.3839 272.86 72.3372C273.345 72.2812 273.84 72.2112 274.344 72.1272L274.498 73.6392C273.975 73.7325 273.467 73.8072 272.972 73.8632C272.477 73.9192 271.978 73.9565 271.474 73.9752C270.97 73.9845 270.438 73.9892 269.878 73.9892H268.982V72.4492ZM268.982 65.4492H273.756V66.9472H270.816V73.1912H268.982V65.4492Z" fill="white"/>
<path d="M45.8547 171.826V171.166L48.6147 168.082C49.5387 167.05 49.9947 166.63 49.9947 165.79C49.9947 164.878 49.5147 164.422 48.3507 164.422C47.1267 164.422 46.5627 164.962 46.5027 166.102H45.6627C45.7827 164.758 46.8507 163.63 48.3507 163.63C49.7907 163.63 50.8587 164.53 50.8587 165.754C50.8587 166.738 50.3307 167.314 49.4787 168.262L46.9707 171.082H51.0507V171.826H45.8547ZM51.9867 168.262L52.3107 163.762H56.7387V164.518H53.0787L52.8627 167.362C53.2707 166.882 53.8707 166.618 54.6507 166.618C56.1507 166.618 57.1827 167.662 57.1827 169.27C57.1827 170.842 56.0787 171.958 54.4467 171.958C53.0667 171.958 52.1907 171.226 51.8427 169.942H52.6827C52.8987 170.734 53.4027 171.178 54.4467 171.178C55.7787 171.178 56.3667 170.554 56.3667 169.294C56.3667 168.046 55.8147 167.374 54.4587 167.374C53.5827 167.374 53.0787 167.614 52.7907 168.262H51.9867ZM58.2878 171.958C57.8798 171.958 57.7958 171.862 57.7958 171.418C57.7958 170.998 57.8798 170.89 58.2878 170.89C58.6838 170.89 58.7798 170.998 58.7798 171.418C58.7798 171.862 58.6838 171.958 58.2878 171.958ZM62.046 171.958C60.282 171.958 59.142 170.29 59.142 167.782C59.142 165.298 60.282 163.63 62.046 163.63C63.81 163.63 64.95 165.298 64.95 167.782C64.95 170.29 63.81 171.958 62.046 171.958ZM62.046 171.166C63.522 171.166 64.086 170.146 64.086 167.782C64.086 165.442 63.522 164.422 62.046 164.422C60.57 164.422 60.006 165.442 60.006 167.782C60.006 170.146 60.57 171.166 62.046 171.166ZM68.476 171.946C66.76 171.946 65.728 170.902 65.728 169.318C65.728 168.25 66.136 167.554 66.772 166.606L68.692 163.75H69.676L67.552 166.858C67.84 166.726 68.14 166.618 68.656 166.606C70.192 166.558 71.236 167.614 71.236 169.27C71.236 170.926 70.204 171.946 68.476 171.946ZM66.58 169.246C66.58 170.662 67.228 171.166 68.476 171.166C69.724 171.166 70.384 170.662 70.384 169.246C70.384 167.83 69.724 167.326 68.476 167.326C67.228 167.326 66.58 167.83 66.58 169.246ZM72.2683 171.958C71.8603 171.958 71.7763 171.862 71.7763 171.418C71.7763 170.998 71.8603 170.89 72.2683 170.89C72.6643 170.89 72.7603 170.998 72.7603 171.418C72.7603 171.862 72.6643 171.958 72.2683 171.958ZM75.4265 171.826H74.5865V164.734L72.8825 166.282V165.322L74.5865 163.762H75.4265V171.826ZM79.1179 171.826H78.2779V164.734L76.5739 166.282V165.322L78.2779 163.762H79.1179V171.826Z" fill="#3F3F47"/>
<path d="M53.0319 117.597H54.0279V128.445H53.0319V117.597ZM53.7639 122.001H55.7559V122.829H53.7639V122.001ZM50.2599 118.761H51.2319C51.2319 119.793 51.0639 120.781 50.7279 121.725C50.3919 122.661 49.8639 123.529 49.1439 124.329C48.4239 125.121 47.4759 125.809 46.2999 126.393L45.7479 125.625C46.7559 125.121 47.5919 124.533 48.2559 123.861C48.9279 123.181 49.4279 122.429 49.7559 121.605C50.0919 120.773 50.2599 119.877 50.2599 118.917V118.761ZM46.2519 118.761H50.7639V119.589H46.2519V118.761ZM61.359 118.329H62.403C62.403 119.249 62.195 120.077 61.779 120.813C61.363 121.549 60.771 122.181 60.003 122.709C59.243 123.237 58.335 123.645 57.279 123.933L56.895 123.141C57.823 122.885 58.619 122.545 59.283 122.121C59.955 121.689 60.467 121.193 60.819 120.633C61.179 120.065 61.359 119.445 61.359 118.773V118.329ZM57.447 118.329H61.959V119.145H57.447V118.329ZM58.407 124.557H65.655V128.433H64.659V125.361H58.407V124.557ZM64.659 117.609H65.655V124.077H64.659V117.609ZM61.959 119.541H64.863V120.345H61.959V119.541ZM61.839 121.833H64.779V122.649H61.839V121.833ZM78.4244 117.597H79.3724V128.457H78.4244V117.597ZM76.5884 121.953H78.6764V122.769H76.5884V121.953ZM75.9644 117.837H76.8884V127.893H75.9644V117.837ZM70.5524 124.941H71.2604C71.7964 124.941 72.2804 124.937 72.7124 124.929C73.1524 124.913 73.5684 124.881 73.9604 124.833C74.3604 124.785 74.7684 124.717 75.1844 124.629L75.2804 125.457C74.8484 125.545 74.4284 125.613 74.0204 125.661C73.6204 125.709 73.1964 125.741 72.7484 125.757C72.3084 125.773 71.8124 125.781 71.2604 125.781H70.5524V124.941ZM70.5524 118.917H74.5844V119.733H71.5484V125.325H70.5524V118.917ZM89.0914 117.597H90.0874V128.469H89.0914V117.597ZM81.8194 118.521H82.8154V121.377H85.9474V118.521H86.9314V125.853H81.8194V118.521ZM82.8154 122.169V125.025H85.9474V122.169H82.8154ZM102.917 117.597H103.877V128.457H102.917V117.597ZM100.913 117.837H101.849V127.917H100.913V117.837ZM99.4248 121.269H101.357V122.085H99.4248V121.269ZM99.3408 123.753H101.273V124.557H99.3408V123.753ZM94.6248 119.457H99.9648V120.273H94.6248V119.457ZM97.2768 121.005C97.7248 121.005 98.1168 121.113 98.4528 121.329C98.7968 121.537 99.0648 121.829 99.2568 122.205C99.4568 122.581 99.5568 123.017 99.5568 123.513C99.5568 124.001 99.4568 124.437 99.2568 124.821C99.0648 125.197 98.7968 125.493 98.4528 125.709C98.1168 125.917 97.7248 126.021 97.2768 126.021C96.8448 126.021 96.4568 125.917 96.1128 125.709C95.7688 125.493 95.4968 125.197 95.2968 124.821C95.1048 124.437 95.0088 124.001 95.0088 123.513C95.0088 123.017 95.1048 122.581 95.2968 122.205C95.4968 121.829 95.7688 121.537 96.1128 121.329C96.4568 121.113 96.8448 121.005 97.2768 121.005ZM97.2768 121.857C97.0128 121.857 96.7768 121.929 96.5688 122.073C96.3608 122.209 96.1928 122.401 96.0648 122.649C95.9448 122.897 95.8848 123.185 95.8848 123.513C95.8848 123.833 95.9448 124.121 96.0648 124.377C96.1928 124.625 96.3608 124.821 96.5688 124.965C96.7768 125.101 97.0128 125.169 97.2768 125.169C97.5568 125.169 97.8008 125.101 98.0088 124.965C98.2168 124.821 98.3808 124.625 98.5008 124.377C98.6208 124.121 98.6808 123.833 98.6808 123.513C98.6808 123.185 98.6208 122.897 98.5008 122.649C98.3808 122.401 98.2168 122.209 98.0088 122.073C97.8008 121.929 97.5568 121.857 97.2768 121.857ZM96.8088 117.885H97.7928V119.925H96.8088V117.885ZM106.156 122.793H106.84C107.416 122.793 107.92 122.789 108.352 122.781C108.792 122.765 109.204 122.737 109.588 122.697C109.972 122.649 110.364 122.585 110.764 122.505L110.872 123.321C110.456 123.401 110.048 123.465 109.648 123.513C109.256 123.553 108.836 123.581 108.388 123.597C107.94 123.613 107.424 123.621 106.84 123.621H106.156V122.793ZM106.156 118.389H110.344V119.205H107.116V123.237H106.156V118.389ZM106.816 120.549H110.224V121.329H106.816V120.549ZM113.884 117.609H114.832V124.185H113.884V117.609ZM112.132 120.429H114.172V121.245H112.132V120.429ZM111.484 117.813H112.42V124.113H111.484V117.813ZM107.56 124.749H114.832V128.457H113.848V125.565H107.56V124.749ZM124.611 117.597H125.607V128.469H124.611V117.597ZM119.883 118.437C120.419 118.437 120.891 118.593 121.299 118.905C121.715 119.209 122.039 119.645 122.271 120.213C122.511 120.781 122.631 121.449 122.631 122.217C122.631 122.985 122.511 123.653 122.271 124.221C122.039 124.789 121.715 125.229 121.299 125.541C120.891 125.853 120.419 126.009 119.883 126.009C119.347 126.009 118.871 125.853 118.455 125.541C118.039 125.229 117.711 124.789 117.471 124.221C117.239 123.653 117.123 122.985 117.123 122.217C117.123 121.449 117.239 120.781 117.471 120.213C117.711 119.645 118.039 119.209 118.455 118.905C118.871 118.593 119.347 118.437 119.883 118.437ZM119.883 119.325C119.523 119.325 119.207 119.445 118.935 119.685C118.671 119.917 118.463 120.253 118.311 120.693C118.159 121.125 118.083 121.633 118.083 122.217C118.083 122.801 118.159 123.313 118.311 123.753C118.463 124.185 118.671 124.521 118.935 124.761C119.207 125.001 119.523 125.121 119.883 125.121C120.235 125.121 120.543 125.001 120.807 124.761C121.079 124.521 121.291 124.185 121.443 123.753C121.595 123.313 121.671 122.801 121.671 122.217C121.671 121.633 121.595 121.125 121.443 120.693C121.291 120.253 121.079 119.917 120.807 119.685C120.543 119.445 120.235 119.325 119.883 119.325ZM137.596 117.597H138.592V123.141H137.596V117.597ZM138.16 120.045H140.188V120.873H138.16V120.045ZM130.612 118.317H135.604V122.745H130.612V118.317ZM134.632 119.109H131.584V121.941H134.632V119.109ZM131.296 127.353H131.824C132.04 127.353 132.292 127.345 132.58 127.329C132.868 127.305 133.172 127.269 133.492 127.221C133.812 127.165 134.128 127.085 134.44 126.981L134.596 127.773C134.252 127.885 133.912 127.969 133.576 128.025C133.248 128.081 132.936 128.117 132.64 128.133C132.344 128.157 132.072 128.169 131.824 128.169H131.296V127.353ZM131.296 124.125H132.268V127.569H131.296V124.125ZM134.212 124.245H139.648V124.989H134.212V124.245ZM136.936 125.385C137.528 125.385 138.008 125.525 138.376 125.805C138.752 126.077 138.94 126.445 138.94 126.909C138.94 127.381 138.752 127.753 138.376 128.025C138.008 128.297 137.528 128.433 136.936 128.433C136.344 128.433 135.86 128.297 135.484 128.025C135.108 127.753 134.92 127.381 134.92 126.909C134.92 126.445 135.108 126.077 135.484 125.805C135.86 125.525 136.344 125.385 136.936 125.385ZM136.936 126.093C136.608 126.093 136.336 126.169 136.12 126.321C135.912 126.465 135.808 126.661 135.808 126.909C135.808 127.157 135.912 127.357 136.12 127.509C136.336 127.661 136.608 127.737 136.936 127.737C137.264 127.737 137.532 127.661 137.74 127.509C137.948 127.357 138.052 127.157 138.052 126.909C138.052 126.661 137.948 126.465 137.74 126.321C137.532 126.169 137.264 126.093 136.936 126.093ZM136.456 123.285H137.428V124.773H136.456V123.285ZM144.087 118.437C144.623 118.437 145.095 118.593 145.503 118.905C145.911 119.209 146.231 119.645 146.463 120.213C146.695 120.781 146.811 121.449 146.811 122.217C146.811 122.985 146.695 123.653 146.463 124.221C146.231 124.789 145.911 125.229 145.503 125.541C145.095 125.853 144.623 126.009 144.087 126.009C143.559 126.009 143.087 125.853 142.671 125.541C142.263 125.229 141.943 124.789 141.711 124.221C141.479 123.653 141.363 122.985 141.363 122.217C141.363 121.449 141.479 120.781 141.711 120.213C141.943 119.645 142.263 119.209 142.671 118.905C143.087 118.593 143.559 118.437 144.087 118.437ZM144.087 119.325C143.743 119.325 143.435 119.445 143.163 119.685C142.899 119.917 142.691 120.253 142.539 120.693C142.387 121.125 142.311 121.633 142.311 122.217C142.311 122.801 142.387 123.313 142.539 123.753C142.691 124.185 142.899 124.521 143.163 124.761C143.435 125.001 143.747 125.121 144.099 125.121C144.443 125.121 144.747 125.001 145.011 124.761C145.283 124.521 145.491 124.185 145.635 123.753C145.787 123.313 145.863 122.801 145.863 122.217C145.863 121.633 145.787 121.125 145.635 120.693C145.491 120.253 145.283 119.917 145.011 119.685C144.747 119.445 144.439 119.325 144.087 119.325ZM148.551 117.597H149.547V128.457H148.551V117.597ZM149.319 121.929H151.323V122.769H149.319V121.929ZM157.67 121.281H160.682V122.097H157.67V121.281ZM155.042 118.533H155.858V120.477C155.858 121.077 155.782 121.669 155.63 122.253C155.486 122.837 155.278 123.381 155.006 123.885C154.734 124.389 154.414 124.837 154.046 125.229C153.686 125.621 153.29 125.933 152.858 126.165L152.234 125.361C152.634 125.169 153.002 124.901 153.338 124.557C153.682 124.213 153.982 123.821 154.238 123.381C154.494 122.933 154.69 122.465 154.826 121.977C154.97 121.481 155.042 120.981 155.042 120.477V118.533ZM155.246 118.533H156.05V120.477C156.05 120.965 156.118 121.449 156.254 121.929C156.398 122.409 156.598 122.861 156.854 123.285C157.11 123.701 157.406 124.073 157.742 124.401C158.086 124.729 158.454 124.985 158.846 125.169L158.246 125.973C157.814 125.749 157.414 125.449 157.046 125.073C156.678 124.697 156.358 124.265 156.086 123.777C155.822 123.289 155.614 122.765 155.462 122.205C155.318 121.645 155.246 121.069 155.246 120.477V118.533ZM160.19 117.597H161.174V128.469H160.19V117.597ZM173.032 117.597H174.028V128.445H173.032V117.597ZM173.764 122.001H175.756V122.829H173.764V122.001ZM170.26 118.761H171.232C171.232 119.793 171.064 120.781 170.728 121.725C170.392 122.661 169.864 123.529 169.144 124.329C168.424 125.121 167.476 125.809 166.3 126.393L165.748 125.625C166.756 125.121 167.592 124.533 168.256 123.861C168.928 123.181 169.428 122.429 169.756 121.605C170.092 120.773 170.26 119.877 170.26 118.917V118.761ZM166.252 118.761H170.764V119.589H166.252V118.761ZM179.463 118.209H180.291V119.325C180.291 120.029 180.163 120.677 179.907 121.269C179.659 121.861 179.307 122.381 178.851 122.829C178.403 123.269 177.867 123.605 177.243 123.837L176.715 123.033C177.275 122.833 177.759 122.549 178.167 122.181C178.575 121.813 178.891 121.385 179.115 120.897C179.347 120.401 179.463 119.877 179.463 119.325V118.209ZM179.643 118.209H180.447V119.289C180.447 119.801 180.559 120.285 180.783 120.741C181.007 121.197 181.315 121.601 181.707 121.953C182.107 122.297 182.571 122.557 183.099 122.733L182.559 123.513C181.975 123.289 181.463 122.973 181.023 122.565C180.583 122.157 180.243 121.673 180.003 121.113C179.763 120.553 179.643 119.945 179.643 119.289V118.209ZM184.659 117.597H185.655V124.017H184.659V117.597ZM182.079 124.341C183.199 124.341 184.079 124.521 184.719 124.881C185.367 125.241 185.691 125.745 185.691 126.393C185.691 127.033 185.367 127.533 184.719 127.893C184.079 128.253 183.199 128.433 182.079 128.433C180.959 128.433 180.075 128.253 179.427 127.893C178.787 127.533 178.467 127.033 178.467 126.393C178.467 125.745 178.787 125.241 179.427 124.881C180.075 124.521 180.959 124.341 182.079 124.341ZM182.079 125.133C181.535 125.133 181.067 125.185 180.675 125.289C180.283 125.385 179.979 125.529 179.763 125.721C179.555 125.905 179.451 126.129 179.451 126.393C179.451 126.649 179.555 126.873 179.763 127.065C179.979 127.249 180.283 127.393 180.675 127.497C181.067 127.593 181.535 127.641 182.079 127.641C182.631 127.641 183.099 127.593 183.483 127.497C183.875 127.393 184.175 127.249 184.383 127.065C184.599 126.873 184.707 126.649 184.707 126.393C184.707 126.129 184.599 125.905 184.383 125.721C184.175 125.529 183.875 125.385 183.483 125.289C183.099 125.185 182.631 125.133 182.079 125.133ZM182.295 119.889H184.863V120.717H182.295V119.889ZM195.65 117.597H196.646V128.469H195.65V117.597ZM188.378 118.521H189.374V121.377H192.506V118.521H193.49V125.853H188.378V118.521ZM189.374 122.169V125.025H192.506V122.169H189.374ZM205.611 120.825H206.595V122.481H205.611V120.825ZM205.467 118.269H206.331V118.593C206.331 118.921 206.255 119.225 206.103 119.505C205.959 119.785 205.751 120.037 205.479 120.261C205.207 120.485 204.891 120.681 204.531 120.849C204.179 121.017 203.791 121.157 203.367 121.269C202.943 121.373 202.503 121.445 202.047 121.485L201.723 120.729C202.115 120.697 202.491 120.641 202.851 120.561C203.219 120.473 203.563 120.365 203.883 120.237C204.203 120.109 204.479 119.961 204.711 119.793C204.951 119.625 205.135 119.441 205.263 119.241C205.399 119.041 205.467 118.825 205.467 118.593V118.269ZM205.899 118.269H206.751V118.593C206.751 118.825 206.819 119.041 206.955 119.241C207.091 119.441 207.275 119.625 207.507 119.793C207.739 119.961 208.015 120.109 208.335 120.237C208.655 120.365 208.995 120.473 209.355 120.561C209.723 120.641 210.103 120.697 210.495 120.729L210.171 121.485C209.723 121.445 209.287 121.373 208.863 121.269C208.439 121.157 208.047 121.017 207.687 120.849C207.327 120.681 207.011 120.485 206.739 120.261C206.475 120.037 206.267 119.789 206.115 119.517C205.971 119.237 205.899 118.929 205.899 118.593V118.269ZM202.107 117.933H210.123V118.725H202.107V117.933ZM202.119 124.341H210.099V125.121H202.119V124.341ZM201.195 122.097H211.035V122.913H201.195V122.097ZM206.103 125.649C207.151 125.649 207.955 125.769 208.515 126.009C209.083 126.249 209.367 126.605 209.367 127.077C209.367 127.549 209.083 127.905 208.515 128.145C207.955 128.393 207.151 128.517 206.103 128.517C205.063 128.517 204.259 128.393 203.691 128.145C203.131 127.905 202.851 127.549 202.851 127.077C202.851 126.605 203.131 126.249 203.691 126.009C204.259 125.769 205.063 125.649 206.103 125.649ZM206.103 126.345C205.391 126.345 204.839 126.409 204.447 126.537C204.055 126.657 203.859 126.837 203.859 127.077C203.859 127.325 204.055 127.513 204.447 127.641C204.839 127.769 205.391 127.833 206.103 127.833C206.823 127.833 207.375 127.769 207.759 127.641C208.151 127.513 208.347 127.325 208.347 127.077C208.347 126.837 208.151 126.657 207.759 126.537C207.375 126.409 206.823 126.345 206.103 126.345ZM205.611 123.333H206.607V124.845H205.611V123.333ZM212.246 123.309H222.05V124.113H212.246V123.309ZM213.506 127.401H220.958V128.217H213.506V127.401ZM213.506 125.073H214.502V127.641H213.506V125.073ZM217.142 117.969C217.918 117.969 218.59 118.057 219.158 118.233C219.734 118.401 220.178 118.649 220.49 118.977C220.802 119.297 220.958 119.681 220.958 120.129C220.958 120.577 220.802 120.965 220.49 121.293C220.178 121.621 219.734 121.873 219.158 122.049C218.59 122.217 217.918 122.301 217.142 122.301C216.366 122.301 215.69 122.217 215.114 122.049C214.546 121.873 214.106 121.621 213.794 121.293C213.482 120.965 213.326 120.577 213.326 120.129C213.326 119.681 213.482 119.297 213.794 118.977C214.106 118.649 214.546 118.401 215.114 118.233C215.69 118.057 216.366 117.969 217.142 117.969ZM217.142 118.773C216.582 118.773 216.09 118.829 215.666 118.941C215.25 119.045 214.926 119.201 214.694 119.409C214.462 119.609 214.346 119.849 214.346 120.129C214.346 120.409 214.462 120.653 214.694 120.861C214.926 121.061 215.25 121.217 215.666 121.329C216.09 121.433 216.582 121.485 217.142 121.485C217.718 121.485 218.214 121.433 218.63 121.329C219.046 121.217 219.366 121.061 219.59 120.861C219.822 120.653 219.938 120.409 219.938 120.129C219.938 119.849 219.822 119.609 219.59 119.409C219.366 119.201 219.046 119.045 218.63 118.941C218.214 118.829 217.718 118.773 217.142 118.773ZM228.1 123.189H229.084V126.429H228.1V123.189ZM232.108 123.189H233.104V126.429H232.108V123.189ZM225.688 126.237H235.528V127.065H225.688V126.237ZM230.584 118.281C231.352 118.281 232.032 118.397 232.624 118.629C233.216 118.861 233.68 119.185 234.016 119.601C234.36 120.017 234.532 120.509 234.532 121.077C234.532 121.637 234.36 122.129 234.016 122.553C233.68 122.969 233.216 123.293 232.624 123.525C232.032 123.749 231.352 123.861 230.584 123.861C229.824 123.861 229.144 123.749 228.544 123.525C227.952 123.293 227.488 122.969 227.152 122.553C226.816 122.129 226.648 121.637 226.648 121.077C226.648 120.509 226.816 120.017 227.152 119.601C227.488 119.185 227.952 118.861 228.544 118.629C229.144 118.397 229.824 118.281 230.584 118.281ZM230.584 119.073C230.008 119.073 229.496 119.157 229.048 119.325C228.6 119.493 228.248 119.729 227.992 120.033C227.736 120.329 227.608 120.677 227.608 121.077C227.608 121.477 227.736 121.829 227.992 122.133C228.248 122.429 228.6 122.661 229.048 122.829C229.496 122.997 230.008 123.081 230.584 123.081C231.168 123.081 231.684 122.997 232.132 122.829C232.58 122.661 232.932 122.429 233.188 122.133C233.444 121.829 233.572 121.477 233.572 121.077C233.572 120.677 233.444 120.329 233.188 120.033C232.932 119.729 232.58 119.493 232.132 119.325C231.684 119.157 231.168 119.073 230.584 119.073ZM237.975 118.173H244.959V118.989H237.975V118.173ZM236.727 122.169H246.567V122.985H236.727V122.169ZM244.311 118.173H245.295V118.977C245.295 119.433 245.279 119.937 245.247 120.489C245.215 121.041 245.111 121.697 244.935 122.457L243.951 122.397C244.127 121.661 244.231 121.021 244.263 120.477C244.295 119.925 244.311 119.425 244.311 118.977V118.173ZM237.939 124.461H245.331V128.313H237.939V124.461ZM244.347 125.253H238.911V127.497H244.347V125.253ZM256.022 117.597H256.97V128.457H256.022V117.597ZM252.062 121.497H254.15V122.313H252.062V121.497ZM253.85 117.849H254.786V127.893H253.85V117.849ZM249.986 119.289H250.754V120.669C250.754 121.261 250.698 121.841 250.586 122.409C250.474 122.969 250.31 123.497 250.094 123.993C249.878 124.481 249.614 124.925 249.302 125.325C248.99 125.717 248.638 126.037 248.246 126.285L247.634 125.541C248.138 125.237 248.562 124.829 248.906 124.317C249.258 123.805 249.526 123.233 249.71 122.601C249.894 121.969 249.986 121.325 249.986 120.669V119.289ZM250.19 119.289H250.946V120.669C250.946 121.293 251.034 121.905 251.21 122.505C251.394 123.105 251.654 123.649 251.99 124.137C252.334 124.617 252.754 125.001 253.25 125.289L252.65 126.033C252.122 125.705 251.674 125.269 251.306 124.725C250.946 124.173 250.67 123.549 250.478 122.853C250.286 122.149 250.19 121.421 250.19 120.669V119.289ZM247.934 118.869H252.89V119.685H247.934V118.869ZM258.793 122.637H268.633V123.405H258.793V122.637ZM259.969 124.269H267.409V126.585H260.977V127.857H259.993V125.901H266.425V124.989H259.969V124.269ZM259.993 127.593H267.757V128.313H259.993V127.593ZM260.041 117.921H267.373V120.177H261.049V121.353H260.065V119.505H266.389V118.629H260.041V117.921ZM260.065 121.113H267.565V121.833H260.065V121.113ZM274.958 119.385H275.762V119.853C275.762 120.469 275.634 121.037 275.378 121.557C275.13 122.077 274.778 122.529 274.322 122.913C273.866 123.297 273.334 123.589 272.726 123.789L272.246 122.997C272.782 122.829 273.254 122.589 273.662 122.277C274.07 121.965 274.386 121.601 274.61 121.185C274.842 120.769 274.958 120.325 274.958 119.853V119.385ZM275.126 119.385H275.942V119.853C275.942 120.285 276.05 120.697 276.266 121.089C276.49 121.473 276.802 121.817 277.202 122.121C277.602 122.417 278.066 122.645 278.594 122.805L278.138 123.573C277.53 123.389 276.998 123.117 276.542 122.757C276.094 122.389 275.746 121.957 275.498 121.461C275.25 120.965 275.126 120.429 275.126 119.853V119.385ZM272.546 118.857H278.342V119.661H272.546V118.857ZM274.958 117.549H275.954V119.193H274.958V117.549ZM279.674 117.597H280.67V123.897H279.674V117.597ZM280.394 120.273H282.266V121.101H280.394V120.273ZM276.782 124.797H277.622V125.085C277.622 125.509 277.518 125.905 277.31 126.273C277.11 126.641 276.826 126.969 276.458 127.257C276.098 127.545 275.682 127.785 275.21 127.977C274.738 128.177 274.234 128.321 273.698 128.409L273.326 127.641C273.79 127.577 274.23 127.465 274.646 127.305C275.062 127.145 275.43 126.953 275.75 126.729C276.07 126.497 276.322 126.241 276.506 125.961C276.69 125.681 276.782 125.389 276.782 125.085V124.797ZM276.962 124.797H277.814V125.085C277.814 125.389 277.906 125.677 278.09 125.949C278.282 126.221 278.538 126.473 278.858 126.705C279.178 126.937 279.542 127.137 279.95 127.305C280.366 127.465 280.806 127.581 281.27 127.653L280.898 128.421C280.362 128.325 279.858 128.177 279.386 127.977C278.914 127.785 278.494 127.545 278.126 127.257C277.766 126.961 277.482 126.629 277.274 126.261C277.066 125.893 276.962 125.501 276.962 125.085V124.797ZM273.746 124.485H280.85V125.301H273.746V124.485ZM47.0079 136.861H54.3879V137.665H47.0079V136.861ZM45.6759 139.117H55.5159V139.933H45.6759V139.117ZM47.0079 133.993H47.9919V137.269H47.0079V133.993ZM46.9359 143.377H54.4479V144.193H46.9359V143.377ZM46.9359 141.025H47.9319V143.593H46.9359V141.025ZM59.1173 139.333H68.9573V140.137H59.1173V139.333ZM63.6053 139.741H64.6013V142.237H63.6053V139.741ZM60.3653 143.401H67.8653V144.217H60.3653V143.401ZM60.3653 141.265H61.3493V143.701H60.3653V141.265ZM60.4253 133.945H61.4093V135.325H66.6653V133.945H67.6493V138.289H60.4253V133.945ZM61.4093 136.093V137.485H66.6653V136.093H61.4093ZM71.9804 134.905H72.8324C72.8324 135.481 72.8044 136.073 72.7484 136.681C72.7004 137.281 72.6084 137.881 72.4724 138.481C72.3444 139.073 72.1564 139.657 71.9084 140.233C71.6684 140.809 71.3524 141.361 70.9604 141.889L70.1804 141.433C70.5564 140.953 70.8604 140.453 71.0924 139.933C71.3324 139.413 71.5164 138.881 71.6444 138.337C71.7724 137.785 71.8604 137.229 71.9084 136.669C71.9564 136.101 71.9804 135.537 71.9804 134.977V134.905ZM70.4084 134.905H72.4724V135.721H70.4084V134.905ZM74.3684 134.905H75.2204C75.2204 135.473 75.2004 136.081 75.1604 136.729C75.1284 137.377 75.0524 138.041 74.9324 138.721C74.8204 139.401 74.6404 140.069 74.3924 140.725C74.1444 141.381 73.8044 142.001 73.3724 142.585L72.5924 142.129C72.9204 141.697 73.1924 141.245 73.4084 140.773C73.6324 140.293 73.8084 139.805 73.9364 139.309C74.0644 138.805 74.1604 138.309 74.2244 137.821C74.2884 137.325 74.3284 136.837 74.3444 136.357C74.3604 135.877 74.3684 135.417 74.3684 134.977V134.905ZM73.1804 134.905H74.8964V135.721H73.1804V134.905ZM78.4724 133.597H79.4324V144.457H78.4724V133.597ZM74.7164 137.857H76.6724V138.685H74.7164V137.857ZM76.4684 133.885H77.4044V143.905H76.4684V133.885ZM88.0138 140.497H88.9978V144.469H88.0138V140.497ZM83.6098 140.161H93.4138V140.989H83.6098V140.161ZM88.0138 135.469H88.8898V135.745C88.8898 136.113 88.8138 136.465 88.6618 136.801C88.5098 137.129 88.2978 137.433 88.0258 137.713C87.7538 137.993 87.4338 138.245 87.0658 138.469C86.7058 138.685 86.3138 138.869 85.8898 139.021C85.4738 139.165 85.0378 139.269 84.5818 139.333L84.2218 138.541C84.6138 138.485 84.9938 138.397 85.3618 138.277C85.7378 138.157 86.0818 138.009 86.3938 137.833C86.7138 137.657 86.9938 137.461 87.2338 137.245C87.4818 137.021 87.6738 136.785 87.8098 136.537C87.9458 136.281 88.0138 136.017 88.0138 135.745V135.469ZM88.1338 135.469H89.0098V135.745C89.0098 136.009 89.0778 136.269 89.2138 136.525C89.3498 136.773 89.5378 137.009 89.7778 137.233C90.0178 137.449 90.2938 137.649 90.6058 137.833C90.9258 138.009 91.2698 138.157 91.6378 138.277C92.0138 138.397 92.3978 138.485 92.7898 138.541L92.4298 139.333C91.9738 139.269 91.5338 139.165 91.1098 139.021C90.6938 138.869 90.3018 138.685 89.9338 138.469C89.5738 138.245 89.2578 137.993 88.9858 137.713C88.7218 137.433 88.5138 137.129 88.3618 136.801C88.2098 136.465 88.1338 136.113 88.1338 135.745V135.469ZM84.5578 134.941H92.4658V135.745H84.5578V134.941ZM88.0138 133.597H88.9978V135.217H88.0138V133.597ZM97.3608 135.649H98.1768V136.189C98.1768 136.837 98.0528 137.441 97.8048 138.001C97.5568 138.553 97.2048 139.033 96.7488 139.441C96.3008 139.849 95.7728 140.161 95.1648 140.377L94.6728 139.597C95.2088 139.421 95.6768 139.161 96.0768 138.817C96.4848 138.473 96.8008 138.077 97.0248 137.629C97.2488 137.173 97.3608 136.693 97.3608 136.189V135.649ZM97.5288 135.649H98.3448V136.189C98.3448 136.661 98.4568 137.113 98.6808 137.545C98.9128 137.969 99.2328 138.341 99.6408 138.661C100.049 138.981 100.521 139.229 101.057 139.405L100.565 140.185C99.9648 139.985 99.4368 139.693 98.9808 139.309C98.5248 138.917 98.1688 138.457 97.9128 137.929C97.6568 137.393 97.5288 136.813 97.5288 136.189V135.649ZM94.9488 135.049H100.745V135.853H94.9488V135.049ZM97.3608 133.669H98.3568V135.349H97.3608V133.669ZM100.373 136.933H103.109V137.773H100.373V136.933ZM102.581 133.609H103.577V141.709H102.581V133.609ZM96.6528 143.401H103.877V144.217H96.6528V143.401ZM96.6528 140.989H97.6368V143.833H96.6528V140.989ZM113.116 133.597H114.112V139.909H113.116V133.597ZM113.68 136.369H115.708V137.209H113.68V136.369ZM107.284 140.389H108.268V141.529H113.116V140.389H114.112V144.313H107.284V140.389ZM108.268 142.309V143.509H113.116V142.309H108.268ZM105.712 134.713H112.12V135.517H105.712V134.713ZM108.916 136.021C109.436 136.021 109.888 136.101 110.272 136.261C110.664 136.413 110.968 136.633 111.184 136.921C111.4 137.201 111.508 137.533 111.508 137.917C111.508 138.301 111.4 138.637 111.184 138.925C110.968 139.213 110.664 139.437 110.272 139.597C109.888 139.749 109.436 139.825 108.916 139.825C108.396 139.825 107.94 139.749 107.548 139.597C107.164 139.437 106.86 139.213 106.636 138.925C106.42 138.637 106.312 138.301 106.312 137.917C106.312 137.533 106.42 137.201 106.636 136.921C106.86 136.633 107.164 136.413 107.548 136.261C107.94 136.101 108.396 136.021 108.916 136.021ZM108.916 136.777C108.42 136.777 108.02 136.881 107.716 137.089C107.42 137.297 107.272 137.573 107.272 137.917C107.272 138.269 107.42 138.549 107.716 138.757C108.02 138.965 108.42 139.069 108.916 139.069C109.404 139.069 109.8 138.965 110.104 138.757C110.408 138.549 110.56 138.269 110.56 137.917C110.56 137.573 110.408 137.297 110.104 137.089C109.808 136.881 109.412 136.777 108.916 136.777ZM108.424 133.501H109.42V135.145H108.424V133.501ZM124.623 133.597H125.607V144.457H124.623V133.597ZM117.411 134.665H118.395V141.385H117.411V134.665ZM117.411 140.797H118.299C119.131 140.797 119.975 140.761 120.831 140.689C121.695 140.609 122.583 140.477 123.495 140.293L123.627 141.133C122.683 141.333 121.775 141.473 120.903 141.553C120.031 141.625 119.163 141.661 118.299 141.661H117.411V140.797ZM135.11 133.597H136.106V144.469H135.11V133.597ZM135.878 137.881H137.882V138.709H135.878V137.881ZM128.234 140.917H129.086C129.75 140.917 130.358 140.909 130.91 140.893C131.47 140.869 132.006 140.829 132.518 140.773C133.038 140.717 133.566 140.641 134.102 140.545L134.222 141.397C133.662 141.493 133.118 141.569 132.59 141.625C132.07 141.681 131.526 141.717 130.958 141.733C130.39 141.749 129.766 141.757 129.086 141.757H128.234V140.917ZM128.234 134.653H133.262V135.469H129.218V141.301H128.234V134.653ZM139.489 143.665C138.997 143.665 138.877 143.545 138.877 143.041C138.877 142.537 138.997 142.417 139.489 142.417C139.969 142.417 140.101 142.537 140.101 143.041C140.101 143.545 139.969 143.665 139.489 143.665ZM138.889 135.457H140.077L139.909 141.325H139.069L138.889 135.457Z" fill="#364153"/>
<line x1="45.1382" y1="152.258" x2="280.923" y2="152.258" stroke="#E1E1E1"/>
<path d="M268.119 172.264C267.619 172.264 267.168 172.164 266.768 171.965C266.367 171.766 266.046 171.494 265.805 171.147C265.563 170.801 265.431 170.406 265.408 169.962H266.431C266.471 170.357 266.65 170.684 266.968 170.943C267.289 171.198 267.673 171.326 268.119 171.326C268.477 171.326 268.795 171.242 269.073 171.075C269.354 170.907 269.575 170.677 269.734 170.384C269.896 170.089 269.977 169.755 269.977 169.383C269.977 169.002 269.893 168.663 269.725 168.364C269.56 168.063 269.333 167.826 269.043 167.653C268.754 167.48 268.423 167.391 268.05 167.389C267.783 167.386 267.509 167.427 267.228 167.512C266.947 167.595 266.715 167.701 266.533 167.832L265.545 167.712L266.073 163.417H270.607V164.355H266.959L266.653 166.928H266.704C266.883 166.786 267.107 166.668 267.377 166.575C267.647 166.481 267.928 166.434 268.221 166.434C268.755 166.434 269.231 166.562 269.648 166.818C270.069 167.07 270.398 167.417 270.637 167.857C270.879 168.298 270.999 168.801 270.999 169.366C270.999 169.923 270.874 170.42 270.624 170.857C270.377 171.292 270.036 171.636 269.602 171.889C269.167 172.139 268.673 172.264 268.119 172.264ZM273.114 172.212C272.904 172.212 272.723 172.137 272.573 171.987C272.422 171.836 272.347 171.656 272.347 171.445C272.347 171.235 272.422 171.055 272.573 170.904C272.723 170.754 272.904 170.678 273.114 170.678C273.324 170.678 273.505 170.754 273.655 170.904C273.806 171.055 273.881 171.235 273.881 171.445C273.881 171.585 273.845 171.712 273.774 171.829C273.706 171.945 273.614 172.039 273.497 172.11C273.384 172.178 273.256 172.212 273.114 172.212ZM278.211 172.264C277.569 172.264 277.022 172.089 276.57 171.739C276.118 171.387 275.773 170.877 275.534 170.21C275.296 169.539 275.176 168.73 275.176 167.781C275.176 166.837 275.296 166.032 275.534 165.364C275.776 164.694 276.122 164.183 276.574 163.83C277.029 163.475 277.574 163.298 278.211 163.298C278.847 163.298 279.391 163.475 279.843 163.83C280.297 164.183 280.644 164.694 280.882 165.364C281.124 166.032 281.245 166.837 281.245 167.781C281.245 168.73 281.125 169.539 280.887 170.21C280.648 170.877 280.303 171.387 279.851 171.739C279.399 172.089 278.853 172.264 278.211 172.264ZM278.211 171.326C278.847 171.326 279.341 171.019 279.694 170.406C280.046 169.792 280.222 168.917 280.222 167.781C280.222 167.025 280.141 166.382 279.979 165.85C279.82 165.319 279.59 164.914 279.289 164.636C278.99 164.357 278.631 164.218 278.211 164.218C277.58 164.218 277.087 164.529 276.732 165.151C276.377 165.771 276.199 166.647 276.199 167.781C276.199 168.536 276.279 169.178 276.438 169.707C276.597 170.235 276.826 170.637 277.124 170.913C277.425 171.188 277.787 171.326 278.211 171.326Z" fill="#33059C"/>
<path d="M252.366 161.976C252.482 161.741 252.818 161.741 252.934 161.976L254.44 165.027C254.486 165.12 254.575 165.185 254.678 165.2L258.045 165.689C258.305 165.727 258.408 166.047 258.22 166.23L255.784 168.604C255.71 168.677 255.676 168.782 255.693 168.885L256.268 172.238C256.313 172.497 256.041 172.694 255.808 172.572L252.797 170.989C252.705 170.94 252.595 170.94 252.502 170.989L249.491 172.572C249.259 172.694 248.987 172.497 249.031 172.238L249.607 168.885C249.624 168.782 249.59 168.677 249.515 168.604L247.079 166.23C246.891 166.047 246.995 165.727 247.255 165.689L250.621 165.2C250.725 165.185 250.814 165.12 250.86 165.027L252.366 161.976Z" fill="#FFDD33" stroke="#FFDD33" stroke-linejoin="round"/>
<path d="M47.71 106.714C47.0177 105.979 46.646 105.154 46.646 103.817C46.646 101.464 48.2975 99.3557 50.6991 98.3132L51.2993 99.2395C49.0577 100.452 48.6195 102.026 48.4447 103.018C48.8056 102.831 49.2782 102.766 49.7413 102.809C50.9539 102.921 51.9097 103.916 51.9097 105.154C51.9097 105.778 51.6618 106.376 51.2206 106.817C50.7794 107.258 50.181 107.506 49.5571 107.506C49.2121 107.503 48.871 107.432 48.5539 107.296C48.2368 107.16 47.95 106.962 47.71 106.714ZM54.4316 106.714C53.7393 105.979 53.3676 105.154 53.3676 103.817C53.3676 101.464 55.0191 99.3557 57.4207 98.3132L58.0209 99.2395C55.7793 100.452 55.341 102.026 55.1663 103.018C55.5272 102.831 55.9997 102.766 56.4629 102.809C57.6754 102.921 58.6312 103.916 58.6312 105.154C58.6312 105.778 58.3834 106.376 57.9422 106.817C57.501 107.258 56.9026 107.506 56.2787 107.506C55.9336 107.503 55.5926 107.432 55.2755 107.296C54.9584 107.16 54.6715 106.962 54.4316 106.714Z" fill="#C4B4FF"/>
<path d="M280.206 32.5924H281.368V39.1584H280.206V32.5924ZM273.122 39.7744H281.368V42.8124H274.298V44.7164H273.15V41.9584H280.22V40.6984H273.122V39.7744ZM273.15 44.1844H281.83V45.1224H273.15V44.1844ZM271.54 33.4604H278.344V34.3704H271.54V33.4604ZM271.33 38.7244L271.19 37.7724C271.946 37.7631 272.768 37.7491 273.654 37.7304C274.541 37.7117 275.437 37.6791 276.342 37.6324C277.257 37.5764 278.125 37.5017 278.946 37.4084L279.002 38.2484C278.172 38.3791 277.304 38.4771 276.398 38.5424C275.493 38.6077 274.606 38.6544 273.738 38.6824C272.88 38.7104 272.077 38.7244 271.33 38.7244ZM272.786 33.8804H273.906V38.1784H272.786V33.8804ZM275.964 33.8804H277.098V38.1784H275.964V33.8804ZM293.127 32.5924H294.275V45.2764H293.127V32.5924ZM290.509 37.3664H293.309V38.3184H290.509V37.3664ZM284.447 41.2724H285.399C286.202 41.2724 286.916 41.2631 287.541 41.2444C288.167 41.2257 288.759 41.1884 289.319 41.1324C289.889 41.0764 290.467 40.9971 291.055 40.8944L291.181 41.8464C290.575 41.9491 289.982 42.0284 289.403 42.0844C288.825 42.1404 288.213 42.1824 287.569 42.2104C286.935 42.2291 286.211 42.2384 285.399 42.2384H284.447V41.2724ZM284.447 33.7544H290.299V34.7064H285.595V41.5944H284.447V33.7544ZM285.301 37.3104H289.739V38.2484H285.301V37.3104Z" fill="black"/>
<path d="M262.361 41.8206H258.568M266.154 35.1823H264.732M266.154 41.8206H264.258M262.835 35.1823H258.568M259.99 38.5014H258.568M266.154 38.5014H261.887" stroke="black" stroke-linecap="round"/>
<path d="M264.258 41.8205C264.258 41.2967 263.833 40.8722 263.31 40.8722C262.786 40.8722 262.361 41.2967 262.361 41.8205C262.361 42.3442 262.786 42.7688 263.31 42.7688C263.833 42.7688 264.258 42.3442 264.258 41.8205Z" stroke="black" stroke-linecap="round"/>
<path d="M261.887 38.5014C261.887 37.9776 261.462 37.5531 260.939 37.5531C260.415 37.5531 259.99 37.9776 259.99 38.5014C259.99 39.0251 260.415 39.4497 260.939 39.4497C261.462 39.4497 261.887 39.0251 261.887 38.5014Z" stroke="black" stroke-linecap="round"/>
<path d="M264.732 35.1823C264.732 34.6586 264.308 34.234 263.784 34.234C263.26 34.234 262.835 34.6586 262.835 35.1823C262.835 35.706 263.26 36.1306 263.784 36.1306C264.308 36.1306 264.732 35.706 264.732 35.1823Z" stroke="black" stroke-linecap="round"/>
</g>
<defs>
<filter id="filter0_d_412_5690" x="0" y="0" width="336.307" height="214.922" filterUnits="userSpaceOnUse" color-interpolation-filters="sRGB">
<feFlood flood-opacity="0" result="BackgroundImageFix"/>
<feColorMatrix in="SourceAlpha" type="matrix" values="0 0 0 0 0 0 0 0 0 0 0 0 0 0 0 0 0 0 127 0" result="hardAlpha"/>
<feOffset dx="5"/>
<feGaussianBlur stdDeviation="7.5"/>
<feComposite in2="hardAlpha" operator="out"/>
<feColorMatrix type="matrix" values="0 0 0 0 0 0 0 0 0 0 0 0 0 0 0 0 0 0 0.25 0"/>
<feBlend mode="normal" in2="BackgroundImageFix" result="effect1_dropShadow_412_5690"/>
<feBlend mode="normal" in="SourceGraphic" in2="effect1_dropShadow_412_5690" result="shape"/>
</filter>
<filter id="filter1_d_412_5690" x="15.0239" y="39.7114" width="296.013" height="159.73" filterUnits="userSpaceOnUse" color-interpolation-filters="sRGB">
<feFlood flood-opacity="0" result="BackgroundImageFix"/>
<feColorMatrix in="SourceAlpha" type="matrix" values="0 0 0 0 0 0 0 0 0 0 0 0 0 0 0 0 0 0 127 0" result="hardAlpha"/>
<feOffset/>
<feGaussianBlur stdDeviation="7.5"/>
<feComposite in2="hardAlpha" operator="out"/>
<feColorMatrix type="matrix" values="0 0 0 0 0 0 0 0 0 0 0 0 0 0 0 0 0 0 0.15 0"/>
<feBlend mode="normal" in2="BackgroundImageFix" result="effect1_dropShadow_412_5690"/>
<feBlend mode="normal" in="SourceGraphic" in2="effect1_dropShadow_412_5690" result="shape"/>
</filter>
<linearGradient id="paint0_linear_412_5690" x1="34.556" y1="66.4537" x2="79.9972" y2="168.676" gradientUnits="userSpaceOnUse">
<stop stop-color="#BA0087"/>
<stop offset="0.62" stop-color="#33059C"/>
</linearGradient>
<linearGradient id="paint1_linear_412_5690" x1="34.556" y1="66.4537" x2="79.9972" y2="168.676" gradientUnits="userSpaceOnUse">
<stop stop-color="#BA0087"/>
<stop offset="0.62" stop-color="#33059C"/>
</linearGradient>
</defs>
</svg>
