<svg width="380" height="144" viewBox="0 0 380 144" fill="none" xmlns="http://www.w3.org/2000/svg">
<g filter="url(#filter0_d_776_6064)">
<rect x="37" y="28" width="306" height="89.0526" rx="20" fill="white"/>
</g>
<rect x="65.9209" y="49.343" width="117.665" height="47.0672" rx="11.5" fill="white" stroke="#FF1595"/>
<mask id="path-3-inside-1_776_6064" fill="white">
<path d="M87.2901 73.1328H89.4181V77.2768H87.2901V73.1328ZM92.6661 73.1328H94.7941V77.2768H92.6661V73.1328ZM84.3461 76.9728H97.7701V78.7008H84.3461V76.9728ZM91.0341 66.3328C92.1008 66.3328 93.0501 66.4982 93.8821 66.8288C94.7248 67.1595 95.3808 67.6235 95.8501 68.2208C96.3301 68.8075 96.5701 69.5062 96.5701 70.3168C96.5701 71.1168 96.3301 71.8155 95.8501 72.4128C95.3808 72.9995 94.7248 73.4582 93.8821 73.7888C93.0501 74.1195 92.1008 74.2848 91.0341 74.2848C89.9781 74.2848 89.0288 74.1195 88.1861 73.7888C87.3541 73.4582 86.6981 72.9995 86.2181 72.4128C85.7381 71.8155 85.4981 71.1168 85.4981 70.3168C85.4981 69.5062 85.7381 68.8075 86.2181 68.2208C86.6981 67.6235 87.3541 67.1595 88.1861 66.8288C89.0288 66.4982 89.9781 66.3328 91.0341 66.3328ZM91.0341 67.9808C90.3514 67.9808 89.7488 68.0768 89.2261 68.2688C88.7141 68.4502 88.3141 68.7115 88.0261 69.0528C87.7381 69.3942 87.5941 69.8155 87.5941 70.3168C87.5941 70.7968 87.7381 71.2128 88.0261 71.5648C88.3141 71.9062 88.7141 72.1728 89.2261 72.3648C89.7488 72.5462 90.3514 72.6368 91.0341 72.6368C91.7274 72.6368 92.3301 72.5462 92.8421 72.3648C93.3648 72.1728 93.7648 71.9062 94.0421 71.5648C94.3301 71.2128 94.4741 70.7968 94.4741 70.3168C94.4741 69.8155 94.3301 69.3942 94.0421 69.0528C93.7648 68.7115 93.3648 68.4502 92.8421 68.2688C92.3301 68.0768 91.7274 67.9808 91.0341 67.9808ZM100.713 66.2688H110.089V67.9488H100.713V66.2688ZM99.0649 71.5968H112.489V73.2768H99.0649V71.5968ZM108.809 66.2688H110.905V67.4528C110.905 68.0822 110.889 68.7595 110.857 69.4848C110.825 70.2102 110.697 71.0528 110.473 72.0128L108.345 71.9968C108.58 71.0262 108.713 70.1835 108.745 69.4688C108.788 68.7542 108.809 68.0822 108.809 67.4528V66.2688ZM100.633 74.8288H110.841V80.2688H100.633V74.8288ZM108.761 76.4928H102.729V78.5888H108.761V76.4928ZM124.472 65.5968H126.504V80.4128H124.472V65.5968ZM119.592 70.6688H122.056V72.3968H119.592V70.6688ZM121.48 65.8368H123.464V79.7408H121.48V65.8368ZM116.408 68.0128H118.008V69.5328C118.008 70.3648 117.944 71.1862 117.816 71.9968C117.698 72.8075 117.512 73.5755 117.256 74.3008C117 75.0155 116.664 75.6608 116.248 76.2368C115.832 76.8128 115.33 77.2875 114.744 77.6608L113.48 76.0928C114.205 75.6342 114.781 75.0582 115.208 74.3648C115.634 73.6608 115.938 72.8928 116.12 72.0608C116.312 71.2182 116.408 70.3755 116.408 69.5328V68.0128ZM116.888 68.0128H118.472V69.5328C118.472 70.3542 118.562 71.1648 118.744 71.9648C118.925 72.7648 119.224 73.4955 119.64 74.1568C120.056 74.8075 120.621 75.3408 121.336 75.7568L120.104 77.2928C119.314 76.8235 118.685 76.1888 118.216 75.3888C117.746 74.5888 117.405 73.6875 117.192 72.6848C116.989 71.6715 116.888 70.6208 116.888 69.5328V68.0128ZM114.024 67.0848H120.632V68.7968H114.024V67.0848ZM132.166 79.0048H130.358V70.1888L128.054 72.1888V70.2688L130.358 68.2528H132.166V79.0048ZM147.21 65.6128H149.338V76.4128H147.21V65.6128ZM139.466 78.4608H149.722V80.1728H139.466V78.4608ZM139.466 75.3728H141.594V79.3408H139.466V75.3728ZM140.506 66.4288H142.266V67.8688C142.266 68.8288 142.111 69.7462 141.802 70.6208C141.503 71.4955 141.044 72.2635 140.426 72.9248C139.807 73.5862 139.018 74.0875 138.058 74.4288L136.97 72.7328C137.802 72.4448 138.474 72.0448 138.986 71.5328C139.508 71.0208 139.892 70.4448 140.138 69.8048C140.383 69.1648 140.506 68.5195 140.506 67.8688V66.4288ZM140.938 66.4288H142.666V67.8688C142.666 68.3488 142.73 68.8235 142.858 69.2928C142.996 69.7515 143.204 70.1888 143.482 70.6048C143.759 71.0102 144.116 71.3782 144.554 71.7088C144.991 72.0395 145.508 72.3008 146.106 72.4928L145.034 74.1728C144.095 73.8635 143.322 73.3942 142.714 72.7648C142.106 72.1355 141.658 71.3995 141.37 70.5568C141.082 69.7142 140.938 68.8182 140.938 67.8688V66.4288ZM155.064 68.2048H156.792V68.7328C156.792 69.5968 156.643 70.4128 156.344 71.1808C156.046 71.9488 155.587 72.6155 154.968 73.1808C154.36 73.7462 153.587 74.1675 152.648 74.4448L151.64 72.7968C152.44 72.5622 153.091 72.2368 153.592 71.8208C154.104 71.3942 154.478 70.9142 154.712 70.3808C154.947 69.8368 155.064 69.2875 155.064 68.7328V68.2048ZM155.464 68.2048H157.192V68.7328C157.192 69.1168 157.256 69.4955 157.384 69.8688C157.523 70.2422 157.731 70.5942 158.008 70.9248C158.296 71.2555 158.659 71.5488 159.096 71.8048C159.534 72.0608 160.046 72.2688 160.632 72.4288L159.672 74.0928C158.734 73.8368 157.95 73.4475 157.32 72.9248C156.702 72.3915 156.238 71.7622 155.928 71.0368C155.619 70.3115 155.464 69.5435 155.464 68.7328V68.2048ZM152.152 67.1328H160.12V68.8128H152.152V67.1328ZM155.064 65.5488H157.192V67.8048H155.064V65.5488ZM159.704 69.5488H162.52V71.2608H159.704V69.5488ZM162.008 65.6128H164.152V74.5568H162.008V65.6128ZM159.128 74.7968C160.696 74.7968 161.934 75.0422 162.84 75.5328C163.747 76.0235 164.2 76.7168 164.2 77.6128C164.2 78.4982 163.747 79.1862 162.84 79.6768C161.934 80.1782 160.696 80.4288 159.128 80.4288C157.56 80.4288 156.323 80.1782 155.416 79.6768C154.51 79.1862 154.056 78.4982 154.056 77.6128C154.056 76.7168 154.51 76.0235 155.416 75.5328C156.323 75.0422 157.56 74.7968 159.128 74.7968ZM159.128 76.4288C158.488 76.4288 157.944 76.4715 157.496 76.5568C157.059 76.6422 156.728 76.7755 156.504 76.9568C156.28 77.1275 156.168 77.3462 156.168 77.6128C156.168 77.8688 156.28 78.0875 156.504 78.2688C156.728 78.4502 157.059 78.5835 157.496 78.6688C157.944 78.7542 158.488 78.7968 159.128 78.7968C159.779 78.7968 160.323 78.7542 160.76 78.6688C161.198 78.5835 161.523 78.4502 161.736 78.2688C161.96 78.0875 162.072 77.8688 162.072 77.6128C162.072 77.3462 161.96 77.1275 161.736 76.9568C161.523 76.7755 161.198 76.6422 160.76 76.5568C160.323 76.4715 159.779 76.4288 159.128 76.4288Z"/>
</mask>
<path d="M87.2901 73.1328H89.4181V77.2768H87.2901V73.1328ZM92.6661 73.1328H94.7941V77.2768H92.6661V73.1328ZM84.3461 76.9728H97.7701V78.7008H84.3461V76.9728ZM91.0341 66.3328C92.1008 66.3328 93.0501 66.4982 93.8821 66.8288C94.7248 67.1595 95.3808 67.6235 95.8501 68.2208C96.3301 68.8075 96.5701 69.5062 96.5701 70.3168C96.5701 71.1168 96.3301 71.8155 95.8501 72.4128C95.3808 72.9995 94.7248 73.4582 93.8821 73.7888C93.0501 74.1195 92.1008 74.2848 91.0341 74.2848C89.9781 74.2848 89.0288 74.1195 88.1861 73.7888C87.3541 73.4582 86.6981 72.9995 86.2181 72.4128C85.7381 71.8155 85.4981 71.1168 85.4981 70.3168C85.4981 69.5062 85.7381 68.8075 86.2181 68.2208C86.6981 67.6235 87.3541 67.1595 88.1861 66.8288C89.0288 66.4982 89.9781 66.3328 91.0341 66.3328ZM91.0341 67.9808C90.3514 67.9808 89.7488 68.0768 89.2261 68.2688C88.7141 68.4502 88.3141 68.7115 88.0261 69.0528C87.7381 69.3942 87.5941 69.8155 87.5941 70.3168C87.5941 70.7968 87.7381 71.2128 88.0261 71.5648C88.3141 71.9062 88.7141 72.1728 89.2261 72.3648C89.7488 72.5462 90.3514 72.6368 91.0341 72.6368C91.7274 72.6368 92.3301 72.5462 92.8421 72.3648C93.3648 72.1728 93.7648 71.9062 94.0421 71.5648C94.3301 71.2128 94.4741 70.7968 94.4741 70.3168C94.4741 69.8155 94.3301 69.3942 94.0421 69.0528C93.7648 68.7115 93.3648 68.4502 92.8421 68.2688C92.3301 68.0768 91.7274 67.9808 91.0341 67.9808ZM100.713 66.2688H110.089V67.9488H100.713V66.2688ZM99.0649 71.5968H112.489V73.2768H99.0649V71.5968ZM108.809 66.2688H110.905V67.4528C110.905 68.0822 110.889 68.7595 110.857 69.4848C110.825 70.2102 110.697 71.0528 110.473 72.0128L108.345 71.9968C108.58 71.0262 108.713 70.1835 108.745 69.4688C108.788 68.7542 108.809 68.0822 108.809 67.4528V66.2688ZM100.633 74.8288H110.841V80.2688H100.633V74.8288ZM108.761 76.4928H102.729V78.5888H108.761V76.4928ZM124.472 65.5968H126.504V80.4128H124.472V65.5968ZM119.592 70.6688H122.056V72.3968H119.592V70.6688ZM121.48 65.8368H123.464V79.7408H121.48V65.8368ZM116.408 68.0128H118.008V69.5328C118.008 70.3648 117.944 71.1862 117.816 71.9968C117.698 72.8075 117.512 73.5755 117.256 74.3008C117 75.0155 116.664 75.6608 116.248 76.2368C115.832 76.8128 115.33 77.2875 114.744 77.6608L113.48 76.0928C114.205 75.6342 114.781 75.0582 115.208 74.3648C115.634 73.6608 115.938 72.8928 116.12 72.0608C116.312 71.2182 116.408 70.3755 116.408 69.5328V68.0128ZM116.888 68.0128H118.472V69.5328C118.472 70.3542 118.562 71.1648 118.744 71.9648C118.925 72.7648 119.224 73.4955 119.64 74.1568C120.056 74.8075 120.621 75.3408 121.336 75.7568L120.104 77.2928C119.314 76.8235 118.685 76.1888 118.216 75.3888C117.746 74.5888 117.405 73.6875 117.192 72.6848C116.989 71.6715 116.888 70.6208 116.888 69.5328V68.0128ZM114.024 67.0848H120.632V68.7968H114.024V67.0848ZM132.166 79.0048H130.358V70.1888L128.054 72.1888V70.2688L130.358 68.2528H132.166V79.0048ZM147.21 65.6128H149.338V76.4128H147.21V65.6128ZM139.466 78.4608H149.722V80.1728H139.466V78.4608ZM139.466 75.3728H141.594V79.3408H139.466V75.3728ZM140.506 66.4288H142.266V67.8688C142.266 68.8288 142.111 69.7462 141.802 70.6208C141.503 71.4955 141.044 72.2635 140.426 72.9248C139.807 73.5862 139.018 74.0875 138.058 74.4288L136.97 72.7328C137.802 72.4448 138.474 72.0448 138.986 71.5328C139.508 71.0208 139.892 70.4448 140.138 69.8048C140.383 69.1648 140.506 68.5195 140.506 67.8688V66.4288ZM140.938 66.4288H142.666V67.8688C142.666 68.3488 142.73 68.8235 142.858 69.2928C142.996 69.7515 143.204 70.1888 143.482 70.6048C143.759 71.0102 144.116 71.3782 144.554 71.7088C144.991 72.0395 145.508 72.3008 146.106 72.4928L145.034 74.1728C144.095 73.8635 143.322 73.3942 142.714 72.7648C142.106 72.1355 141.658 71.3995 141.37 70.5568C141.082 69.7142 140.938 68.8182 140.938 67.8688V66.4288ZM155.064 68.2048H156.792V68.7328C156.792 69.5968 156.643 70.4128 156.344 71.1808C156.046 71.9488 155.587 72.6155 154.968 73.1808C154.36 73.7462 153.587 74.1675 152.648 74.4448L151.64 72.7968C152.44 72.5622 153.091 72.2368 153.592 71.8208C154.104 71.3942 154.478 70.9142 154.712 70.3808C154.947 69.8368 155.064 69.2875 155.064 68.7328V68.2048ZM155.464 68.2048H157.192V68.7328C157.192 69.1168 157.256 69.4955 157.384 69.8688C157.523 70.2422 157.731 70.5942 158.008 70.9248C158.296 71.2555 158.659 71.5488 159.096 71.8048C159.534 72.0608 160.046 72.2688 160.632 72.4288L159.672 74.0928C158.734 73.8368 157.95 73.4475 157.32 72.9248C156.702 72.3915 156.238 71.7622 155.928 71.0368C155.619 70.3115 155.464 69.5435 155.464 68.7328V68.2048ZM152.152 67.1328H160.12V68.8128H152.152V67.1328ZM155.064 65.5488H157.192V67.8048H155.064V65.5488ZM159.704 69.5488H162.52V71.2608H159.704V69.5488ZM162.008 65.6128H164.152V74.5568H162.008V65.6128ZM159.128 74.7968C160.696 74.7968 161.934 75.0422 162.84 75.5328C163.747 76.0235 164.2 76.7168 164.2 77.6128C164.2 78.4982 163.747 79.1862 162.84 79.6768C161.934 80.1782 160.696 80.4288 159.128 80.4288C157.56 80.4288 156.323 80.1782 155.416 79.6768C154.51 79.1862 154.056 78.4982 154.056 77.6128C154.056 76.7168 154.51 76.0235 155.416 75.5328C156.323 75.0422 157.56 74.7968 159.128 74.7968ZM159.128 76.4288C158.488 76.4288 157.944 76.4715 157.496 76.5568C157.059 76.6422 156.728 76.7755 156.504 76.9568C156.28 77.1275 156.168 77.3462 156.168 77.6128C156.168 77.8688 156.28 78.0875 156.504 78.2688C156.728 78.4502 157.059 78.5835 157.496 78.6688C157.944 78.7542 158.488 78.7968 159.128 78.7968C159.779 78.7968 160.323 78.7542 160.76 78.6688C161.198 78.5835 161.523 78.4502 161.736 78.2688C161.96 78.0875 162.072 77.8688 162.072 77.6128C162.072 77.3462 161.96 77.1275 161.736 76.9568C161.523 76.7755 161.198 76.6422 160.76 76.5568C160.323 76.4715 159.779 76.4288 159.128 76.4288Z" fill="#FF1595"/>
<path d="M87.2901 73.1328V72.1328H86.2901V73.1328H87.2901ZM89.4181 73.1328H90.4181V72.1328H89.4181V73.1328ZM89.4181 77.2768V78.2768H90.4181V77.2768H89.4181ZM87.2901 77.2768H86.2901V78.2768H87.2901V77.2768ZM92.6661 73.1328V72.1328H91.6661V73.1328H92.6661ZM94.7941 73.1328H95.7941V72.1328H94.7941V73.1328ZM94.7941 77.2768V78.2768H95.7941V77.2768H94.7941ZM92.6661 77.2768H91.6661V78.2768H92.6661V77.2768ZM84.3461 76.9728V75.9728H83.3461V76.9728H84.3461ZM97.7701 76.9728H98.7701V75.9728H97.7701V76.9728ZM97.7701 78.7008V79.7008H98.7701V78.7008H97.7701ZM84.3461 78.7008H83.3461V79.7008H84.3461V78.7008ZM93.8821 66.8288L93.5128 67.7581L93.5168 67.7597L93.8821 66.8288ZM95.8501 68.2208L95.0638 68.8386L95.0699 68.8464L95.0761 68.8541L95.8501 68.2208ZM95.8501 72.4128L95.0706 71.7864L95.0692 71.7881L95.8501 72.4128ZM93.8821 73.7888L93.5168 72.8579L93.5128 72.8595L93.8821 73.7888ZM88.1861 73.7888L87.8168 74.7181L87.8208 74.7197L88.1861 73.7888ZM86.2181 72.4128L85.4386 73.0392L85.4441 73.0461L86.2181 72.4128ZM86.2181 68.2208L86.9921 68.8541L86.9976 68.8472L86.2181 68.2208ZM88.1861 66.8288L87.8208 65.8979L87.8168 65.8995L88.1861 66.8288ZM89.2261 68.2688L89.56 69.2115L89.5709 69.2075L89.2261 68.2688ZM88.0261 69.0528L88.7904 69.6977L88.7904 69.6977L88.0261 69.0528ZM88.0261 71.5648L87.2521 72.1981L87.2569 72.2039L87.2618 72.2097L88.0261 71.5648ZM89.2261 72.3648L88.875 73.3012L88.8866 73.3055L88.8983 73.3096L89.2261 72.3648ZM92.8421 72.3648L93.176 73.3075L93.1869 73.3035L92.8421 72.3648ZM94.0421 71.5648L93.2681 70.9316L93.266 70.9342L94.0421 71.5648ZM94.0421 69.0528L93.266 69.6834L93.2718 69.6906L93.2778 69.6977L94.0421 69.0528ZM92.8421 68.2688L92.491 69.2052L92.5026 69.2095L92.5143 69.2136L92.8421 68.2688ZM87.2901 73.1328V74.1328H89.4181V73.1328V72.1328H87.2901V73.1328ZM89.4181 73.1328H88.4181V77.2768H89.4181H90.4181V73.1328H89.4181ZM89.4181 77.2768V76.2768H87.2901V77.2768V78.2768H89.4181V77.2768ZM87.2901 77.2768H88.2901V73.1328H87.2901H86.2901V77.2768H87.2901ZM92.6661 73.1328V74.1328H94.7941V73.1328V72.1328H92.6661V73.1328ZM94.7941 73.1328H93.7941V77.2768H94.7941H95.7941V73.1328H94.7941ZM94.7941 77.2768V76.2768H92.6661V77.2768V78.2768H94.7941V77.2768ZM92.6661 77.2768H93.6661V73.1328H92.6661H91.6661V77.2768H92.6661ZM84.3461 76.9728V77.9728H97.7701V76.9728V75.9728H84.3461V76.9728ZM97.7701 76.9728H96.7701V78.7008H97.7701H98.7701V76.9728H97.7701ZM97.7701 78.7008V77.7008H84.3461V78.7008V79.7008H97.7701V78.7008ZM84.3461 78.7008H85.3461V76.9728H84.3461H83.3461V78.7008H84.3461ZM91.0341 66.3328V67.3328C91.998 67.3328 92.8185 67.4822 93.5128 67.7581L93.8821 66.8288L94.2514 65.8995C93.2817 65.5141 92.2036 65.3328 91.0341 65.3328V66.3328ZM93.8821 66.8288L93.5168 67.7597C94.2257 68.0379 94.7238 68.406 95.0638 68.8386L95.8501 68.2208L96.6364 67.603C96.0377 66.841 95.2239 66.2811 94.2474 65.8979L93.8821 66.8288ZM95.8501 68.2208L95.0761 68.8541C95.3994 69.2492 95.5701 69.7197 95.5701 70.3168H96.5701H97.5701C97.5701 69.2926 97.2608 68.3658 96.6241 67.5876L95.8501 68.2208ZM96.5701 70.3168H95.5701C95.5701 70.8998 95.4013 71.3749 95.0706 71.7864L95.8501 72.4128L96.6296 73.0392C97.2589 72.256 97.5701 71.3338 97.5701 70.3168H96.5701ZM95.8501 72.4128L95.0692 71.7881C94.7296 72.2126 94.2299 72.5781 93.5168 72.8579L93.8821 73.7888L94.2474 74.7197C95.2196 74.3382 96.0319 73.7864 96.631 73.0375L95.8501 72.4128ZM93.8821 73.7888L93.5128 72.8595C92.8185 73.1355 91.998 73.2848 91.0341 73.2848V74.2848V75.2848C92.2036 75.2848 93.2817 75.1035 94.2514 74.7181L93.8821 73.7888ZM91.0341 74.2848V73.2848C90.0826 73.2848 89.26 73.136 88.5514 72.8579L88.1861 73.7888L87.8208 74.7197C88.7975 75.103 89.8736 75.2848 91.0341 75.2848V74.2848ZM88.1861 73.7888L88.5554 72.8595C87.8526 72.5802 87.3465 72.2128 86.9921 71.7796L86.2181 72.4128L85.4441 73.0461C86.0497 73.7861 86.8556 74.3361 87.8168 74.7181L88.1861 73.7888ZM86.2181 72.4128L86.9976 71.7864C86.6669 71.3749 86.4981 70.8998 86.4981 70.3168H85.4981H84.4981C84.4981 71.3338 84.8093 72.256 85.4386 73.0392L86.2181 72.4128ZM85.4981 70.3168H86.4981C86.4981 69.7197 86.6688 69.2492 86.9921 68.8541L86.2181 68.2208L85.4441 67.5876C84.8074 68.3658 84.4981 69.2926 84.4981 70.3168H85.4981ZM86.2181 68.2208L86.9976 68.8472C87.3524 68.4057 87.8568 68.0358 88.5554 67.7581L88.1861 66.8288L87.8168 65.8995C86.8514 66.2832 86.0438 66.8412 85.4386 67.5944L86.2181 68.2208ZM88.1861 66.8288L88.5514 67.7597C89.26 67.4816 90.0826 67.3328 91.0341 67.3328V66.3328V65.3328C89.8736 65.3328 88.7975 65.5147 87.8208 65.8979L88.1861 66.8288ZM91.0341 67.9808V66.9808C90.2595 66.9808 89.5362 67.0896 88.8813 67.3302L89.2261 68.2688L89.5709 69.2075C89.9614 69.0641 90.4434 68.9808 91.0341 68.9808V67.9808ZM89.2261 68.2688L88.8923 67.3262C88.249 67.554 87.6867 67.9044 87.2618 68.408L88.0261 69.0528L88.7904 69.6977C88.9415 69.5186 89.1792 69.3463 89.5599 69.2114L89.2261 68.2688ZM88.0261 69.0528L87.2618 68.408C86.8028 68.9519 86.5941 69.6103 86.5941 70.3168H87.5941H88.5941C88.5941 70.0207 88.6734 69.8364 88.7904 69.6977L88.0261 69.0528ZM87.5941 70.3168H86.5941C86.5941 71.0139 86.8095 71.657 87.2521 72.1981L88.0261 71.5648L88.8001 70.9316C88.6667 70.7686 88.5941 70.5798 88.5941 70.3168H87.5941ZM88.0261 71.5648L87.2618 72.2097C87.6825 72.7083 88.2383 73.0624 88.875 73.3012L89.2261 72.3648L89.5772 71.4285C89.1899 71.2833 88.9457 71.104 88.7904 70.92L88.0261 71.5648ZM89.2261 72.3648L88.8983 73.3096C89.5478 73.5349 90.265 73.6368 91.0341 73.6368V72.6368V71.6368C90.4379 71.6368 89.9498 71.5574 89.5539 71.4201L89.2261 72.3648ZM91.0341 72.6368V73.6368C91.8112 73.6368 92.5317 73.5356 93.1759 73.3074L92.8421 72.3648L92.5083 71.4222C92.1285 71.5567 91.6436 71.6368 91.0341 71.6368V72.6368ZM92.8421 72.3648L93.1869 73.3035C93.8341 73.0657 94.401 72.7089 94.8182 72.1954L94.0421 71.5648L93.266 70.9342C93.1286 71.1034 92.8954 71.2799 92.4973 71.4262L92.8421 72.3648ZM94.0421 71.5648L94.8161 72.1981C95.2587 71.657 95.4741 71.0139 95.4741 70.3168H94.4741H93.4741C93.4741 70.5798 93.4015 70.7686 93.2681 70.9316L94.0421 71.5648ZM94.4741 70.3168H95.4741C95.4741 69.6103 95.2654 68.9519 94.8064 68.408L94.0421 69.0528L93.2778 69.6977C93.3948 69.8364 93.4741 70.0207 93.4741 70.3168H94.4741ZM94.0421 69.0528L94.8182 68.4222C94.3968 67.9035 93.8233 67.5508 93.1699 67.3241L92.8421 68.2688L92.5143 69.2136C92.9062 69.3495 93.1328 69.5194 93.266 69.6834L94.0421 69.0528ZM92.8421 68.2688L93.1932 67.3325C92.5434 67.0888 91.8166 66.9808 91.0341 66.9808V67.9808V68.9808C91.6383 68.9808 92.1168 69.0648 92.491 69.2052L92.8421 68.2688ZM100.713 66.2688V65.2688H99.7129V66.2688H100.713ZM110.089 66.2688H111.089V65.2688H110.089V66.2688ZM110.089 67.9488V68.9488H111.089V67.9488H110.089ZM100.713 67.9488H99.7129V68.9488H100.713V67.9488ZM99.0649 71.5968V70.5968H98.0649V71.5968H99.0649ZM112.489 71.5968H113.489V70.5968H112.489V71.5968ZM112.489 73.2768V74.2768H113.489V73.2768H112.489ZM99.0649 73.2768H98.0649V74.2768H99.0649V73.2768ZM108.809 66.2688V65.2688H107.809V66.2688H108.809ZM110.905 66.2688H111.905V65.2688H110.905V66.2688ZM110.857 69.4848L111.856 69.5289L111.856 69.5289L110.857 69.4848ZM110.473 72.0128L110.465 73.0128L111.265 73.0188L111.447 72.2401L110.473 72.0128ZM108.345 71.9968L107.373 71.7618L107.077 72.9873L108.337 72.9968L108.345 71.9968ZM108.745 69.4688L107.747 69.4092L107.746 69.4167L107.746 69.4241L108.745 69.4688ZM100.633 74.8288V73.8288H99.6329V74.8288H100.633ZM110.841 74.8288H111.841V73.8288H110.841V74.8288ZM110.841 80.2688V81.2688H111.841V80.2688H110.841ZM100.633 80.2688H99.6329V81.2688H100.633V80.2688ZM108.761 76.4928H109.761V75.4928H108.761V76.4928ZM102.729 76.4928V75.4928H101.729V76.4928H102.729ZM102.729 78.5888H101.729V79.5888H102.729V78.5888ZM108.761 78.5888V79.5888H109.761V78.5888H108.761ZM100.713 66.2688V67.2688H110.089V66.2688V65.2688H100.713V66.2688ZM110.089 66.2688H109.089V67.9488H110.089H111.089V66.2688H110.089ZM110.089 67.9488V66.9488H100.713V67.9488V68.9488H110.089V67.9488ZM100.713 67.9488H101.713V66.2688H100.713H99.7129V67.9488H100.713ZM99.0649 71.5968V72.5968H112.489V71.5968V70.5968H99.0649V71.5968ZM112.489 71.5968H111.489V73.2768H112.489H113.489V71.5968H112.489ZM112.489 73.2768V72.2768H99.0649V73.2768V74.2768H112.489V73.2768ZM99.0649 73.2768H100.065V71.5968H99.0649H98.0649V73.2768H99.0649ZM108.809 66.2688V67.2688H110.905V66.2688V65.2688H108.809V66.2688ZM110.905 66.2688H109.905V67.4528H110.905H111.905V66.2688H110.905ZM110.905 67.4528H109.905C109.905 68.0654 109.889 68.7279 109.858 69.4407L110.857 69.4848L111.856 69.5289C111.888 68.7911 111.905 68.0989 111.905 67.4528H110.905ZM110.857 69.4848L109.858 69.4407C109.829 70.087 109.714 70.866 109.499 71.7856L110.473 72.0128L111.447 72.2401C111.68 71.2397 111.82 70.3333 111.856 69.5289L110.857 69.4848ZM110.473 72.0128L110.48 71.0128L108.352 70.9968L108.345 71.9968L108.337 72.9968L110.465 73.0128L110.473 72.0128ZM108.345 71.9968L109.317 72.2318C109.561 71.2212 109.708 70.3119 109.744 69.5136L108.745 69.4688L107.746 69.4241C107.718 70.055 107.598 70.8311 107.373 71.7618L108.345 71.9968ZM108.745 69.4688L109.743 69.5284C109.787 68.7965 109.809 68.1045 109.809 67.4528H108.809H107.809C107.809 68.0598 107.788 68.7118 107.747 69.4092L108.745 69.4688ZM108.809 67.4528H109.809V66.2688H108.809H107.809V67.4528H108.809ZM100.633 74.8288V75.8288H110.841V74.8288V73.8288H100.633V74.8288ZM110.841 74.8288H109.841V80.2688H110.841H111.841V74.8288H110.841ZM110.841 80.2688V79.2688H100.633V80.2688V81.2688H110.841V80.2688ZM100.633 80.2688H101.633V74.8288H100.633H99.6329V80.2688H100.633ZM108.761 76.4928V75.4928H102.729V76.4928V77.4928H108.761V76.4928ZM102.729 76.4928H101.729V78.5888H102.729H103.729V76.4928H102.729ZM102.729 78.5888V79.5888H108.761V78.5888V77.5888H102.729V78.5888ZM108.761 78.5888H109.761V76.4928H108.761H107.761V78.5888H108.761ZM124.472 65.5968V64.5968H123.472V65.5968H124.472ZM126.504 65.5968H127.504V64.5968H126.504V65.5968ZM126.504 80.4128V81.4128H127.504V80.4128H126.504ZM124.472 80.4128H123.472V81.4128H124.472V80.4128ZM119.592 70.6688V69.6688H118.592V70.6688H119.592ZM122.056 70.6688H123.056V69.6688H122.056V70.6688ZM122.056 72.3968V73.3968H123.056V72.3968H122.056ZM119.592 72.3968H118.592V73.3968H119.592V72.3968ZM121.48 65.8368V64.8368H120.48V65.8368H121.48ZM123.464 65.8368H124.464V64.8368H123.464V65.8368ZM123.464 79.7408V80.7408H124.464V79.7408H123.464ZM121.48 79.7408H120.48V80.7408H121.48V79.7408ZM116.408 68.0128V67.0128H115.408V68.0128H116.408ZM118.008 68.0128H119.008V67.0128H118.008V68.0128ZM117.816 71.9968L116.828 71.8408L116.826 71.8536L117.816 71.9968ZM117.256 74.3008L118.197 74.6381L118.199 74.6336L117.256 74.3008ZM114.744 77.6608L113.965 78.2884L114.526 78.9845L115.28 78.5045L114.744 77.6608ZM113.48 76.0928L112.945 75.2476L111.997 75.8471L112.701 76.7204L113.48 76.0928ZM115.208 74.3648L116.059 74.8889L116.063 74.8831L115.208 74.3648ZM116.12 72.0608L115.145 71.8387L115.143 71.8479L116.12 72.0608ZM116.888 68.0128V67.0128H115.888V68.0128H116.888ZM118.472 68.0128H119.472V67.0128H118.472V68.0128ZM118.744 71.9648L117.768 72.1859L117.768 72.1859L118.744 71.9648ZM119.64 74.1568L118.793 74.6893L118.797 74.6955L119.64 74.1568ZM121.336 75.7568L122.116 76.3825L122.842 75.4767L121.839 74.8926L121.336 75.7568ZM120.104 77.2928L119.593 78.1524L120.34 78.5967L120.884 77.9185L120.104 77.2928ZM118.216 75.3888L117.353 75.8948L117.353 75.8948L118.216 75.3888ZM117.192 72.6848L116.211 72.881L116.213 72.8929L117.192 72.6848ZM114.024 67.0848V66.0848H113.024V67.0848H114.024ZM120.632 67.0848H121.632V66.0848H120.632V67.0848ZM120.632 68.7968V69.7968H121.632V68.7968H120.632ZM114.024 68.7968H113.024V69.7968H114.024V68.7968ZM124.472 65.5968V66.5968H126.504V65.5968V64.5968H124.472V65.5968ZM126.504 65.5968H125.504V80.4128H126.504H127.504V65.5968H126.504ZM126.504 80.4128V79.4128H124.472V80.4128V81.4128H126.504V80.4128ZM124.472 80.4128H125.472V65.5968H124.472H123.472V80.4128H124.472ZM119.592 70.6688V71.6688H122.056V70.6688V69.6688H119.592V70.6688ZM122.056 70.6688H121.056V72.3968H122.056H123.056V70.6688H122.056ZM122.056 72.3968V71.3968H119.592V72.3968V73.3968H122.056V72.3968ZM119.592 72.3968H120.592V70.6688H119.592H118.592V72.3968H119.592ZM121.48 65.8368V66.8368H123.464V65.8368V64.8368H121.48V65.8368ZM123.464 65.8368H122.464V79.7408H123.464H124.464V65.8368H123.464ZM123.464 79.7408V78.7408H121.48V79.7408V80.7408H123.464V79.7408ZM121.48 79.7408H122.48V65.8368H121.48H120.48V79.7408H121.48ZM116.408 68.0128V69.0128H118.008V68.0128V67.0128H116.408V68.0128ZM118.008 68.0128H117.008V69.5328H118.008H119.008V68.0128H118.008ZM118.008 69.5328H117.008C117.008 70.3133 116.948 71.0825 116.828 71.8409L117.816 71.9968L118.803 72.1528C118.94 71.2898 119.008 70.4163 119.008 69.5328H118.008ZM117.816 71.9968L116.826 71.8536C116.717 72.6038 116.546 73.308 116.313 73.968L117.256 74.3008L118.199 74.6336C118.478 73.843 118.679 73.0111 118.805 72.1401L117.816 71.9968ZM117.256 74.3008L116.314 73.9636C116.088 74.5958 115.794 75.1566 115.437 75.6513L116.248 76.2368L117.058 76.8223C117.533 76.1651 117.911 75.4352 118.197 74.638L117.256 74.3008ZM116.248 76.2368L115.437 75.6513C115.093 76.127 114.684 76.5133 114.207 76.8172L114.744 77.6608L115.28 78.5045C115.976 78.0617 116.57 77.4986 117.058 76.8223L116.248 76.2368ZM114.744 77.6608L115.522 77.0332L114.258 75.4652L113.48 76.0928L112.701 76.7204L113.965 78.2884L114.744 77.6608ZM113.48 76.0928L114.014 76.938C114.861 76.4024 115.548 75.7191 116.059 74.8889L115.208 74.3648L114.356 73.8407C114.013 74.3972 113.549 74.8659 112.945 75.2476L113.48 76.0928ZM115.208 74.3648L116.063 74.8831C116.549 74.0815 116.893 73.2098 117.097 72.2738L116.12 72.0608L115.143 71.8479C114.984 72.5758 114.72 73.2401 114.352 73.8465L115.208 74.3648ZM116.12 72.0608L117.095 72.283C117.303 71.3693 117.408 70.4521 117.408 69.5328H116.408H115.408C115.408 70.2988 115.32 71.067 115.145 71.8387L116.12 72.0608ZM116.408 69.5328H117.408V68.0128H116.408H115.408V69.5328H116.408ZM116.888 68.0128V69.0128H118.472V68.0128V67.0128H116.888V68.0128ZM118.472 68.0128H117.472V69.5328H118.472H119.472V68.0128H118.472ZM118.472 69.5328H117.472C117.472 70.4284 117.571 71.3133 117.768 72.1859L118.744 71.9648L119.719 71.7438C119.554 71.0164 119.472 70.2799 119.472 69.5328H118.472ZM118.744 71.9648L117.768 72.1859C117.973 73.0907 118.314 73.9275 118.793 74.6893L119.64 74.1568L120.486 73.6244C120.133 73.0635 119.876 72.439 119.719 71.7438L118.744 71.9648ZM119.64 74.1568L118.797 74.6955C119.305 75.4895 119.99 76.1309 120.833 76.6211L121.336 75.7568L121.839 74.8926C121.251 74.5508 120.806 74.1255 120.482 73.6182L119.64 74.1568ZM121.336 75.7568L120.556 75.1311L119.324 76.6671L120.104 77.2928L120.884 77.9185L122.116 76.3825L121.336 75.7568ZM120.104 77.2928L120.615 76.4333C119.972 76.0511 119.463 75.5387 119.078 74.8828L118.216 75.3888L117.353 75.8948C117.907 76.8389 118.657 77.5958 119.593 78.1524L120.104 77.2928ZM118.216 75.3888L119.078 74.8828C118.668 74.1845 118.363 73.3855 118.17 72.4767L117.192 72.6848L116.213 72.8929C116.447 73.9895 116.824 74.9932 117.353 75.8948L118.216 75.3888ZM117.192 72.6848L118.172 72.4887C117.983 71.5433 117.888 70.5584 117.888 69.5328H116.888H115.888C115.888 70.6832 115.995 71.7997 116.211 72.8809L117.192 72.6848ZM116.888 69.5328H117.888V68.0128H116.888H115.888V69.5328H116.888ZM114.024 67.0848V68.0848H120.632V67.0848V66.0848H114.024V67.0848ZM120.632 67.0848H119.632V68.7968H120.632H121.632V67.0848H120.632ZM120.632 68.7968V67.7968H114.024V68.7968V69.7968H120.632V68.7968ZM114.024 68.7968H115.024V67.0848H114.024H113.024V68.7968H114.024ZM132.166 79.0048V80.0048H133.166V79.0048H132.166ZM130.358 79.0048H129.358V80.0048H130.358V79.0048ZM130.358 70.1888H131.358V67.9966L129.703 69.4337L130.358 70.1888ZM128.054 72.1888H127.054V74.3811L128.71 72.944L128.054 72.1888ZM128.054 70.2688L127.396 69.5162L127.054 69.8151V70.2688H128.054ZM130.358 68.2528V67.2528H129.983L129.7 67.5002L130.358 68.2528ZM132.166 68.2528H133.166V67.2528H132.166V68.2528ZM132.166 79.0048V78.0048H130.358V79.0048V80.0048H132.166V79.0048ZM130.358 79.0048H131.358V70.1888H130.358H129.358V79.0048H130.358ZM130.358 70.1888L129.703 69.4337L127.399 71.4337L128.054 72.1888L128.71 72.944L131.014 70.944L130.358 70.1888ZM128.054 72.1888H129.054V70.2688H128.054H127.054V72.1888H128.054ZM128.054 70.2688L128.713 71.0214L131.017 69.0054L130.358 68.2528L129.7 67.5002L127.396 69.5162L128.054 70.2688ZM130.358 68.2528V69.2528H132.166V68.2528V67.2528H130.358V68.2528ZM132.166 68.2528H131.166V79.0048H132.166H133.166V68.2528H132.166ZM147.21 65.6128V64.6128H146.21V65.6128H147.21ZM149.338 65.6128H150.338V64.6128H149.338V65.6128ZM149.338 76.4128V77.4128H150.338V76.4128H149.338ZM147.21 76.4128H146.21V77.4128H147.21V76.4128ZM139.466 78.4608V77.4608H138.466V78.4608H139.466ZM149.722 78.4608H150.722V77.4608H149.722V78.4608ZM149.722 80.1728V81.1728H150.722V80.1728H149.722ZM139.466 80.1728H138.466V81.1728H139.466V80.1728ZM139.466 75.3728V74.3728H138.466V75.3728H139.466ZM141.594 75.3728H142.594V74.3728H141.594V75.3728ZM141.594 79.3408V80.3408H142.594V79.3408H141.594ZM139.466 79.3408H138.466V80.3408H139.466V79.3408ZM140.506 66.4288V65.4288H139.506V66.4288H140.506ZM142.266 66.4288H143.266V65.4288H142.266V66.4288ZM141.802 70.6208L140.859 70.2874L140.855 70.2977L141.802 70.6208ZM140.426 72.9248L141.156 73.608L141.156 73.608L140.426 72.9248ZM138.058 74.4288L137.216 74.9688L137.645 75.637L138.393 75.371L138.058 74.4288ZM136.97 72.7328L136.642 71.7878L135.442 72.2034L136.128 73.2728L136.97 72.7328ZM138.986 71.5328L138.286 70.8184L138.278 70.8257L138.986 71.5328ZM140.138 69.8048L139.204 69.4469L140.138 69.8048ZM140.938 66.4288V65.4288H139.938V66.4288H140.938ZM142.666 66.4288H143.666V65.4288H142.666V66.4288ZM142.858 69.2928L141.893 69.5559L141.896 69.5691L141.9 69.5822L142.858 69.2928ZM143.482 70.6048L142.649 71.1596L142.656 71.1695L143.482 70.6048ZM144.554 71.7088L145.157 70.9112L145.157 70.9112L144.554 71.7088ZM146.106 72.4928L146.949 73.0307L147.646 71.9376L146.412 71.5408L146.106 72.4928ZM145.034 74.1728L144.721 75.1226L145.459 75.3658L145.877 74.7107L145.034 74.1728ZM142.714 72.7648L143.433 72.07L143.433 72.07L142.714 72.7648ZM141.37 70.5568L140.423 70.8802L140.423 70.8802L141.37 70.5568ZM147.21 65.6128V66.6128H149.338V65.6128V64.6128H147.21V65.6128ZM149.338 65.6128H148.338V76.4128H149.338H150.338V65.6128H149.338ZM149.338 76.4128V75.4128H147.21V76.4128V77.4128H149.338V76.4128ZM147.21 76.4128H148.21V65.6128H147.21H146.21V76.4128H147.21ZM139.466 78.4608V79.4608H149.722V78.4608V77.4608H139.466V78.4608ZM149.722 78.4608H148.722V80.1728H149.722H150.722V78.4608H149.722ZM149.722 80.1728V79.1728H139.466V80.1728V81.1728H149.722V80.1728ZM139.466 80.1728H140.466V78.4608H139.466H138.466V80.1728H139.466ZM139.466 75.3728V76.3728H141.594V75.3728V74.3728H139.466V75.3728ZM141.594 75.3728H140.594V79.3408H141.594H142.594V75.3728H141.594ZM141.594 79.3408V78.3408H139.466V79.3408V80.3408H141.594V79.3408ZM139.466 79.3408H140.466V75.3728H139.466H138.466V79.3408H139.466ZM140.506 66.4288V67.4288H142.266V66.4288V65.4288H140.506V66.4288ZM142.266 66.4288H141.266V67.8688H142.266H143.266V66.4288H142.266ZM142.266 67.8688H141.266C141.266 68.7192 141.129 69.5235 140.859 70.2874L141.802 70.6208L142.744 70.9542C143.093 69.9688 143.266 68.9384 143.266 67.8688H142.266ZM141.802 70.6208L140.855 70.2977C140.601 71.0412 140.215 71.6859 139.695 72.2417L140.426 72.9248L141.156 73.608C141.873 72.8411 142.405 71.9497 142.748 70.944L141.802 70.6208ZM140.426 72.9248L139.695 72.2417C139.199 72.7724 138.551 73.192 137.723 73.4866L138.058 74.4288L138.393 75.371C139.484 74.9829 140.415 74.3999 141.156 73.608L140.426 72.9248ZM138.058 74.4288L138.899 73.8889L137.811 72.1929L136.97 72.7328L136.128 73.2728L137.216 74.9688L138.058 74.4288ZM136.97 72.7328L137.297 73.6778C138.241 73.3508 139.053 72.8796 139.693 72.2399L138.986 71.5328L138.278 70.8257C137.894 71.2101 137.362 71.5388 136.642 71.7878L136.97 72.7328ZM138.986 71.5328L139.685 72.2472C140.304 71.6415 140.771 70.9459 141.071 70.1628L140.138 69.8048L139.204 69.4469C139.013 69.9437 138.713 70.4002 138.286 70.8185L138.986 71.5328ZM140.138 69.8048L141.071 70.1628C141.358 69.4147 141.506 68.6483 141.506 67.8688H140.506H139.506C139.506 68.3907 139.408 68.915 139.204 69.4469L140.138 69.8048ZM140.506 67.8688H141.506V66.4288H140.506H139.506V67.8688H140.506ZM140.938 66.4288V67.4288H142.666V66.4288V65.4288H140.938V66.4288ZM142.666 66.4288H141.666V67.8688H142.666H143.666V66.4288H142.666ZM142.666 67.8688H141.666C141.666 68.4389 141.742 69.002 141.893 69.5559L142.858 69.2928L143.822 69.0297C143.717 68.645 143.666 68.2587 143.666 67.8688H142.666ZM142.858 69.2928L141.9 69.5822C142.069 70.139 142.32 70.6653 142.65 71.1595L143.482 70.6048L144.314 70.0501C144.088 69.7124 143.924 69.364 143.815 69.0034L142.858 69.2928ZM143.482 70.6048L142.656 71.1695C143.001 71.6737 143.437 72.1182 143.95 72.5065L144.554 71.7088L145.157 70.9112C144.796 70.6381 144.517 70.3466 144.307 70.0401L143.482 70.6048ZM144.554 71.7088L143.95 72.5065C144.489 72.9139 145.11 73.2233 145.8 73.4449L146.106 72.4928L146.412 71.5408C145.906 71.3783 145.492 71.165 145.157 70.9112L144.554 71.7088ZM146.106 72.4928L145.263 71.9549L144.191 73.6349L145.034 74.1728L145.877 74.7107L146.949 73.0307L146.106 72.4928ZM145.034 74.1728L145.347 73.2231C144.542 72.9579 143.914 72.5683 143.433 72.07L142.714 72.7648L141.994 73.4596C142.729 74.22 143.648 74.7691 144.721 75.1226L145.034 74.1728ZM142.714 72.7648L143.433 72.07C142.929 71.5482 142.557 70.9396 142.316 70.2334L141.37 70.5568L140.423 70.8802C140.758 71.8593 141.283 72.7228 141.994 73.4596L142.714 72.7648ZM141.37 70.5568L142.316 70.2334C142.066 69.5015 141.938 68.7154 141.938 67.8688H140.938H139.938C139.938 68.9209 140.097 69.9268 140.423 70.8802L141.37 70.5568ZM140.938 67.8688H141.938V66.4288H140.938H139.938V67.8688H140.938ZM155.064 68.2048V67.2048H154.064V68.2048H155.064ZM156.792 68.2048H157.792V67.2048H156.792V68.2048ZM156.344 71.1808L157.276 71.5433L157.276 71.5433L156.344 71.1808ZM154.968 73.1808L154.294 72.4426L154.287 72.4485L154.968 73.1808ZM152.648 74.4448L151.795 74.9666L152.196 75.6213L152.932 75.4038L152.648 74.4448ZM151.64 72.7968L151.359 71.8373L150.106 72.2048L150.787 73.3186L151.64 72.7968ZM153.592 71.8208L154.231 72.5904L154.233 72.589L153.592 71.8208ZM154.712 70.3808L155.628 70.7836L155.631 70.7769L154.712 70.3808ZM155.464 68.2048V67.2048H154.464V68.2048H155.464ZM157.192 68.2048H158.192V67.2048H157.192V68.2048ZM157.384 69.8688L156.438 70.1931L156.443 70.2051L156.447 70.217L157.384 69.8688ZM158.008 70.9248L157.242 71.5674L157.248 71.5746L157.254 71.5816L158.008 70.9248ZM159.096 71.8048L158.591 72.6678L158.591 72.6678L159.096 71.8048ZM160.632 72.4288L161.499 72.9285L162.147 71.8053L160.895 71.4641L160.632 72.4288ZM159.672 74.0928L159.409 75.0576L160.153 75.2605L160.539 74.5925L159.672 74.0928ZM157.32 72.9248L156.667 73.6822L156.674 73.6882L156.681 73.6941L157.32 72.9248ZM155.928 71.0368L155.009 71.4291L155.928 71.0368ZM152.152 67.1328V66.1328H151.152V67.1328H152.152ZM160.12 67.1328H161.12V66.1328H160.12V67.1328ZM160.12 68.8128V69.8128H161.12V68.8128H160.12ZM152.152 68.8128H151.152V69.8128H152.152V68.8128ZM155.064 65.5488V64.5488H154.064V65.5488H155.064ZM157.192 65.5488H158.192V64.5488H157.192V65.5488ZM157.192 67.8048V68.8048H158.192V67.8048H157.192ZM155.064 67.8048H154.064V68.8048H155.064V67.8048ZM159.704 69.5488V68.5488H158.704V69.5488H159.704ZM162.52 69.5488H163.52V68.5488H162.52V69.5488ZM162.52 71.2608V72.2608H163.52V71.2608H162.52ZM159.704 71.2608H158.704V72.2608H159.704V71.2608ZM162.008 65.6128V64.6128H161.008V65.6128H162.008ZM164.152 65.6128H165.152V64.6128H164.152V65.6128ZM164.152 74.5568V75.5568H165.152V74.5568H164.152ZM162.008 74.5568H161.008V75.5568H162.008V74.5568ZM162.84 75.5328L162.364 76.4123L162.364 76.4123L162.84 75.5328ZM162.84 79.6768L162.364 78.7973L162.356 78.8017L162.84 79.6768ZM155.416 79.6768L155.9 78.8017L155.892 78.7973L155.416 79.6768ZM157.496 76.5568L157.309 75.5745L157.305 75.5753L157.496 76.5568ZM156.504 76.9568L157.11 77.7523L157.122 77.7433L157.134 77.7341L156.504 76.9568ZM156.504 78.2688L157.134 77.4916L157.134 77.4916L156.504 78.2688ZM157.496 78.6688L157.305 79.6503L157.309 79.6512L157.496 78.6688ZM160.76 78.6688L160.569 77.6873L160.569 77.6873L160.76 78.6688ZM161.736 78.2688L161.107 77.4916L161.098 77.4991L161.089 77.5069L161.736 78.2688ZM161.736 76.9568L161.089 77.7188L161.109 77.7361L161.13 77.7523L161.736 76.9568ZM155.064 68.2048V69.2048H156.792V68.2048V67.2048H155.064V68.2048ZM156.792 68.2048H155.792V68.7328H156.792H157.792V68.2048H156.792ZM156.792 68.7328H155.792C155.792 69.4789 155.664 70.1715 155.412 70.8184L156.344 71.1808L157.276 71.5433C157.622 70.6542 157.792 69.7147 157.792 68.7328H156.792ZM156.344 71.1808L155.412 70.8184C155.17 71.4405 154.801 71.9792 154.294 72.4426L154.968 73.1808L155.643 73.919C156.373 73.2517 156.921 72.4572 157.276 71.5433L156.344 71.1808ZM154.968 73.1808L154.287 72.4485C153.811 72.8913 153.182 73.2445 152.365 73.4858L152.648 74.4448L152.932 75.4038C153.992 75.0905 154.91 74.601 155.649 73.9132L154.968 73.1808ZM152.648 74.4448L153.501 73.923L152.493 72.275L151.64 72.7968L150.787 73.3186L151.795 74.9666L152.648 74.4448ZM151.64 72.7968L151.922 73.7564C152.817 73.4937 153.6 73.1141 154.231 72.5904L153.592 71.8208L152.954 71.0513C152.582 71.3596 152.063 71.6306 151.359 71.8373L151.64 72.7968ZM153.592 71.8208L154.233 72.589C154.846 72.0777 155.322 71.4774 155.628 70.7836L154.712 70.3808L153.797 69.9781C153.633 70.3509 153.363 70.7106 152.952 71.0526L153.592 71.8208ZM154.712 70.3808L155.631 70.7769C155.915 70.1165 156.064 69.4328 156.064 68.7328H155.064H154.064C154.064 69.1422 153.979 69.5572 153.794 69.9847L154.712 70.3808ZM155.064 68.7328H156.064V68.2048H155.064H154.064V68.7328H155.064ZM155.464 68.2048V69.2048H157.192V68.2048V67.2048H155.464V68.2048ZM157.192 68.2048H156.192V68.7328H157.192H158.192V68.2048H157.192ZM157.192 68.7328H156.192C156.192 69.2302 156.276 69.7184 156.438 70.1931L157.384 69.8688L158.33 69.5445C158.237 69.2726 158.192 69.0034 158.192 68.7328H157.192ZM157.384 69.8688L156.447 70.217C156.629 70.7062 156.897 71.1565 157.242 71.5674L158.008 70.9248L158.775 70.2822C158.565 70.0318 158.417 69.7781 158.322 69.5206L157.384 69.8688ZM158.008 70.9248L157.254 71.5816C157.624 72.0057 158.075 72.3654 158.591 72.6678L159.096 71.8048L159.602 70.9418C159.244 70.7322 158.969 70.5053 158.762 70.268L158.008 70.9248ZM159.096 71.8048L158.591 72.6678C159.118 72.9761 159.714 73.2149 160.369 73.3936L160.632 72.4288L160.895 71.4641C160.377 71.3227 159.95 71.1456 159.602 70.9418L159.096 71.8048ZM160.632 72.4288L159.766 71.9291L158.806 73.5931L159.672 74.0928L160.539 74.5925L161.499 72.9285L160.632 72.4288ZM159.672 74.0928L159.935 73.1281C159.109 72.9026 158.46 72.5713 157.959 72.1555L157.32 72.9248L156.681 73.6941C157.439 74.3236 158.359 74.771 159.409 75.0576L159.672 74.0928ZM157.32 72.9248L157.973 72.1674C157.466 71.7301 157.095 71.2243 156.848 70.6445L155.928 71.0368L155.009 71.4291C155.38 72.3 155.937 73.0529 156.667 73.6822L157.32 72.9248ZM155.928 71.0368L156.848 70.6445C156.593 70.0467 156.464 69.4125 156.464 68.7328H155.464H154.464C154.464 69.6744 154.645 70.5762 155.009 71.4291L155.928 71.0368ZM155.464 68.7328H156.464V68.2048H155.464H154.464V68.7328H155.464ZM152.152 67.1328V68.1328H160.12V67.1328V66.1328H152.152V67.1328ZM160.12 67.1328H159.12V68.8128H160.12H161.12V67.1328H160.12ZM160.12 68.8128V67.8128H152.152V68.8128V69.8128H160.12V68.8128ZM152.152 68.8128H153.152V67.1328H152.152H151.152V68.8128H152.152ZM155.064 65.5488V66.5488H157.192V65.5488V64.5488H155.064V65.5488ZM157.192 65.5488H156.192V67.8048H157.192H158.192V65.5488H157.192ZM157.192 67.8048V66.8048H155.064V67.8048V68.8048H157.192V67.8048ZM155.064 67.8048H156.064V65.5488H155.064H154.064V67.8048H155.064ZM159.704 69.5488V70.5488H162.52V69.5488V68.5488H159.704V69.5488ZM162.52 69.5488H161.52V71.2608H162.52H163.52V69.5488H162.52ZM162.52 71.2608V70.2608H159.704V71.2608V72.2608H162.52V71.2608ZM159.704 71.2608H160.704V69.5488H159.704H158.704V71.2608H159.704ZM162.008 65.6128V66.6128H164.152V65.6128V64.6128H162.008V65.6128ZM164.152 65.6128H163.152V74.5568H164.152H165.152V65.6128H164.152ZM164.152 74.5568V73.5568H162.008V74.5568V75.5568H164.152V74.5568ZM162.008 74.5568H163.008V65.6128H162.008H161.008V74.5568H162.008ZM159.128 74.7968V75.7968C160.609 75.7968 161.661 76.0314 162.364 76.4123L162.84 75.5328L163.316 74.6533C162.207 74.0529 160.783 73.7968 159.128 73.7968V74.7968ZM162.84 75.5328L162.364 76.4123C163.007 76.7601 163.2 77.1464 163.2 77.6128H164.2H165.2C165.2 76.2873 164.487 75.2869 163.316 74.6533L162.84 75.5328ZM164.2 77.6128H163.2C163.2 78.0635 163.012 78.4467 162.364 78.7973L162.84 79.6768L163.316 80.5563C164.482 79.9256 165.2 78.9328 165.2 77.6128H164.2ZM162.84 79.6768L162.356 78.8017C161.655 79.1896 160.607 79.4288 159.128 79.4288V80.4288V81.4288C160.786 81.4288 162.212 81.1667 163.324 80.5519L162.84 79.6768ZM159.128 80.4288V79.4288C157.65 79.4288 156.602 79.1896 155.9 78.8017L155.416 79.6768L154.932 80.5519C156.044 81.1667 157.471 81.4288 159.128 81.4288V80.4288ZM155.416 79.6768L155.892 78.7973C155.244 78.4467 155.056 78.0635 155.056 77.6128H154.056H153.056C153.056 78.9328 153.775 79.9256 154.94 80.5563L155.416 79.6768ZM154.056 77.6128H155.056C155.056 77.1464 155.25 76.7601 155.892 76.4123L155.416 75.5328L154.94 74.6533C153.77 75.2869 153.056 76.2873 153.056 77.6128H154.056ZM155.416 75.5328L155.892 76.4123C156.596 76.0314 157.647 75.7968 159.128 75.7968V74.7968V73.7968C157.473 73.7968 156.05 74.0529 154.94 74.6533L155.416 75.5328ZM159.128 76.4288V75.4288C158.449 75.4288 157.838 75.4738 157.309 75.5745L157.496 76.5568L157.683 77.5392C158.051 77.4692 158.528 77.4288 159.128 77.4288V76.4288ZM157.496 76.5568L157.305 75.5753C156.787 75.6764 156.277 75.8543 155.875 76.1796L156.504 76.9568L157.134 77.7341C157.18 77.6967 157.331 77.6079 157.688 77.5383L157.496 76.5568ZM156.504 76.9568L155.898 76.1614C155.442 76.5089 155.168 77.0143 155.168 77.6128H156.168H157.168C157.168 77.6242 157.165 77.6611 157.142 77.7047C157.121 77.7465 157.1 77.7603 157.11 77.7523L156.504 76.9568ZM156.168 77.6128H155.168C155.168 78.211 155.45 78.7019 155.875 79.0461L156.504 78.2688L157.134 77.4916C157.111 77.4737 157.125 77.4785 157.142 77.5129C157.151 77.5295 157.158 77.5484 157.163 77.5682C157.167 77.5877 157.168 77.6033 157.168 77.6128H156.168ZM156.504 78.2688L155.875 79.0461C156.277 79.3714 156.787 79.5492 157.305 79.6503L157.496 78.6688L157.688 77.6873C157.331 77.6178 157.18 77.5289 157.134 77.4916L156.504 78.2688ZM157.496 78.6688L157.309 79.6512C157.838 79.7519 158.449 79.7968 159.128 79.7968V78.7968V77.7968C158.528 77.7968 158.051 77.7564 157.683 77.6865L157.496 78.6688ZM159.128 78.7968V79.7968C159.817 79.7968 160.43 79.7522 160.952 79.6503L160.76 78.6688L160.569 77.6873C160.216 77.7561 159.741 77.7968 159.128 77.7968V78.7968ZM160.76 78.6688L160.952 79.6503C161.468 79.5497 161.985 79.3703 162.384 79.0308L161.736 78.2688L161.089 77.5069C161.062 77.53 160.928 77.6173 160.569 77.6873L160.76 78.6688ZM161.736 78.2688L162.366 79.0461C162.791 78.7019 163.072 78.211 163.072 77.6128H162.072H161.072C161.072 77.6033 161.073 77.5877 161.078 77.5682C161.083 77.5484 161.09 77.5295 161.098 77.5129C161.116 77.4785 161.129 77.4737 161.107 77.4916L161.736 78.2688ZM162.072 77.6128H163.072C163.072 77.0143 162.798 76.5089 162.342 76.1614L161.736 76.9568L161.13 77.7523C161.141 77.7603 161.12 77.7465 161.098 77.7047C161.076 77.6611 161.072 77.6242 161.072 77.6128H162.072ZM161.736 76.9568L162.384 76.1949C161.985 75.8553 161.468 75.676 160.952 75.5753L160.76 76.5568L160.569 77.5383C160.928 77.6083 161.062 77.6957 161.089 77.7188L161.736 76.9568ZM160.76 76.5568L160.952 75.5753C160.43 75.4735 159.817 75.4288 159.128 75.4288V76.4288V77.4288C159.741 77.4288 160.216 77.4695 160.569 77.5383L160.76 76.5568Z" fill="#FF1595" mask="url(#path-3-inside-1_776_6064)"/>
<rect x="193.56" y="48.843" width="118.665" height="48.0672" rx="12" fill="#F6339A"/>
<path d="M213.991 73.1328H216.119V77.2768H213.991V73.1328ZM219.367 73.1328H221.495V77.2768H219.367V73.1328ZM211.047 76.9728H224.471V78.7008H211.047V76.9728ZM217.735 66.3328C218.802 66.3328 219.751 66.4982 220.583 66.8288C221.426 67.1595 222.082 67.6235 222.551 68.2208C223.031 68.8075 223.271 69.5062 223.271 70.3168C223.271 71.1168 223.031 71.8155 222.551 72.4128C222.082 72.9995 221.426 73.4582 220.583 73.7888C219.751 74.1195 218.802 74.2848 217.735 74.2848C216.679 74.2848 215.73 74.1195 214.887 73.7888C214.055 73.4582 213.399 72.9995 212.919 72.4128C212.439 71.8155 212.199 71.1168 212.199 70.3168C212.199 69.5062 212.439 68.8075 212.919 68.2208C213.399 67.6235 214.055 67.1595 214.887 66.8288C215.73 66.4982 216.679 66.3328 217.735 66.3328ZM217.735 67.9808C217.053 67.9808 216.45 68.0768 215.927 68.2688C215.415 68.4502 215.015 68.7115 214.727 69.0528C214.439 69.3942 214.295 69.8155 214.295 70.3168C214.295 70.7968 214.439 71.2128 214.727 71.5648C215.015 71.9062 215.415 72.1728 215.927 72.3648C216.45 72.5462 217.053 72.6368 217.735 72.6368C218.429 72.6368 219.031 72.5462 219.543 72.3648C220.066 72.1728 220.466 71.9062 220.743 71.5648C221.031 71.2128 221.175 70.7968 221.175 70.3168C221.175 69.8155 221.031 69.3942 220.743 69.0528C220.466 68.7115 220.066 68.4502 219.543 68.2688C219.031 68.0768 218.429 67.9808 217.735 67.9808ZM227.414 66.2688H236.79V67.9488H227.414V66.2688ZM225.766 71.5968H239.19V73.2768H225.766V71.5968ZM235.51 66.2688H237.606V67.4528C237.606 68.0822 237.59 68.7595 237.558 69.4848C237.526 70.2102 237.398 71.0528 237.174 72.0128L235.046 71.9968C235.281 71.0262 235.414 70.1835 235.446 69.4688C235.489 68.7542 235.51 68.0822 235.51 67.4528V66.2688ZM227.334 74.8288H237.542V80.2688H227.334V74.8288ZM235.462 76.4928H229.43V78.5888H235.462V76.4928ZM251.173 65.5968H253.205V80.4128H251.173V65.5968ZM246.293 70.6688H248.757V72.3968H246.293V70.6688ZM248.181 65.8368H250.165V79.7408H248.181V65.8368ZM243.109 68.0128H244.709V69.5328C244.709 70.3648 244.645 71.1862 244.517 71.9968C244.399 72.8075 244.213 73.5755 243.957 74.3008C243.701 75.0155 243.365 75.6608 242.949 76.2368C242.533 76.8128 242.031 77.2875 241.445 77.6608L240.181 76.0928C240.906 75.6342 241.482 75.0582 241.909 74.3648C242.335 73.6608 242.639 72.8928 242.821 72.0608C243.013 71.2182 243.109 70.3755 243.109 69.5328V68.0128ZM243.589 68.0128H245.173V69.5328C245.173 70.3542 245.263 71.1648 245.445 71.9648C245.626 72.7648 245.925 73.4955 246.341 74.1568C246.757 74.8075 247.322 75.3408 248.037 75.7568L246.805 77.2928C246.015 76.8235 245.386 76.1888 244.917 75.3888C244.447 74.5888 244.106 73.6875 243.893 72.6848C243.69 71.6715 243.589 70.6208 243.589 69.5328V68.0128ZM240.725 67.0848H247.333V68.7968H240.725V67.0848ZM255.204 79.0048V77.7248L258.788 73.7728C259.828 72.6208 260.436 72.0608 260.436 71.0368C260.436 70.0768 259.908 69.6448 258.692 69.6448C257.364 69.6448 256.788 70.1248 256.724 71.5808H254.916C255.044 69.6288 256.564 68.0288 258.692 68.0288C260.868 68.0288 262.308 69.3088 262.308 71.0208C262.308 72.2688 261.716 73.0368 260.548 74.3168L257.684 77.4688H262.484V79.0048H255.204ZM276.786 65.6128H278.914V76.4128H276.786V65.6128ZM269.042 78.4608H279.298V80.1728H269.042V78.4608ZM269.042 75.3728H271.17V79.3408H269.042V75.3728ZM270.082 66.4288H271.842V67.8688C271.842 68.8288 271.687 69.7462 271.378 70.6208C271.079 71.4955 270.62 72.2635 270.002 72.9248C269.383 73.5862 268.594 74.0875 267.634 74.4288L266.546 72.7328C267.378 72.4448 268.05 72.0448 268.562 71.5328C269.084 71.0208 269.468 70.4448 269.714 69.8048C269.959 69.1648 270.082 68.5195 270.082 67.8688V66.4288ZM270.514 66.4288H272.242V67.8688C272.242 68.3488 272.306 68.8235 272.434 69.2928C272.572 69.7515 272.78 70.1888 273.058 70.6048C273.335 71.0102 273.692 71.3782 274.13 71.7088C274.567 72.0395 275.084 72.3008 275.682 72.4928L274.61 74.1728C273.671 73.8635 272.898 73.3942 272.29 72.7648C271.682 72.1355 271.234 71.3995 270.946 70.5568C270.658 69.7142 270.514 68.8182 270.514 67.8688V66.4288ZM284.641 68.2048H286.369V68.7328C286.369 69.5968 286.219 70.4128 285.921 71.1808C285.622 71.9488 285.163 72.6155 284.545 73.1808C283.937 73.7462 283.163 74.1675 282.225 74.4448L281.217 72.7968C282.017 72.5622 282.667 72.2368 283.169 71.8208C283.681 71.3942 284.054 70.9142 284.289 70.3808C284.523 69.8368 284.641 69.2875 284.641 68.7328V68.2048ZM285.041 68.2048H286.769V68.7328C286.769 69.1168 286.833 69.4955 286.961 69.8688C287.099 70.2422 287.307 70.5942 287.585 70.9248C287.873 71.2555 288.235 71.5488 288.673 71.8048C289.11 72.0608 289.622 72.2688 290.209 72.4288L289.249 74.0928C288.31 73.8368 287.526 73.4475 286.897 72.9248C286.278 72.3915 285.814 71.7622 285.505 71.0368C285.195 70.3115 285.041 69.5435 285.041 68.7328V68.2048ZM281.729 67.1328H289.697V68.8128H281.729V67.1328ZM284.641 65.5488H286.769V67.8048H284.641V65.5488ZM289.281 69.5488H292.097V71.2608H289.281V69.5488ZM291.585 65.6128H293.729V74.5568H291.585V65.6128ZM288.705 74.7968C290.273 74.7968 291.51 75.0422 292.417 75.5328C293.323 76.0235 293.777 76.7168 293.777 77.6128C293.777 78.4982 293.323 79.1862 292.417 79.6768C291.51 80.1782 290.273 80.4288 288.705 80.4288C287.137 80.4288 285.899 80.1782 284.993 79.6768C284.086 79.1862 283.633 78.4982 283.633 77.6128C283.633 76.7168 284.086 76.0235 284.993 75.5328C285.899 75.0422 287.137 74.7968 288.705 74.7968ZM288.705 76.4288C288.065 76.4288 287.521 76.4715 287.073 76.5568C286.635 76.6422 286.305 76.7755 286.081 76.9568C285.857 77.1275 285.745 77.3462 285.745 77.6128C285.745 77.8688 285.857 78.0875 286.081 78.2688C286.305 78.4502 286.635 78.5835 287.073 78.6688C287.521 78.7542 288.065 78.7968 288.705 78.7968C289.355 78.7968 289.899 78.7542 290.337 78.6688C290.774 78.5835 291.099 78.4502 291.313 78.2688C291.537 78.0875 291.649 77.8688 291.649 77.6128C291.649 77.3462 291.537 77.1275 291.313 76.9568C291.099 76.7755 290.774 76.6422 290.337 76.5568C289.899 76.4715 289.355 76.4288 288.705 76.4288Z" fill="white"/>
<defs>
<filter id="filter0_d_776_6064" x="19" y="15" width="342" height="125.053" filterUnits="userSpaceOnUse" color-interpolation-filters="sRGB">
<feFlood flood-opacity="0" result="BackgroundImageFix"/>
<feColorMatrix in="SourceAlpha" type="matrix" values="0 0 0 0 0 0 0 0 0 0 0 0 0 0 0 0 0 0 127 0" result="hardAlpha"/>
<feMorphology radius="3" operator="dilate" in="SourceAlpha" result="effect1_dropShadow_776_6064"/>
<feOffset dy="5"/>
<feGaussianBlur stdDeviation="7.5"/>
<feComposite in2="hardAlpha" operator="out"/>
<feColorMatrix type="matrix" values="0 0 0 0 0 0 0 0 0 0 0 0 0 0 0 0 0 0 0.15 0"/>
<feBlend mode="normal" in2="BackgroundImageFix" result="effect1_dropShadow_776_6064"/>
<feBlend mode="normal" in="SourceGraphic" in2="effect1_dropShadow_776_6064" result="shape"/>
</filter>
</defs>
</svg>
